<svg id="レイヤー_1" data-name="レイヤー 1" xmlns="http://www.w3.org/2000/svg" viewBox="0 0 877.93 358.07"><defs><style>.cls-1{fill:#fff;}</style></defs><path class="cls-1" d="M.54,109.23l24.78-32a12.29,12.29,0,0,0,2-3.59,13.93,13.93,0,0,0,.35-3,9.9,9.9,0,0,0-2.22-6.42,8.32,8.32,0,0,0-6.54-2.83,8.46,8.46,0,0,0-6.23,2.47,10.93,10.93,0,0,0-3.05,7h-9a20.35,20.35,0,0,1,5.3-13.48,16.71,16.71,0,0,1,12.31-5.29,17.87,17.87,0,0,1,13.27,5.39A19.35,19.35,0,0,1,32.85,82.3L12.47,108.7H36.68V118H.54Z"/><path class="cls-1" d="M45.16,70.86q.09-9,5.61-13.93a17.45,17.45,0,0,1,12.35-4.84,17.73,17.73,0,0,1,12.57,4.85c3.51,3.25,5.32,7.91,5.44,13.94V99.72q-.18,9-5.44,13.91a18.06,18.06,0,0,1-12.57,4.93,17.79,17.79,0,0,1-12.35-4.93q-5.52-4.87-5.61-13.88Zm26.92.58q-.27-9.84-9-10-8.73.18-8.9,10V99.21q.16,9.93,8.9,10,8.7-.09,9-10Z"/><path class="cls-1" d="M88.71,109.23l24.78-32a12.34,12.34,0,0,0,2-3.59,13.89,13.89,0,0,0,.34-3,9.9,9.9,0,0,0-2.22-6.42,8.31,8.31,0,0,0-6.53-2.83,8.45,8.45,0,0,0-6.23,2.47,10.94,10.94,0,0,0-3.06,7H88.71A20.36,20.36,0,0,1,94,57.38a16.7,16.7,0,0,1,12.31-5.29,17.85,17.85,0,0,1,13.26,5.39A19.37,19.37,0,0,1,121,82.3l-20.39,26.4h24.21V118H88.71Z"/><path class="cls-1" d="M145.57,80.22h3.13a9.58,9.58,0,0,0,7.22-2.66,9,9,0,0,0,2.57-6.68,9.71,9.71,0,0,0-2.65-6.8,9.21,9.21,0,0,0-6.61-2.66,8.21,8.21,0,0,0-5.31,1.94,9.82,9.82,0,0,0-3.39,6h-9.09a19.39,19.39,0,0,1,5.7-12.24,16.31,16.31,0,0,1,11.73-5q8.64.09,13.73,5.7a19.18,19.18,0,0,1,5,12.91A20.19,20.19,0,0,1,166.21,78a15.25,15.25,0,0,1-5.61,6.23,16.41,16.41,0,0,1,6,6.46,18.64,18.64,0,0,1,1.74,7.9q-.08,9.19-5.51,14.48a18.7,18.7,0,0,1-13.72,5.52,17,17,0,0,1-11.46-4.3q-5-4.29-6.47-12.44h9.08a13.39,13.39,0,0,0,3.43,5.3,8.43,8.43,0,0,0,6,2.11,9,9,0,0,0,6.74-2.83c1.85-1.77,2.81-4.28,2.86-7.55s-1-5.91-2.86-7.74a9.63,9.63,0,0,0-7-2.65h-3.88Z"/><path class="cls-1" d="M180.21,108.7h9V118h-9Z"/><path class="cls-1" d="M206.46,62.52l-9,6.81v-10l9-6.73h9.06V118h-9.06Z"/><path class="cls-1" d="M230.24,108.7h9V118h-9Z"/><path class="cls-1" d="M249,109.23l24.78-32a12.29,12.29,0,0,0,2-3.59,13.93,13.93,0,0,0,.35-3,9.86,9.86,0,0,0-2.23-6.42,8.3,8.3,0,0,0-6.53-2.83,8.45,8.45,0,0,0-6.23,2.47,10.88,10.88,0,0,0-3.05,7H249a20.35,20.35,0,0,1,5.3-13.48,16.71,16.71,0,0,1,12.31-5.29,17.89,17.89,0,0,1,13.27,5.39,19.35,19.35,0,0,1,1.43,24.82l-20.39,26.4h24.22V118H249Z"/><path class="cls-1" d="M293.57,70.86q.09-9,5.61-13.93a17.45,17.45,0,0,1,12.35-4.84,17.73,17.73,0,0,1,12.57,4.85c3.51,3.25,5.32,7.91,5.43,13.94V99.72q-.16,9-5.43,13.91a18.06,18.06,0,0,1-12.57,4.93,17.79,17.79,0,0,1-12.35-4.93q-5.52-4.87-5.61-13.88Zm26.91.58q-.25-9.84-9-10-8.73.18-8.91,10V99.21q.18,9.93,8.91,10,8.69-.09,9-10Z"/><path class="cls-1" d="M340.44,108.7h9.05V118h-9.05Z"/><path class="cls-1" d="M363.63,78.64h-4.57V71.47h4.57V65.32q0-6.63,3.56-9.77a13.08,13.08,0,0,1,8.73-2.92h5.86v8.79H376.6q-4.1-.14-3.92,3.87v6.18h9.1v7.17h-9.1V118h-9.05Z"/><path class="cls-1" d="M389,71.47h9.05V76.4h.19a14.83,14.83,0,0,1,21.21-1.94l-6.61,8.09a9.35,9.35,0,0,0-6-2.34,8.4,8.4,0,0,0-6,2.33q-2.78,2.29-2.87,7.41V118H389Z"/><path class="cls-1" d="M425,52.63h9.05V62H425Zm0,18.84h9.05V118H425Z"/><path class="cls-1" d="M449,88.2h44.49V97H449Z"/><path class="cls-1" d="M512.17,62.52l-9,6.81v-10l9-6.73h9.05V118h-9.05Z"/><path class="cls-1" d="M536,108.7h9V118h-9Z"/><path class="cls-1" d="M554.65,109.23l24.78-32a12.29,12.29,0,0,0,2-3.59,13.93,13.93,0,0,0,.35-3,9.9,9.9,0,0,0-2.22-6.42A8.32,8.32,0,0,0,573,61.42a8.46,8.46,0,0,0-6.23,2.47,10.93,10.93,0,0,0-3,7h-9.05A20.35,20.35,0,0,1,560,57.38a16.71,16.71,0,0,1,12.31-5.29,17.87,17.87,0,0,1,13.27,5.39A19.35,19.35,0,0,1,587,82.3l-20.38,26.4h24.21V118H554.65Z"/><path class="cls-1" d="M598.74,109.23l24.78-32a12.29,12.29,0,0,0,2-3.59,13.93,13.93,0,0,0,.35-3,9.86,9.86,0,0,0-2.23-6.42,8.3,8.3,0,0,0-6.53-2.83,8.45,8.45,0,0,0-6.23,2.47,10.88,10.88,0,0,0-3.05,7h-9A20.35,20.35,0,0,1,604,57.38a16.71,16.71,0,0,1,12.31-5.29,17.89,17.89,0,0,1,13.27,5.39,19.35,19.35,0,0,1,1.43,24.82l-20.39,26.4h24.22V118H598.74Z"/><path class="cls-1" d="M646.14,108.7h9.05V118h-9.05Z"/><path class="cls-1" d="M669.21,103.8a18.6,18.6,0,0,0,14.29,6,11.76,11.76,0,0,0,6.4-1.57,4.91,4.91,0,0,0,2.48-4.39,3.88,3.88,0,0,0-1.48-3.5,7.55,7.55,0,0,0-4-1.12l-8-.72a15,15,0,0,1-9.27-4q-3.66-3.31-3.75-9.28.09-7.18,4.92-10.77t11.91-3.59a35.12,35.12,0,0,1,5.61.41,27.28,27.28,0,0,1,4.65,1.25,26.74,26.74,0,0,1,7.48,4.71L694.78,84a28,28,0,0,0-5.53-3.22,18,18,0,0,0-6.62-1.13c-2.84,0-4.83.53-6,1.57a5.15,5.15,0,0,0-1.79,4A3.18,3.18,0,0,0,676.23,88c.87.87,2.41,1.43,4.62,1.66l7.48.59q7,.54,10.19,4.4a15.18,15.18,0,0,1,2.91,9.56,12.21,12.21,0,0,1-5.34,10.47q-5.22,3.76-13.34,3.86-11,0-19.86-8.34Z"/><path class="cls-1" d="M710.05,71.47h9.06V99.22a10.17,10.17,0,0,0,2.56,7.37,8.5,8.5,0,0,0,6.43,2.64,8.36,8.36,0,0,0,6.39-2.64A10.28,10.28,0,0,0,737,99.22V71.47h9V118h-9v-5h-.17a14.34,14.34,0,0,1-11.68,5.52,15,15,0,0,1-10.11-4.21q-4.9-4-5-11.91Z"/><path class="cls-1" d="M757.09,71.47h9V76.4h.18A14.34,14.34,0,0,1,778,70.88,15.14,15.14,0,0,1,788.28,75q4.61,4.13,4.82,12.1v31h-9.05V90.27c0-3.27-.84-5.75-2.52-7.46a8.44,8.44,0,0,0-6.39-2.6,8.57,8.57,0,0,0-6.43,2.6c-1.71,1.71-2.57,4.19-2.57,7.46V118h-9Z"/><path class="cls-1" d="M9,145.18,0,152V142l9-6.73h9v65.39H9Z"/><path class="cls-1" d="M46.21,145.18l-9,6.82V142l9-6.73h9v65.39h-9Z"/><path class="cls-1" d="M72.29,170.51h9v9.32h-9Zm0,20.85h9v9.33h-9Z"/><path class="cls-1" d="M96.12,153.52q.09-9,5.61-13.93a17.46,17.46,0,0,1,12.35-4.83,17.71,17.71,0,0,1,12.56,4.84q5.27,4.89,5.44,14v28.84q-.18,9-5.44,13.9a18.06,18.06,0,0,1-12.56,4.94,17.82,17.82,0,0,1-12.35-4.93q-5.52-4.87-5.61-13.88Zm26.91.59q-.27-9.84-9-10-8.74.18-8.91,10v27.77q.18,9.93,8.91,10,8.69-.09,9-10Z"/><path class="cls-1" d="M140.21,153.52q.07-9,5.61-13.93a17.46,17.46,0,0,1,12.34-4.83,17.72,17.72,0,0,1,12.57,4.84q5.27,4.89,5.44,14v28.84q-.18,9-5.44,13.9a18.07,18.07,0,0,1-12.57,4.94,17.81,17.81,0,0,1-12.34-4.93q-5.53-4.87-5.61-13.88Zm26.91.59q-.27-9.84-9-10-8.73.18-8.9,10v27.77q.17,9.93,8.9,10,8.7-.09,9-10Z"/><path class="cls-1" d="M189.66,170.87h44.48v8.78H189.66Z"/><path class="cls-1" d="M252.85,145.18l-9,6.82V142l9-6.73h9v65.39h-9Z"/><path class="cls-1" d="M284.76,200.69a16.24,16.24,0,0,1,.76-1.64l2.11-4.24q1.31-2.59,2.92-5.78t3.18-6.28q1.57-3.09,2.94-5.7t2.22-4.08a7,7,0,0,1-2.94.92,27.05,27.05,0,0,1-3.79.07,13.67,13.67,0,0,1-5.18-1.08,13.94,13.94,0,0,1-3.83-2.47,14.31,14.31,0,0,1-2.7-3.29,22.55,22.55,0,0,1-1.72-3.55,18.94,18.94,0,0,1-.94-3.22,13,13,0,0,1-.3-2.36c0-.18,0-.51,0-1s0-1,0-1.59,0-1.17,0-1.77a14.33,14.33,0,0,1,.11-1.52c0-.21.13-.74.3-1.6a19.16,19.16,0,0,1,.92-3.07,23.56,23.56,0,0,1,1.88-3.83,17.25,17.25,0,0,1,3.16-3.84,18.12,18.12,0,0,1,4.8-3.09,20.76,20.76,0,0,1,6.75-1.66,20.47,20.47,0,0,1,7.2.49A16.55,16.55,0,0,1,308,138a15.3,15.3,0,0,1,3.72,3.77,19.82,19.82,0,0,1,2.31,4.37,19.58,19.58,0,0,1,1.1,4.3,14.62,14.62,0,0,1,.09,3.57c-.18,1.46-.37,2.77-.58,3.92s-.46,2.25-.74,3.3-.61,2.08-1,3.1-.78,2.12-1.25,3.31c-.12.33-.45,1.05-1,2.16s-1.18,2.46-2,4.06-1.66,3.37-2.6,5.33-1.91,3.93-2.9,5.9l-7.71,15.61Zm2-47.36c0,1.16.06,2.45.18,3.85a11.61,11.61,0,0,0,1.05,4,8.12,8.12,0,0,0,2.76,3.19,10.09,10.09,0,0,0,5.29,1.5,7.58,7.58,0,0,0,3.1-.43,9,9,0,0,0,2.46-1.36,10.34,10.34,0,0,0,1.87-1.93,15.42,15.42,0,0,0,1.3-2.13,10.45,10.45,0,0,0,.74-2,6.22,6.22,0,0,0,.22-1.44c0-.75-.05-1.58-.07-2.51a17.25,17.25,0,0,0-.27-2.83,11.49,11.49,0,0,0-.83-2.75,6.56,6.56,0,0,0-1.66-2.31,7.38,7.38,0,0,0-2.75-1.55,11.33,11.33,0,0,0-4.2-.43,8.48,8.48,0,0,0-4.55,1.39,11.21,11.21,0,0,0-2.8,2.78,10.44,10.44,0,0,0-1.44,3A8.83,8.83,0,0,0,286.78,153.33Z"/><path class="cls-1" d="M323,170.51h9.05v9.32H323Zm0,20.85h9.05v9.33H323Z"/><path class="cls-1" d="M346.85,153.52q.07-9,5.61-13.93a17.46,17.46,0,0,1,12.35-4.83,17.71,17.71,0,0,1,12.56,4.84q5.26,4.89,5.44,14v28.84q-.18,9-5.44,13.9a18.06,18.06,0,0,1-12.56,4.94,17.82,17.82,0,0,1-12.35-4.93q-5.54-4.87-5.61-13.88Zm26.91.59q-.27-9.84-8.95-10-8.74.18-8.91,10v27.77q.17,9.93,8.91,10,8.69-.09,8.95-10Z"/><path class="cls-1" d="M390.93,153.52q.09-9,5.61-13.93a17.48,17.48,0,0,1,12.35-4.83,17.72,17.72,0,0,1,12.57,4.84q5.27,4.89,5.43,14v28.84q-.17,9-5.43,13.9a18.07,18.07,0,0,1-12.57,4.94,17.84,17.84,0,0,1-12.35-4.93q-5.52-4.87-5.61-13.88Zm26.91.59q-.25-9.84-8.95-10-8.73.18-8.9,10v27.77q.17,9.93,8.9,10,8.7-.09,8.95-10Z"/><path class="cls-1" d="M8.63,254.47H6.26V226.91H8.63Z"/><path class="cls-1" d="M46.4,239.76a24,24,0,0,1-4.82-2.18v1.57a38.51,38.51,0,0,0-4.41-.17H32.74a37.48,37.48,0,0,0-4.41.17v-1.68A18.2,18.2,0,0,1,24,239.76l-2-2.29a17.78,17.78,0,0,0,7-3.61A16.38,16.38,0,0,0,33.81,228l2.87,1a.56.56,0,0,1,.47.53c0,.22-.22.38-.47.46.77,1.85,5.07,5.9,11.49,7.33ZM37.17,244H34.86a21.88,21.88,0,0,1-2.92,5.32c2.12-.17,5-.53,7.91-.91a18,18,0,0,0-2.43-2.12l2.1-1.43A21.3,21.3,0,0,1,45,251.41l-2.09,1.74a11.93,11.93,0,0,0-1.49-2.76c-9.24,1.35-10,1.46-14.06,1.82-.11.25-.33.69-.66.69-.08,0-.3-.06-.36-.41L26,249.65c1.44,0,2-.06,2.93-.11a21.55,21.55,0,0,0,3-5.54h-1a55,55,0,0,0-7,.28v-2.65c2.65.14,3.61.16,7.14.16h6c3.25,0,5.18,0,9.12-.32v2.64C44.31,244,42,244,37.17,244Zm-2.5-12.54a22.91,22.91,0,0,1-5.35,5.29c.27,0,2.07.14,3.42.14h4.43c1.08,0,2.57-.08,3.12-.11A20,20,0,0,1,34.67,231.46Z"/><path class="cls-1" d="M51.56,247.19c-.09.36-.2.78-.53.78-.16,0-.22-.14-.33-.58l-.6-2.4c1.6-.39,2.78-.8,3.39-1v-7.5H53a13.63,13.63,0,0,0-2.78.25V234a16.53,16.53,0,0,0,2.78.25h.45c-.06-2.31-.06-2.34-.17-5.42l2.87.27c.16,0,.63,0,.63.39s-.3.41-.85.6c0,.3-.09,3.22-.09,4.16a15.79,15.79,0,0,0,2.73-.25v2.73a19.15,19.15,0,0,0-2.78-.25v6.65c2-.75,2.2-.8,2.78-1.08v2.4C57.59,244.94,53.18,246.62,51.56,247.19Zm17.94-6.44h-4a14.33,14.33,0,0,1-.88,1.52h3.91c.83,0,4.44-.2,5.59-.31a57.55,57.55,0,0,1-.66,9c-.49,1.76-2.06,1.76-3,1.76a4.16,4.16,0,0,1-.64,0l-1.32-2.47c.31,0,1.82.11,2,.11.47,0,.69-.2.82-.91a26.71,26.71,0,0,0,.58-5.19H70.68a13.08,13.08,0,0,1-7.47,9.18L61,251.71a10.91,10.91,0,0,0,7.33-7.44H67.16A8.94,8.94,0,0,1,64.43,248a23.7,23.7,0,0,1-4.19,2.84l-2.07-1.68a13.18,13.18,0,0,0,5.35-3.39,8.17,8.17,0,0,0,1.18-1.52H63.16A14,14,0,0,1,58.61,248l-2.42-1.57a12.11,12.11,0,0,0,6.67-5.67c-2.24,0-3.31,0-4.69.14v-2.48c2.26.25,5.38.25,5.57.25H69.5s3.19,0,5.59-.25v2.48C73.35,240.75,71.21,240.75,69.5,240.75Zm-.94-3.23H63.77c-.53,0-2.82.17-3.29.2,0-.28.12-2.45.12-2.9v-2.94c0-.36-.09-2.95-.12-3.42.89.08,3.59.19,3.64.19h4.22c1.24,0,3-.11,4.1-.19,0,1-.11,2.7-.11,3.17v2.59c0,.3.11,3.16.11,3.5C71.53,237.63,70.05,237.52,68.56,237.52Zm1.32-6.94H62.94v1.63h6.94Zm0,3.44H62.94v1.61h6.94Z"/><path class="cls-1" d="M91.29,254.47H88.92V226.91h2.37Z"/><path class="cls-1" d="M135.78,252.79a20.6,20.6,0,0,1-7.36-4.52,17.67,17.67,0,0,1-2.15-2.54c.09,4.77.09,5.29.2,7.44h-2.9c.09-1.1.23-6.2.25-7.46a26.83,26.83,0,0,1-4.88,4.68,13.65,13.65,0,0,1-4.24,2.4l-1.65-2.07a13.3,13.3,0,0,0,5.37-2.95,20.86,20.86,0,0,0,3-3.06c-3.19,0-3.55,0-5.2.09,0-1,.08-2.81.08-3.89v-3.19c0-.89,0-2.26-.08-3.14.85,0,4.6.08,5.37.08h2.23v-1.74h-2.73c-2.7,0-5.37.05-8,.22v-2.7c2.75.17,6.8.22,8,.22h2.71c0-.93,0-1.18-.06-2.61l2.89.22c.44,0,.58.14.58.36s-.25.44-.88.74c0,.19,0,1.13,0,1.29h2.76c2.72,0,5.43,0,8.15-.22v2.7c-3.52-.22-7.82-.22-8.15-.22h-2.79c0,.28,0,1.49,0,1.74h2.12c1.63,0,3.88,0,5.48-.11,0,1.16-.08,2.31-.08,3.47v3.19c0,.83.06,2.21.11,3.59-2-.06-3.86-.09-5-.09h-.55c.77,1.14,2.73,3.86,9,5.9Zm-11.93-16.12h-5.1v2.15h5.1Zm0,4h-5.1v2.21h5.1Zm7.49-4h-5.12v2.15h5.12Zm0,4h-5.12v2.21h5.12Z"/><path class="cls-1" d="M156.5,233.22h-7.91c-2.64,0-5.31.06-8,.23v-2.7c2.76.16,6.78.22,8,.22h2.68c0-1,0-1.93-.09-2.9l2.84.22c.58.06.75.2.75.42s-.33.47-.69.63c0,.55,0,1.1,0,1.63h2.45c2.7,0,5.4-.06,8.08-.22v2.7C161.1,233.22,156.81,233.22,156.5,233.22Zm-8.62,13.84a20.6,20.6,0,0,1-5.1,4.27l-2.18-2a14.31,14.31,0,0,0,5.57-4.57l2.37,1.7c.19.14.27.22.27.39C148.81,247.14,148.54,247.11,147.88,247.06Zm7.88-3.72h-1.93V250c0,1.85,0,2-.52,2.48-.83.69-2.21.83-4.47.69l-.93-2.81a23.37,23.37,0,0,0,2.48.25c.79,0,.79-.22.79-.86v-6.39h-2c-1.41,0-3.31,0-5,.11.14-1.24.19-2.78.19-3.06v-2.45c0-.91,0-1.85-.08-2.78,1.57.05,2.29.05,5,.05h6.2c2.32,0,3.81,0,5.18-.05,0,.79-.05,1-.05,2.94v2.46c0,.08.05,2.58.08,2.92C158.38,243.34,155.84,243.34,155.76,243.34Zm2.4-5.87H147.05v3.8h11.11Zm3.72,13.7a29.44,29.44,0,0,0-2.62-2.32,20.29,20.29,0,0,0-3.06-2.12l1.68-1.82a25.27,25.27,0,0,1,6,4.05Z"/><path class="cls-1" d="M191.09,244.41c-1.71,0-3-2.23-3-5.09,0-.3.14-1.56.14-1.81l-1.49,0a9.88,9.88,0,0,1-.74,2.8l1.74,1.23-1,1.8A16.47,16.47,0,0,0,185,242a9.34,9.34,0,0,1-3.11,2.67l-1.71-1.51a6.25,6.25,0,0,0,3.17-2.26,12.71,12.71,0,0,0-1.4-.77l1-1.57c.63.33.91.46,1.35.74a7,7,0,0,0,.44-1.65c-.74,0-2,.19-2.56.27l-.08-2.06c.3,0,2,.11,2.81.08a17.94,17.94,0,0,0-.09-2.09h-2.34a17.17,17.17,0,0,0,.2-1.74v-.44h-4.41c0,.44.13,1.13.19,1.62h-2.54c0-.11,0-.11,0-.16l-.16.08c0,.17,0,.36,0,.55h.6c.72,0,2.51-.14,3.39-.19v2c-.49,0-2.67-.19-3.39-.19h-.6v1.3h1c1,0,3.55-.14,4.57-.2v2l-3.08-.16v1c0,.36.08.47.44.47h.71c.61,0,.61-.27.61-1.19l1.74.44c-.11,2.07-.78,2.23-2.07,2.23h-1.57V242c-.53-.06-1.9-.2-2.37-.2v1c2.07-.25,3-.39,4.13-.55l-.52,1.59a91.51,91.51,0,0,1-9.78,1.19c-.17.33-.28.58-.5.58s-.27-.22-.33-.44l-.55-1.9c.85,0,2.42,0,5.48-.25v-1.22a20.76,20.76,0,0,0-2.75.2V240.8a7.79,7.79,0,0,1-1.82.75l-1.85-1.3c1.74-.27,3.06-.77,3.69-2-.74,0-1.76.08-3.27.16v-2c.77.06,3.63.2,4.57.2h1.43v-1.3h-.8c-.46,0-1.24.05-3.39.19v-2c.69.05,2.71.19,3.39.19h.8c0-.3,0-.66-.19-1.65l2,.16a1.61,1.61,0,0,1,.5.09,3.55,3.55,0,0,0,0-.69c-1.79,0-5.4.11-8.13.19V229.7c1,0,6.34.19,8.16.19a16.76,16.76,0,0,0-.2-1.84l2.13.19c.3,0,.82,0,.82.36s-.38.47-.55.58a4.73,4.73,0,0,0-.05.71h4.41a11.19,11.19,0,0,0-.2-1.84l2.12.19c.31,0,.83,0,.83.36s-.39.47-.55.58a4.6,4.6,0,0,0-.06.71c4-.08,4.47-.11,7.61-.19v2.12c-3.55-.11-4.27-.14-7.61-.19v.44c0,.27.06.55.14,1.38l1.71.22c.42.05.69.08.69.33s-.14.33-.44.47c0,.46,0,.58-.05,1.37l.52,0a29.17,29.17,0,0,0,3.72-.42,9.89,9.89,0,0,0-1,3.89c0,1.62.66,2.7,1,2.7s.46-1.76.46-2.12l1.74,1.48C193.12,242.24,192.71,244.41,191.09,244.41Zm-3.83,5c2.42,1.57,3.05,2,3.74,2.57l-1.62,1.7a20.53,20.53,0,0,0-1.93-1.51c-4,.33-9.76.74-17.14.83-.22.46-.3.57-.47.57s-.19,0-.33-.41l-.8-2.18c2.48.06,4.88,0,5.21,0,.47-.52,1.21-1.46,1.38-1.65-3.83.08-4.33.11-7.42.19v-2c.55,0,6.4.17,8.11.17h8.32c1.51,0,5.23-.09,8.07-.17v2C190.67,249.45,189,249.4,187.26,249.37Zm-10.73-11.13h-4.76l1,.58a.35.35,0,0,1,.24.33c0,.22-.27.25-.55.25a4.32,4.32,0,0,1-.77.77l1.88,0c0-.42-.12-1-.17-1.44l2,.17c.36,0,.8.08.8.39s-.39.44-.55.55c0,.11,0,.19,0,.3h.82Zm6.29,8.49h-5.24c-1.65,0-3.74.08-5.07.16v-2.06c.75,0,4,.19,5.07.19h5.24c1,0,3.33-.11,5.07-.19v2.06C187.28,246.84,183.89,246.73,182.82,246.73Zm1.21,3.19.44-.6H178c-.38.44-1,1.16-1.35,1.62,2.73-.05,4.69-.16,8.44-.38C184.72,250.31,184.44,250.17,184,249.92Z"/><path class="cls-1" d="M208.25,235.54c0,.3,0,1.52,0,1.76v8.22c0,1.32.17,6.28.22,7.66h-2.86c0-1.27.25-6.87.25-8v-9.64a25.12,25.12,0,0,0-3.14.19.65.65,0,0,1,.24.47c0,.44-.41.44-.57.44a2,2,0,0,1-.42,0,18.83,18.83,0,0,1-1.49,2.09c.39.17.72.3.72.66s-.11.31-.63.72c0,1-.09,3.33-.09,4.35v3.83c0,.25.2,4.38.23,4.94h-2.87c.05-.75.3-4.25.3-4.55v-7.28a14.68,14.68,0,0,1-1.57,1.33l-2.12-1.46a18.61,18.61,0,0,0,6-7l2,1.32v-2.45a25.23,25.23,0,0,0,3.39.22v-1.19c0-.66,0-3.3,0-4l2.76.31c.41,0,.63.19.63.44s-.19.41-.85.74c0,.64,0,2.46,0,3.67a26.28,26.28,0,0,0,3.58-.22v2.7A21.62,21.62,0,0,0,208.25,235.54Zm-6.31-4.9a1.31,1.31,0,0,1-.47-.09,15.12,15.12,0,0,1-4.62,4.41l-2.18-1.65a12.71,12.71,0,0,0,5.29-5l2.18,1.33a.71.71,0,0,1,.35.55A.5.5,0,0,1,201.94,230.64Zm1.68,17.91-2.53-.66a20,20,0,0,0,1.6-8.44c0-.74,0-1.24,0-1.65l2.42.33C205.19,241.52,204.86,246,203.62,248.55ZM217.4,232h-2.34a11,11,0,0,0-2.37.23v-.77l-1.79,1.48a11.81,11.81,0,0,0-2.26-2.53l1.73-1.44a8.43,8.43,0,0,1,2.32,2.46v-1.9a15.3,15.3,0,0,0,2.37.22h2.34a11.78,11.78,0,0,0,2.4-.22v2.7A12.71,12.71,0,0,0,217.4,232Zm-6.92,16.15a48.77,48.77,0,0,0-1.68-9.89l2.37-.5a44,44,0,0,1,2,9.07Zm7.17-10v9.23c0,.58,0,3.22,0,3.77-.17,1.93-1.74,1.93-4.36,1.9l-1.12-2.83a11.88,11.88,0,0,0,2.15.27c.85,0,.85-.16.85-1.84V238.13h-.47a15.7,15.7,0,0,0-2.81.25v-2.7a21.85,21.85,0,0,0,2.81.22h2.76a16.62,16.62,0,0,0,2.83-.22v2.7A14.35,14.35,0,0,0,217.65,238.16Z"/><path class="cls-1" d="M245.59,252.76a23.08,23.08,0,0,1-6.36-4.32,18.37,18.37,0,0,1-4.06-6.15A17.48,17.48,0,0,1,231,249a16,16,0,0,1-6.14,4l-1.9-2.39a13.76,13.76,0,0,0,7.71-5.35,15.71,15.71,0,0,0,2.89-7.6h-2.37c-2.59,0-5.18.05-7.77.22v-2.71c2.67.2,6.56.22,7.77.22h2.57c.08-1.32.13-2.48.13-3.71,0-1.38-.05-2.37-.08-3.06l3.2.33c.3,0,.8.11.8.49s-.67.61-1,.75c0,.57,0,.91-.11,3.86,0,.71,0,1,0,1.34h2.59c2.62,0,5.21,0,7.83-.22v2.71c-3.36-.22-7.55-.22-7.83-.22h-2.51c.53,6.39,6.23,11.24,10.83,12.53Z"/><path class="cls-1" d="M267,246.37h-2.54v1c0,.5.09,2.82.09,3.37a1.81,1.81,0,0,1-1.57,2.09,17.41,17.41,0,0,1-3.45.14L258.35,250c.47.08,2.42.38,2.67.38.83,0,.88-.58.88-1.82v-2.2h-3.33c-1,0-5.24,0-8.16.22V244c3.26.22,7.94.22,8.16.22h3.3a13.25,13.25,0,0,0-.3-2.93l1.82.45a22.77,22.77,0,0,0,2.26-2h-6c-1.24,0-2.48,0-3.72.11v-2.48c.47,0,4.39.19,5.16.19h3.08c1.24,0,3.91-.13,5.07-.27l1,1.43c-.36.33-2.21,2-2.57,2.4l-1.15,1.15-1.9,1.91H267c1.21,0,5.51,0,8.24-.22v2.64C272.7,246.42,269.62,246.37,267,246.37Zm4.68-7.33c.06-1.65.09-1.85.06-3.64H253.86c0,.25,0,2.18.16,3.64h-3.11a16.44,16.44,0,0,0,.3-3.67,22.26,22.26,0,0,0-.11-2.36c.77.11,3.94.16,5,.19a10.65,10.65,0,0,0-2.42-3.36l2.28-1.38A9.15,9.15,0,0,1,258.4,232l-2,1.19,3.45.08h5.13l3.66-.08-1.68-.77a12.24,12.24,0,0,0,2.2-4.08l2.43,1c.22.08.58.25.58.41,0,.5-.64.61-.94.66a26.7,26.7,0,0,1-1.74,2.76c1.38,0,3.42-.11,5.07-.22,0,.6-.11,1.46-.11,2.84a13.94,13.94,0,0,0,.25,3.22Zm-9.34-6.14a9.13,9.13,0,0,0-2.31-3.78l2.17-1.24a7.29,7.29,0,0,1,2.4,3.8Z"/><path class="cls-1" d="M293,242.35c-1.21-1.33-1.41-1.55-1.9-2.18v5.23c0,3,.16,6.59.22,7.78h-2.64c.08-2.48.16-6.54.16-7.75v-4.05a20.85,20.85,0,0,1-2.23,4l-2-1.63a17.29,17.29,0,0,0,3.94-8.43c-.47,0-2.34.11-2.84.17V233c.88.06,2.07.09,3.17.09,0-1.63-.06-2.26-.14-4.94l2.84.33c.31,0,.39.11.39.33s-.08.33-.72.61c-.05,2-.05,2.4-.05,3.67.82,0,1.7,0,2.53-.11v2.34a15,15,0,0,0-2.15-.06h-.41a.91.91,0,0,0,0,.25,13.13,13.13,0,0,0,3.42,5Zm11.71-4.69H303v1.6c1.88,0,3.12,0,5.79-.19,0,.71,0,2.39,0,2.89v3.7c0,1.26.05,2,.11,2.75-1.24-.09-2.59-.14-5-.14h-4.05c-.67,0-.8,0-1.88,0l2,1.54a.52.52,0,0,1,.17.39c0,.27-.22.27-.83.3a12.72,12.72,0,0,1-4.85,2.73L292.7,251a7.37,7.37,0,0,0,3.3-1,6.7,6.7,0,0,0,1.9-1.68c-.46,0-2.47.11-2.89.11a26.36,26.36,0,0,0,.11-2.7v-3.25c0-.58,0-2.62-.05-3.28.55,0,1.24.08,2.94.08h2.68v-1.6h-1.46c-1.77,0-3.56.08-5.32.17v-2.26a42,42,0,0,0,4.21.16v-2.48c-1.7,0-2.67.08-3.47.14v-2.23c.64.06,1.19.11,3.47.14,0-1.55,0-1.71-.08-3.14l2.81.25c.2,0,.36.08.36.33s-.08.27-.71.71c0,.75-.06,1.49-.06,1.85h3.17c0-.3,0-.8,0-1.13-.05-1.52-.05-1.68-.05-2l2.7.19a.39.39,0,0,1,.3.3c0,.25-.17.36-.55.63,0,.34-.06,1.71-.08,2a27,27,0,0,0,3.27-.17v2.26c-.93-.06-2.12-.11-3.27-.14v2.48a35,35,0,0,0,4.18-.16v2.26C307.88,237.72,305.79,237.66,304.68,237.66Zm-4,3.5h-3.23v1.71h3.23Zm0,3.5h-3.23v1.8h3.23Zm2.94-11.44h-3.22v2.51h3.22Zm2.82,7.94H303v1.71h3.45Zm0,3.5H303v1.8h3.45Zm2.67,8.38a15.09,15.09,0,0,1-5.1-2.89l1.71-1.74a11.68,11.68,0,0,0,4.93,2.34Z"/><path class="cls-1" d="M317.41,240.36a11.65,11.65,0,0,0-4.9-2.81l1.18-2.4a11.38,11.38,0,0,1,5,2.76Zm14,5h-6.15c-2.07,0-4.14.06-6.2.25V243.2a50.22,50.22,0,0,1-3.58,8.79c.05.5.08.85-.28.85-.14,0-.25-.05-.44-.24l-2-2a39.69,39.69,0,0,0,4.66-9.56l1.68,1.88c1.13.11,1.32.11,3.25.19v-6.81a58.63,58.63,0,0,0-.25-6.09,12.65,12.65,0,0,0,1.74.08,26.27,26.27,0,0,0,9.75-1.79l2,2.1a.39.39,0,0,1,.11.27c0,.28-.25.33-.39.33a2.69,2.69,0,0,1-.77-.16,43.35,43.35,0,0,1-9.7,1.71v2.73h6.4c.16,0,1.82-.12,2.17-.12.94,0,2.1-.05,3.48-.13V238l-4-.16v5.29c.88,0,3-.06,4.77-.22v2.72C334.94,245.4,331.61,245.4,331.39,245.4Zm-12.52-12.06a9.17,9.17,0,0,0-4.71-2.73l1.16-2.34a11.56,11.56,0,0,1,4.77,2.7Zm6.84,14.77a21.79,21.79,0,0,1-5.4,4.85l-2.43-1.68a14.74,14.74,0,0,0,5.87-5.16l2.62,1.3a.39.39,0,0,1,.25.33C326.62,248.08,326.15,248.11,325.71,248.11Zm4.46-10.25h-5.34v5.31h5.34ZM336.1,253a18.51,18.51,0,0,1-4.27-3.08,8.61,8.61,0,0,1-1.77-2.21l2.1-1.6a14.92,14.92,0,0,0,6.11,4.8Z"/><path class="cls-1" d="M349.6,244.41a9.82,9.82,0,0,1-2.67-3.11v4.22c0,2.06,0,3.25.19,7.68h-2.76c.09-2.31.2-4.93.2-7.74v-2.7a16.58,16.58,0,0,1-2.9,4.6l-2-1.6c2.59-2.48,4.36-7.52,4.63-9.89h-.38a17.76,17.76,0,0,0-2.9.25v-2.73a19.18,19.18,0,0,0,2.9.25h.66c0-2.92,0-3.2-.08-5.46l3,.25c.22,0,.52.14.52.41s-.46.53-.93.75c0,.55-.08,3.08-.08,3.53v.52a21.33,21.33,0,0,0,2.67-.25v2.73a25.62,25.62,0,0,0-2.67-.25v.94a13.77,13.77,0,0,0,4.24,5.56Zm14.55,8.68a14.87,14.87,0,0,1-7-3.66,15.91,15.91,0,0,1-7.52,3.63l-1.54-2.31c3-.5,5.31-1.24,7.35-3.11a15.77,15.77,0,0,1-3.3-7l2.39-.94a15.37,15.37,0,0,0,2.62,5.84c.52-.88.86-1.6,2.07-5.89l2.4.85c.16.06.69.25.69.58s-.69.49-1,.55a19.53,19.53,0,0,1-2.45,5.79,12.92,12.92,0,0,0,6.64,3.19Zm-8.77-16.31a12,12,0,0,1-3.71,3.75L349.32,239a9.75,9.75,0,0,0,4.33-4.29l2.23,1.26a.54.54,0,0,1,.3.44C356.18,236.75,355.77,236.78,355.38,236.78Zm4.63-2.73H355.5a44.06,44.06,0,0,0-4.61.22v-2.7c1.6.19,3.89.22,4.61.22h.85c0-.41,0-3.44,0-3.69l2.84.25c.33,0,.58.11.58.41a.55.55,0,0,1-.3.44,3.19,3.19,0,0,0-.47.31c0,.44-.06,1.7-.06,2.28H360a37.68,37.68,0,0,0,4.63-.22v2.7C362.66,234.05,360.18,234.05,360,234.05Zm2.59,6.48a21,21,0,0,0-4.4-4.14l1.68-1.7a19.33,19.33,0,0,1,4.76,3.88Z"/><path class="cls-1" d="M373.21,248.52c-.63.27-3.44,1.32-4,1.57,0,.11-.08.55-.11.63s-.22.11-.28.11-.24-.22-.27-.3l-1-2.89a37.8,37.8,0,0,0,3.7-1.19v-8.71A21.68,21.68,0,0,0,368,238v-2.69a24,24,0,0,0,3.34.22c0-2.1,0-4.75-.09-6.32l3.09.45a.33.33,0,0,1,.33.33.37.37,0,0,1-.2.3,2.91,2.91,0,0,0-.41.3c0,.77-.05,4.25-.05,4.94a24.92,24.92,0,0,0,3.08-.22V238a19,19,0,0,0-3.08-.22v7.69a33.85,33.85,0,0,0,3.08-1.49v2.7A28.54,28.54,0,0,1,373.21,248.52Zm14.72,3.69h-4.8c-4.07,0-4.54-1.13-4.54-3.47v-7.55c-.47.22-2.57,1.27-3,1.49l-.94-2.54c1.79-.69,1.88-.71,3.92-1.62v-1.8c0-.71-.08-5.45-.11-6l3.14.3a.46.46,0,0,1,.36.39c0,.33-.42.5-.8.66,0,.33-.06,3.94-.06,4.66v.66l2.59-1.19v-2.06c0-.55-.16-5-.22-5.46l3,.36c.19,0,.44.08.44.3a.26.26,0,0,1-.14.25,5.33,5.33,0,0,1-.55.33c-.06.69-.11,3.78-.11,4.41v.75c.55-.31,2.87-1.47,3.5-1.77l1.79,1.1c-.06,6.18-.22,8.27-.52,9.56-.58,2.51-1.9,2.57-3.47,2.6L386.3,244a8.31,8.31,0,0,0,1.19.11c.6,0,.82-.19,1.05-1.27a35.08,35.08,0,0,0,.25-6.67c-.42.22-2.3,1.11-2.68,1.3v5.73c0,.3,0,.66.3,3.94h-2.94a19.58,19.58,0,0,0,.16-2.06c0-.28.08-1.52.08-1.77v-4.66l-2.59,1.27v8.41c0,.8.08,1.76,2.1,1.76h4.49c.86,0,1.65,0,2.12-.66a12.34,12.34,0,0,0,1.18-3.5l2,2.4C392,251.6,391.51,252.21,387.93,252.21Z"/><path class="cls-1" d="M423.85,252.49h-3.94c-3.28,0-3.64-1.41-3.64-3.45V238.93h-2.45c0,8.18-1.38,11.93-9.15,13.89L403,250c1.79-.17,5.15-.53,6.75-3.2,1.1-1.85,1.29-3.47,1.29-7.88-1.95,0-3.38,0-8,.19v-2.84c2.15.22,6.23.25,8.19.25h8.07c3,0,5.56,0,8.4-.25v2.84c-3.06-.11-5.81-.19-8.73-.19v9.31c0,.89,0,1.88,1.84,1.88h2.21c1.38,0,1.76-1,2.2-3.39l2.48,1.51C426.88,252.49,425.58,252.49,423.85,252.49ZM418.39,232h-6.06c-2.34,0-3.39.06-5.9.23v-2.87c2.12.17,5.13.22,5.79.22h6.09c2,0,4.08-.08,6.12-.22v2.87C424,232.18,419.52,232,418.39,232Z"/><path class="cls-1" d="M440.19,247.75c0-.55.05-.61.08-1.13h-6.78c0,.38.14,2.09.14,2.45h-2.78c0-.91.08-2.81.14-3.61,0-.41.13-2.89.13-3.25v-8.16c0-.74-.11-4-.13-4.71.68.06,3.69.14,3.91.14h4c.33,0,2.34-.06,3.86-.14,0,.52-.11,4.63-.11,4.77V243c0,1.46.19,3.92.24,4.8Zm-4.52-16h-2.18v5.35h2.18Zm0,7.39h-2.18v5.4h2.18Zm4.6-7.39H438v5.35h2.23Zm0,7.39H438v5.4h2.23Zm10.5-6v9.25c0,1.19,0,1.6.05,5.49l0,1.62c0,2.57-.85,3.23-4.21,3.23-.31,0-.53,0-.91-.06l-1.32-2.84a10.41,10.41,0,0,0,2.61.31c1.13,0,1.19-.53,1.19-1.9v-15.1l-4.71.19v-2.57c.38,0,3.5.17,3.91.17h4c.63,0,3.41-.14,4-.14v2.54C455,233.28,451.29,233.14,450.77,233.12Z"/><path class="cls-1" d="M478.55,245.87c.05-.74.08-.93.08-1.43h-6.72c0,.64,0,3.36,0,3.91.06,3.06.08,3.59.2,4.85h-3.31a85.47,85.47,0,0,0,.3-8.76H462.4c0,.36.05.88.08,1.43h-3c.08-1.18.13-3.16.13-4.4v-4.25c0-.36,0-2.29-.08-3.47,1.33.11,4.6.16,6,.16h3.58c0-4,0-4.4-.08-5.81l3.14.27c.28,0,.72.09.72.45s-.42.55-.91.85c0,.61,0,3.25,0,3.8v.44h2.75c2.31,0,4.66-.1,7-.27-.08,1.29-.08,2.62-.08,3.94v3.8c0,2,0,3.25.11,4.49Zm-9.43-9.61H462.4v5.87h6.72Zm9.51,0h-6.72v5.87h6.72Z"/><path class="cls-1" d="M503.46,232.62c0,.63,0,.74.1,1.65h-2.75l.08-1.65h-5.54c0,.33.06.93.11,1.65h-2.75c0-.25.11-1.27.11-1.65-2.43,0-5.43.11-7.25.22v-2.62c1.82.11,4.82.17,7.25.22a15.48,15.48,0,0,0-.11-1.84l2.7.16c.17,0,.55,0,.55.3s-.28.42-.61.56v.82h5.57c0-.55,0-1-.08-1.81l2.62.24c.3,0,.55.06.55.34s-.28.41-.53.49c0,.39,0,.47,0,.69,2.37,0,5.34-.09,7.16-.19v2.64C508.19,232.7,505.85,232.65,503.46,232.62ZM502.16,250h-2.78c0,.82,0,1,.11,3.22h-2.76c.09-2.26.09-2.37.11-3.22h-2.92c-.19,0-5.46,0-8.15.22v-2.62c2.25.17,7.08.22,8.15.22h2.92v-1.93h-3.58c-1.87,0-4.66.17-5.32.22v-2.61c.69.05.94.05,3.25.16v-2.12c-.69,0-1.84,0-2.64,0l-2.76.13v-2.39c.72.05,1.08.05,2.73.08,1.4,0,1.93,0,2.67.06V237c-2.23.05-2.48.08-3.33.13v-2.39c1.16.08,3.36.22,5.43.22h9.86c1.3,0,4.14-.14,5.21-.22v2.39c-.88,0-1.32-.08-3.11-.11v2.38c2.84,0,3.16,0,5.15-.17v2.42c-.58-.05-1.38-.13-2.37-.13-2,0-2.2,0-2.67,0v2.12l2-.11c.36,0,1-.05,1.1-.05v2.61c-.74-.05-3.69-.22-5.35-.22h-3.74v1.93h2.78c2.76,0,5.51-.05,8.27-.22v2.62C507.12,250,504,250,502.16,250ZM496.84,237h-3.33v2.4h3.33Zm0,4.49h-3.33v2.18h3.33ZM502.9,237h-3.52v2.4h3.52Zm0,4.49h-3.52v2.18h3.52Z"/><path class="cls-1" d="M519.63,236a21.61,21.61,0,0,1-1.63,2.81c.2.25.53.61.53.75,0,.33-.55.49-.77.55v5.31c0,4.66,0,6.26.14,7.66h-2.65c.08-1.32.16-2.83.16-7.63v-3.52c-.52.52-.82.82-1.21,1.15l-2.12-1.35a18.36,18.36,0,0,0,5.95-8l2.43,1.48c.25.14.27.25.27.36C520.73,236,520.29,236,519.63,236Zm-.16-5.43a5.66,5.66,0,0,1-.72-.08,15.5,15.5,0,0,1-4.63,4.77l-2-1.68a10.75,10.75,0,0,0,5-5.46l2.4,1.57c.25.17.39.28.39.47S519.85,230.55,519.47,230.55Zm6.69,9h-3.48a25.3,25.3,0,0,0-3.55.22v-2.51a24.62,24.62,0,0,0,3.55.22h.89V234.3h-.44a19.09,19.09,0,0,0-3.11.22v-2.7a20.64,20.64,0,0,0,3.11.22h.44c0-1.74-.05-2.09-.11-3.8l2.84.27c.19,0,.58.06.58.39s-.53.55-.88.63c-.06.86-.11,1.71-.11,2.51a19,19,0,0,0,3.41-.22v2.7a22.29,22.29,0,0,0-3.41-.22v3.17a26,26,0,0,0,3.85-.22v2.51A25.84,25.84,0,0,0,526.16,239.54Zm3.58,9.75a81.54,81.54,0,0,1-9.09,1.27c-.06.16-.25.69-.61.69-.13,0-.27-.06-.41-.69l-.5-2.23a33,33,0,0,0,4.39-.28v-3.14H523a17.66,17.66,0,0,0-3.14.22v-2.7a18,18,0,0,0,3.14.22h.53v-2.78l2.56.36c.41.05.66.08.66.41s-.11.33-.94.69v1.32a20.54,20.54,0,0,0,3.53-.22v2.7a22.49,22.49,0,0,0-3.53-.22v2.89c.83-.11,2.76-.38,4.19-.66Zm5.82-10.89v7.39c0,.61.05,3.25.05,3.78,0,1.43,0,3.33-3.41,3.33a5.25,5.25,0,0,1-1.24-.11L529.74,250a11.17,11.17,0,0,0,2.26.39c1.1,0,1.1-.53,1.1-1.27V238.4h-.41a14.51,14.51,0,0,0-2.73.23v-2.7a15.31,15.31,0,0,0,2.73.22h2.73a16.39,16.39,0,0,0,2.76-.22v2.7A13.39,13.39,0,0,0,535.56,238.4Zm-.25-6.5h-2.37a10.19,10.19,0,0,0-2.4.25v-2.73a13.38,13.38,0,0,0,2.4.25h2.37a11.37,11.37,0,0,0,2.4-.25v2.73A13.46,13.46,0,0,0,535.31,231.9Z"/><path class="cls-1" d="M549.89,244.41a9.92,9.92,0,0,1-2.68-3.11v4.22c0,2.06,0,3.25.2,7.68h-2.76c.08-2.31.19-4.93.19-7.74v-2.7a16.64,16.64,0,0,1-2.89,4.6l-2-1.6c2.59-2.48,4.36-7.52,4.63-9.89h-.38a17.76,17.76,0,0,0-2.9.25v-2.73a19.18,19.18,0,0,0,2.9.25h.66c0-2.92,0-3.2-.09-5.46l3,.25c.22,0,.52.14.52.41s-.46.53-.93.75c0,.55-.09,3.08-.09,3.53v.52a21.46,21.46,0,0,0,2.68-.25v2.73a25.74,25.74,0,0,0-2.68-.25v.94a13.89,13.89,0,0,0,4.25,5.56Zm14.55,8.68a14.87,14.87,0,0,1-7-3.66,15.91,15.91,0,0,1-7.52,3.63l-1.55-2.31c3-.5,5.32-1.24,7.36-3.11a15.77,15.77,0,0,1-3.3-7l2.39-.94a15.37,15.37,0,0,0,2.62,5.84c.52-.88.85-1.6,2.07-5.89l2.39.85c.17.06.69.25.69.58s-.69.49-1,.55a20.07,20.07,0,0,1-2.45,5.79,12.88,12.88,0,0,0,6.64,3.19Zm-8.77-16.31a11.9,11.9,0,0,1-3.72,3.75L549.61,239a9.81,9.81,0,0,0,4.33-4.29l2.23,1.26a.54.54,0,0,1,.3.44C556.47,236.75,556.06,236.78,555.67,236.78Zm4.63-2.73h-4.52a44,44,0,0,0-4.6.22v-2.7c1.6.19,3.89.22,4.6.22h.86c0-.41,0-3.44,0-3.69l2.84.25c.33,0,.58.11.58.41a.54.54,0,0,1-.31.44,3.66,3.66,0,0,0-.46.31c0,.44-.06,1.7-.06,2.28h1.1a37.68,37.68,0,0,0,4.63-.22v2.7C563,234.05,560.47,234.05,560.3,234.05Zm2.59,6.48a21.07,21.07,0,0,0-4.41-4.14l1.68-1.7a19.2,19.2,0,0,1,4.77,3.88Z"/><path class="cls-1" d="M592.19,237.5a40,40,0,0,1-4.14-1.55v2.4c-1.46-.14-3.2-.14-4.79-.14h-1.13v2.15h2.45c4.27,0,6.69-.13,7.83-.22v2.7c-2.57-.16-5.24-.22-7.83-.22h-7.69c-1.46,0-4.63,0-7.74.22v-2.7c2.59.17,5.18.22,7.74.22h2.59v-2.15h-1a40.81,40.81,0,0,0-4.77.14v-2.06c-1,.55-1.84,1-3.47,1.76l-2-2.34a24.21,24.21,0,0,0,6.17-2.9,19.42,19.42,0,0,0,5-4.71l3.36,1c.36.12.66.2.66.5a.27.27,0,0,1-.19.3c2.31,2.62,6.25,4.16,10.61,5Zm-5.52,15.76c0-.33.09-.72.09-1H574.85c.06.66.06.72.09,1H572a28.42,28.42,0,0,0,.22-3.22v-2.43c0-1.05,0-2.12-.08-3.19,3.36.08,3.72.11,5.26.11H584c2.28,0,3.63,0,5.56-.11-.08.88-.11,2.45-.11,2.56v2.78c0,.66.06,2.21.11,3.53Zm-6.06-22.49a31.35,31.35,0,0,1-6.37,5.18c1.66.17,4.17.17,4.25.17h1c0-1.16,0-1.29-.08-2.45l2.76.19c.58,0,.8.06.8.36s-.09.3-.8.63v1.27h1.13a44.76,44.76,0,0,0,4.62-.22A21.79,21.79,0,0,1,580.61,230.77Zm6.2,15.87h-12v3.43h12Z"/><path class="cls-1" d="M605.3,253.92a19.47,19.47,0,0,1,0-26.45l1.46,1.29a17.86,17.86,0,0,0,0,23.86Z"/><path class="cls-1" d="M617.26,242.35c-1.21-1.33-1.41-1.55-1.9-2.18v5.23c0,3,.16,6.59.22,7.78h-2.64c.08-2.48.16-6.54.16-7.75v-4.05a20.85,20.85,0,0,1-2.23,4l-2-1.63a17.29,17.29,0,0,0,3.94-8.43c-.47,0-2.34.11-2.84.17V233c.88.06,2.07.09,3.17.09,0-1.63-.06-2.26-.14-4.94l2.84.33c.3,0,.38.11.38.33s-.08.33-.71.61c-.06,2-.06,2.4-.06,3.67.83,0,1.71,0,2.54-.11v2.34a15,15,0,0,0-2.15-.06h-.41a.91.91,0,0,0,0,.25,13.13,13.13,0,0,0,3.42,5ZM629,237.66h-1.68v1.6c1.87,0,3.12,0,5.78-.19,0,.71,0,2.39,0,2.89v3.7c0,1.26.05,2,.11,2.75-1.24-.09-2.59-.14-5-.14h-4c-.67,0-.8,0-1.88,0l2,1.54a.56.56,0,0,1,.17.39c0,.27-.22.27-.83.3a12.8,12.8,0,0,1-4.85,2.73L617,251a7.37,7.37,0,0,0,3.3-1,6.7,6.7,0,0,0,1.9-1.68c-.47,0-2.48.11-2.89.11.08-.74.11-1.9.11-2.7v-3.25c0-.58,0-2.62,0-3.28.55,0,1.23.08,2.94.08H625v-1.6h-1.46c-1.77,0-3.56.08-5.32.17v-2.26a42,42,0,0,0,4.21.16v-2.48c-1.7,0-2.67.08-3.47.14v-2.23c.63.06,1.19.11,3.47.14,0-1.55,0-1.71-.08-3.14l2.81.25c.19,0,.36.08.36.33s-.08.27-.72.71c0,.75,0,1.49,0,1.85h3.17c0-.3,0-.8,0-1.13-.06-1.52-.06-1.68-.06-2l2.71.19a.39.39,0,0,1,.3.3c0,.25-.17.36-.55.63,0,.34-.06,1.71-.09,2a27,27,0,0,0,3.28-.17v2.26c-.93-.06-2.12-.11-3.28-.14v2.48a35.06,35.06,0,0,0,4.19-.16v2.26C632.17,237.72,630.08,237.66,629,237.66Zm-4,3.5h-3.23v1.71H625Zm0,3.5h-3.23v1.8H625Zm2.94-11.44H624.7v2.51h3.22Zm2.82,7.94h-3.45v1.71h3.45Zm0,3.5h-3.45v1.8h3.45Zm2.67,8.38a15.09,15.09,0,0,1-5.1-2.89l1.71-1.74a11.61,11.61,0,0,0,4.93,2.34Z"/><path class="cls-1" d="M641.7,240.36a11.65,11.65,0,0,0-4.9-2.81l1.18-2.4a11.38,11.38,0,0,1,5,2.76Zm14,5h-6.14c-2.07,0-4.14.06-6.2.25V243.2a50.22,50.22,0,0,1-3.58,8.79c0,.5.08.85-.28.85-.14,0-.25-.05-.44-.24l-2-2a39.16,39.16,0,0,0,4.65-9.56l1.69,1.88c1.12.11,1.32.11,3.25.19v-6.81a58.63,58.63,0,0,0-.25-6.09,12.57,12.57,0,0,0,1.73.08,26.28,26.28,0,0,0,9.76-1.79l2,2.1a.39.39,0,0,1,.11.27c0,.28-.25.33-.39.33a2.69,2.69,0,0,1-.77-.16,43.35,43.35,0,0,1-9.7,1.71v2.73h6.39c.17,0,1.82-.12,2.18-.12.94,0,2.1-.05,3.47-.13V238l-4-.16v5.29c.88,0,3-.06,4.77-.22v2.72C659.23,245.4,655.89,245.4,655.67,245.4Zm-12.51-12.06a9.17,9.17,0,0,0-4.71-2.73l1.16-2.34a11.56,11.56,0,0,1,4.77,2.7ZM650,248.11a21.79,21.79,0,0,1-5.4,4.85l-2.43-1.68a14.74,14.74,0,0,0,5.87-5.16l2.62,1.3a.37.37,0,0,1,.24.33C650.9,248.08,650.44,248.11,650,248.11Zm4.46-10.25h-5.35v5.31h5.35ZM660.38,253a18.94,18.94,0,0,1-4.27-3.08,8.72,8.72,0,0,1-1.76-2.21l2.09-1.6a15,15,0,0,0,6.12,4.8Z"/><path class="cls-1" d="M681.13,234.74h-2.86v2.95h2c1.93,0,4.74-.11,6.64-.22,0,.8-.13,3.06-.13,3.88v5.43l0,.77c.11,2.9-1.51,3.48-4,3.48a3.4,3.4,0,0,1-1-.09l-1.35-2.78c.55.08,2,.28,2.56.28.8,0,1.05-.2,1.05-1.44v-6.91h-5.84v6.64c0,.8.14,4.19.22,6.47h-3.17c.14-1.6.22-2.56.25-3.36s.08-2.34.08-3v-6.8h-5.51v5.07c0,.85.08,2.23.14,3.25,0,.55.08,1.57.16,2.53h-3.17c.17-1.65.28-4,.28-4.6v-4.77c0-.63-.11-3.44-.14-4,1.41.06,4.6.14,6,.14h2.2v-2.95h-2.53c-2.79,0-5.57.06-8.35.22v-2.7c2.86.19,7.08.22,8.35.22h2.47c0-1.1-.08-2.92-.13-4.41l3.44.33c.22,0,.47.09.47.36a.33.33,0,0,1-.14.3s-.69.47-.74.5c-.06.47-.11,2.51-.11,2.92h2.75c2.82,0,5.65,0,8.46-.22V235C685.93,234.74,681.46,234.74,681.13,234.74Z"/><path class="cls-1" d="M712.77,245.87c.05-.74.08-.93.08-1.43h-6.72c0,.64,0,3.36,0,3.91.06,3.06.09,3.59.2,4.85H703a82.72,82.72,0,0,0,.3-8.76h-6.72c0,.36,0,.88.08,1.43h-3c.08-1.18.14-3.16.14-4.4v-4.25c0-.36,0-2.29-.08-3.47,1.32.11,4.6.16,6,.16h3.59c0-4,0-4.4-.09-5.81l3.15.27c.27,0,.71.09.71.45s-.41.55-.91.85c0,.61,0,3.25,0,3.8v.44h2.75c2.32,0,4.66-.1,7-.27-.08,1.29-.08,2.62-.08,3.94v3.8c0,2,0,3.25.11,4.49Zm-9.43-9.61h-6.72v5.87h6.72Zm9.51,0h-6.72v5.87h6.72Z"/><path class="cls-1" d="M733.35,251.28h-9.26a8.1,8.1,0,0,0,.09,1.4h-3.12c0-1.13.17-5.32.17-6.26V236c0-2.2-.06-4.44-.11-6.67,1.29.06,5.59.14,6.91.14h8.08c1.9,0,3.8-.08,7-.22V232c-4.55-.13-6.75-.19-9.81-.19h-9.21V249h9.26c3.5,0,7.36-.17,10.39-.3v2.89C740.9,251.44,737,251.28,733.35,251.28Zm5.51-3.67a34.31,34.31,0,0,0-4.74-5.68,24.89,24.89,0,0,1-7.24,5.93l-2.23-2.15a17.46,17.46,0,0,0,4.82-2.92,28.62,28.62,0,0,0,2.72-2.56,45.74,45.74,0,0,0-6.06-4.47l1.9-2a48.45,48.45,0,0,1,5.85,4.43,23,23,0,0,0,3.36-5.56l2.53,1.82a.42.42,0,0,1,.25.38c0,.44-.71.36-1.07.33a39,39,0,0,1-3.15,4.74,31,31,0,0,1,5,5.32Z"/><path class="cls-1" d="M770.5,235.15c-.06,1.71-.11,4.69-.11,5.41v5.12c0,2.43.13,4.85.33,7.28h-3.2c.06-.47.19-2.51.19-3H752c0,.33.08,1.81.11,2.12s0,.47.08.83H749c.09-1.55.17-4,.22-5.6,0-.14.06-1.18.06-1.35v-5.87c0-.22-.19-6.2-.19-6.25l3.08.16c.66,0,.83.17.83.42s-.63.71-.8.82c0,1-.19,4.82-.19,5.93v6.28h6.42V236.17c0-1.6-.14-6.11-.19-7.77l3.25.25c.35,0,.6.14.6.41s-.19.45-.82.72c-.06,1.66-.17,4.69-.17,6.37V247.5h6.61v-6.37c0-1.18-.13-6.33-.19-7.44l2.87.22c.82.06,1,.12,1,.5S771.35,234.71,770.5,235.15Z"/><path class="cls-1" d="M791.69,232.21h-3.42V236a32.75,32.75,0,0,1,8.3,6.29L794.66,245a19.91,19.91,0,0,0-6.39-5.87v2.4c0,2.81,0,8.49.19,11.22h-3.3c.22-3.42.41-8,.41-11.44v-9.09h-2.48c-2.73,0-5.43,0-8.16.24v-2.72c2.81.19,6.89.24,8.16.24h8.6c2.73,0,5.48-.05,8.21-.22v2.7C796.37,232.21,792,232.21,791.69,232.21Z"/><path class="cls-1" d="M812.19,247.75c0-.55.06-.61.08-1.13h-6.78c0,.38.14,2.09.14,2.45h-2.78c0-.91.08-2.81.14-3.61,0-.41.13-2.89.13-3.25v-8.16c0-.74-.11-4-.13-4.71.68.06,3.69.14,3.91.14h4c.33,0,2.34-.06,3.86-.14,0,.52-.11,4.63-.11,4.77V243c0,1.46.19,3.92.24,4.8Zm-4.52-16h-2.18v5.35h2.18Zm0,7.39h-2.18v5.4h2.18Zm4.6-7.39H810v5.35h2.23Zm0,7.39H810v5.4h2.23Zm10.5-6v9.25c0,1.19,0,1.6.05,5.49l0,1.62c.06,2.57-.85,3.23-4.21,3.23-.31,0-.53,0-.91-.06l-1.32-2.84a10.44,10.44,0,0,0,2.62.31c1.12,0,1.18-.53,1.18-1.9v-15.1l-4.71.19v-2.57c.38,0,3.5.17,3.91.17h4.05c.63,0,3.41-.14,4-.14v2.54C827,233.28,823.29,233.14,822.77,233.12Z"/><path class="cls-1" d="M834.55,233.34l-3,2.29v-3.35l3-2.27h3v22h-3Z"/><path class="cls-1" d="M847.3,233.34l-3,2.29v-3.35l3-2.27h3v22h-3Z"/><path class="cls-1" d="M866.38,229.79a2.33,2.33,0,0,1-.14.32c-.11.21-.25.51-.43.88s-.39.8-.64,1.28l-.76,1.52c-.26.54-.54,1.07-.81,1.62s-.54,1.06-.8,1.55l-.7,1.34c-.21.4-.39.73-.53,1a2.31,2.31,0,0,1,1-.31,8.53,8.53,0,0,1,1.27,0,5,5,0,0,1,1.82.37,4.75,4.75,0,0,1,1.33.82,5.38,5.38,0,0,1,.93,1.11,7.61,7.61,0,0,1,.58,1.19,5.72,5.72,0,0,1,.29,1.09,4.73,4.73,0,0,1,.09.79v.86c0,.2,0,.4,0,.6s0,.37,0,.51-.05.25-.1.55a8.55,8.55,0,0,1-.3,1.06,9,9,0,0,1-.63,1.31,5.91,5.91,0,0,1-1.07,1.32,6.13,6.13,0,0,1-1.61,1.08,6.52,6.52,0,0,1-2.26.56,6.75,6.75,0,0,1-2.43-.18,6,6,0,0,1-1.82-.86,5.22,5.22,0,0,1-1.28-1.29,7.32,7.32,0,0,1-.81-1.5,6.63,6.63,0,0,1-.39-1.48,4.55,4.55,0,0,1,0-1.2c.06-.5.13-.93.2-1.32a11.34,11.34,0,0,1,.25-1.11c.09-.35.2-.7.32-1s.26-.71.42-1.11q.06-.15.33-.72c.18-.38.41-.84.67-1.39s.57-1.16.9-1.83l1-2,2.63-5.31Zm-.63,16.07c0-.38,0-.8,0-1.26a3.77,3.77,0,0,0-.33-1.32,2.78,2.78,0,0,0-1-1.07,3.86,3.86,0,0,0-1.89-.54,2.69,2.69,0,0,0-1,.11,3.06,3.06,0,0,0-1.45,1.11,4.42,4.42,0,0,0-.44.73,3.3,3.3,0,0,0-.25.67,2.38,2.38,0,0,0-.08.47c0,.25,0,.53,0,.84a5.75,5.75,0,0,0,.1.92,3.11,3.11,0,0,0,.28.88,2.42,2.42,0,0,0,.55.77,3,3,0,0,0,.93.54,4.11,4.11,0,0,0,1.41.21,3.11,3.11,0,0,0,1.19-.18,2.86,2.86,0,0,0,.86-.48,2.74,2.74,0,0,0,.58-.65,3.58,3.58,0,0,0,.35-.71,3.08,3.08,0,0,0,.17-.62A3.21,3.21,0,0,0,865.75,245.86Z"/><path class="cls-1" d="M871.29,252.62a17.86,17.86,0,0,0,0-23.86l1.46-1.29c2.12,2.5,5.18,6.09,5.18,13.22s-3.06,10.72-5.18,13.23Z"/><path class="cls-1" d="M8.63,296.72H6.26V269.17H8.63Z"/><path class="cls-1" d="M43.43,294.55l-3.31-.06H29.54c-1.68,0-5.07.06-6.67.17v-2.92c1.88.13,3.91.27,6.42.27h4.36V286.2H31.14c-.66,0-3.56,0-4.13.05s-1.13.06-1.6.11v-2.92c.35,0,3.44.22,5.73.22h2.51v-4.77h-2c-2,0-6.37.06-8.27.2v-2.87a25.29,25.29,0,0,0,4.25.25l4,0h3.55c-.49-.57-1.68-1.79-2.15-2.2a12,12,0,0,0-2.92-1.79l1.93-2.18a16.79,16.79,0,0,1,5.32,4.27l-1.85,1.9h4c1.8,0,5.13-.16,6.87-.35v2.92c-1.44-.14-5.29-.2-6.87-.2H36.21v4.77H39.6c1,0,4.21-.11,5-.22v2.92c-1.11-.08-2-.13-2.54-.13-1.7,0-1.9,0-2.62,0H36.21V292H39.9c2.84,0,5.65-.11,7.16-.27v2.92A34.8,34.8,0,0,0,43.43,294.55Z"/><path class="cls-1" d="M67.79,294.32H61.45c0,.14,0,.8,0,.91H59c0-.85.22-4.79.22-5.37v-4.68a6.88,6.88,0,0,1-1.38,1.21l-2.23-1.76a13.89,13.89,0,0,0,5.79-7.31c-.36,0-1.8.06-3.15.11.09-2,.09-2.12.11-5.29-.13,0-.57.09-.82.11a20.85,20.85,0,0,1-1.74,4.19c.5.44.55.47.55.63s-.08.25-.66.61c-.14.91-.19,3.53-.19,3.83v7.28c0,.66,0,3.61,0,4.21,0,.94.11,1.54.16,2.34H52.74a26,26,0,0,0,.39-3.58c.11-2.48.14-2.72.14-3.22V281a14,14,0,0,1-1.57,2.4l-2.57-1.57c3.39-3,5.15-7.28,6.26-11.64l3,1.24a2.85,2.85,0,0,1-.14-.5l2.45.31c.58.08.91.13.91.41s-.5.56-.83.64a12.37,12.37,0,0,0-.08,1.6v1.38H65v-2c0-.63-.09-2.8-.09-2.94l2.9.36a.51.51,0,0,1,.47.42c0,.22-.09.27-.78.75,0,.42,0,1.3,0,1.93v1.49h4v-1.51c0-.36,0-1.41-.08-2.51l2.64.3c.25,0,.72.14.72.44s-.41.53-.72.66a14.46,14.46,0,0,0-.08,1.68v.53c0,1.54.06,1.7.08,2.61-1-.05-2.15-.11-3.83-.11H67.38l2.17.94c.08,0,.44.19.44.53s-.3.41-.88.49a13.67,13.67,0,0,1-.91,1.6c1.85,0,4.35-.08,6.17-.22v2.48c-.93-.06-2-.11-6.42-.17v1.82c2-.05,3.5-.11,5.65-.16v2.17c-.74-.05-1.16-.08-3-.08s-2.12,0-2.62,0v1.85c1.52,0,1.93,0,5.65-.17v2.29c-.91,0-4.85-.16-5.65-.17v2c1.52,0,2.07,0,7-.22v2.31C74.62,294.54,68.92,294.32,67.79,294.32Zm-2.21-11.38H61.45v1.88h4.13Zm0,3.72H61.45v1.91h4.13Zm0,3.83H61.45v2h4.13Zm-3.72-13.17,2,1c.22.11.46.28.46.53s-.3.38-1,.41c-.27.58-.44.91-.82,1.6h3a16.83,16.83,0,0,0,1.76-3.56Z"/><path class="cls-1" d="M91.29,296.72H88.92V269.17h2.37Z"/><path class="cls-1" d="M135.78,295a20.45,20.45,0,0,1-7.36-4.52,18.52,18.52,0,0,1-2.15-2.53c.09,4.76.09,5.29.2,7.44h-2.9c.09-1.11.23-6.2.25-7.47a26.83,26.83,0,0,1-4.88,4.68,13.65,13.65,0,0,1-4.24,2.4L113.05,293a13.37,13.37,0,0,0,5.37-2.94,21.37,21.37,0,0,0,3-3.06c-3.19,0-3.55,0-5.2.08,0-1,.08-2.81.08-3.89V280c0-.88,0-2.26-.08-3.14.85.05,4.6.08,5.37.08h2.23v-1.74h-2.73c-2.7,0-5.37.06-8,.22V272.7c2.75.16,6.8.22,8,.22h2.71c0-.94,0-1.19-.06-2.62l2.89.22c.44,0,.58.14.58.36s-.25.44-.88.74c0,.2,0,1.13,0,1.3h2.76c2.72,0,5.43-.06,8.15-.22v2.69c-3.52-.22-7.82-.22-8.15-.22h-2.79c0,.28,0,1.49,0,1.74h2.12c1.63,0,3.88,0,5.48-.11,0,1.16-.08,2.31-.08,3.47v3.2c0,.83.06,2.2.11,3.58-2-.06-3.86-.08-5-.08h-.55c.77,1.13,2.73,3.86,9,5.89Zm-11.93-16.12h-5.1v2.15h5.1Zm0,4h-5.1v2.21h5.1Zm7.49-4h-5.12v2.15h5.12Zm0,4h-5.12v2.21h5.12Z"/><path class="cls-1" d="M156.5,275.48h-7.91c-2.64,0-5.31,0-8,.22V273c2.76.17,6.78.22,8,.22h2.68c0-1,0-1.93-.09-2.89l2.84.22c.58.05.75.19.75.41s-.33.47-.69.63c0,.56,0,1.11,0,1.63h2.45c2.7,0,5.4-.05,8.08-.22v2.7C161.1,275.48,156.81,275.48,156.5,275.48Zm-8.62,13.83a20.38,20.38,0,0,1-5.1,4.27l-2.18-2a14.31,14.31,0,0,0,5.57-4.57l2.37,1.71c.19.14.27.22.27.38C148.81,289.39,148.54,289.37,147.88,289.31Zm7.88-3.72h-1.93v6.64c0,1.85,0,2-.52,2.48-.83.69-2.21.83-4.47.69l-.93-2.81a21,21,0,0,0,2.48.25c.79,0,.79-.22.79-.86v-6.39h-2c-1.41,0-3.31.06-5,.11.14-1.24.19-2.78.19-3.06v-2.45c0-.91,0-1.85-.08-2.78,1.57,0,2.29,0,5,0h6.2c2.32,0,3.81,0,5.18,0,0,.8-.05,1-.05,2.94v2.46c0,.08.05,2.59.08,2.92C158.38,285.59,155.84,285.59,155.76,285.59Zm2.4-5.87H147.05v3.81h11.11Zm3.72,13.7a29.44,29.44,0,0,0-2.62-2.32A20.29,20.29,0,0,0,156.2,289l1.68-1.82a25.58,25.58,0,0,1,6,4Z"/><path class="cls-1" d="M191.09,286.67c-1.71,0-3-2.24-3-5.1,0-.3.14-1.56.14-1.81l-1.49,0a9.88,9.88,0,0,1-.74,2.8c.88.63,1.21.85,1.74,1.24l-1,1.79a16.47,16.47,0,0,0-1.71-1.41,9.23,9.23,0,0,1-3.11,2.68l-1.71-1.52a6.19,6.19,0,0,0,3.17-2.26,14.62,14.62,0,0,0-1.4-.77l1-1.57c.63.33.91.47,1.35.74a7,7,0,0,0,.44-1.65c-.74.05-2,.19-2.56.27l-.08-2.06c.3,0,2,.11,2.81.08a17.94,17.94,0,0,0-.09-2.09h-2.34a17.17,17.17,0,0,0,.2-1.74v-.44h-4.41c0,.44.13,1.13.19,1.62h-2.54a.24.24,0,0,1,0-.16c-.08,0-.08.06-.16.08s0,.36,0,.56h.6c.72,0,2.51-.14,3.39-.2v2c-.49,0-2.67-.2-3.39-.2h-.6v1.3h1c1,0,3.55-.14,4.57-.19v2l-3.08-.16v1c0,.36.08.47.44.47h.71c.61,0,.61-.27.61-1.18l1.74.44c-.11,2.06-.78,2.23-2.07,2.23h-1.57v.77c-.53-.06-1.9-.19-2.37-.19v1c2.07-.25,3-.39,4.13-.55l-.52,1.6a94.49,94.49,0,0,1-9.78,1.18c-.17.33-.28.58-.5.58s-.27-.22-.33-.44l-.55-1.9c.85,0,2.42,0,5.48-.25v-1.21a21.84,21.84,0,0,0-2.75.19v-1.18a8.15,8.15,0,0,1-1.82.74l-1.85-1.29c1.74-.28,3.06-.78,3.69-2l-3.27.16v-2c.77.05,3.63.19,4.57.19h1.43v-1.3h-.8c-.46,0-1.24.06-3.39.2v-2c.69.06,2.71.2,3.39.2h.8c0-.31,0-.67-.19-1.66l2,.17a1.57,1.57,0,0,1,.5.08,3.5,3.5,0,0,0,0-.69c-1.79,0-5.4.11-8.13.19V272c1,0,6.34.2,8.16.2a16.63,16.63,0,0,0-.2-1.85l2.13.19c.3,0,.82.06.82.36s-.38.47-.55.58a4.77,4.77,0,0,0-.05.72h4.41a11.16,11.16,0,0,0-.2-1.85l2.12.19c.31,0,.83.06.83.36s-.39.47-.55.58a4.63,4.63,0,0,0-.06.72c4-.09,4.47-.11,7.61-.2v2.12c-3.55-.11-4.27-.14-7.61-.19v.44c0,.28.06.55.14,1.38l1.71.22c.42.06.69.08.69.33s-.14.33-.44.47c0,.47,0,.58-.05,1.38l.52,0a30.41,30.41,0,0,0,3.72-.41,9.85,9.85,0,0,0-1,3.88c0,1.62.66,2.7,1,2.7s.46-1.76.46-2.12l1.74,1.49C193.12,284.49,192.71,286.67,191.09,286.67Zm-3.83,5c2.42,1.57,3.05,2,3.74,2.56l-1.62,1.71a18.48,18.48,0,0,0-1.93-1.52c-4,.33-9.76.75-17.14.83-.22.47-.3.58-.47.58s-.19,0-.33-.42l-.8-2.17c2.48.05,4.88,0,5.21,0,.47-.53,1.21-1.47,1.38-1.66-3.83.08-4.33.11-7.42.19v-2c.55,0,6.4.17,8.11.17h8.32c1.51,0,5.23-.08,8.07-.17v2C190.67,291.71,189,291.65,187.26,291.63Zm-10.73-11.14h-4.76l1,.58a.36.36,0,0,1,.24.33c0,.22-.27.25-.55.25a4.32,4.32,0,0,1-.77.77l1.88,0c0-.41-.12-1-.17-1.43l2,.16c.36,0,.8.08.8.39s-.39.44-.55.55c0,.11,0,.19,0,.3h.82Zm6.29,8.49h-5.24c-1.65,0-3.74.08-5.07.16v-2.06c.75,0,4,.19,5.07.19h5.24c1,0,3.33-.11,5.07-.19v2.06C187.28,289.09,183.89,289,182.82,289Zm1.21,3.19.44-.6H178c-.38.44-1,1.16-1.35,1.63,2.73-.06,4.69-.17,8.44-.39C184.72,292.56,184.44,292.43,184,292.17Z"/><path class="cls-1" d="M208.25,277.79c0,.31,0,1.52,0,1.77v8.21c0,1.32.17,6.28.22,7.66h-2.86c0-1.27.25-6.86.25-8v-9.65a22.9,22.9,0,0,0-3.14.2.63.63,0,0,1,.24.46c0,.44-.41.44-.57.44a2,2,0,0,1-.42-.05,18.83,18.83,0,0,1-1.49,2.09c.39.17.72.31.72.67s-.11.3-.63.71c0,1-.09,3.34-.09,4.36v3.83c0,.24.2,4.38.23,4.93h-2.87c.05-.75.3-4.25.3-4.55v-7.27a14.33,14.33,0,0,1-1.57,1.32l-2.12-1.46a18.61,18.61,0,0,0,6-7l2,1.32v-2.45a25.23,25.23,0,0,0,3.39.22v-1.18c0-.67,0-3.31,0-4l2.76.3c.41.06.63.19.63.44s-.19.42-.85.75c0,.63,0,2.45,0,3.66a26.28,26.28,0,0,0,3.58-.22V278A22.73,22.73,0,0,0,208.25,277.79Zm-6.31-4.9a1.55,1.55,0,0,1-.47-.08,15.11,15.11,0,0,1-4.62,4.4l-2.18-1.65a12.7,12.7,0,0,0,5.29-5l2.18,1.32a.71.71,0,0,1,.35.55A.5.5,0,0,1,201.94,272.89Zm1.68,17.91-2.53-.66a20,20,0,0,0,1.6-8.43c0-.75,0-1.24,0-1.66l2.42.33C205.19,283.77,204.86,288.24,203.62,290.8Zm13.78-16.56h-2.34a11,11,0,0,0-2.37.22v-.77l-1.79,1.49a11.68,11.68,0,0,0-2.26-2.54l1.73-1.43a8.42,8.42,0,0,1,2.32,2.45v-1.9a15.3,15.3,0,0,0,2.37.22h2.34a11.78,11.78,0,0,0,2.4-.22v2.7A13.27,13.27,0,0,0,217.4,274.24Zm-6.92,16.14a48.77,48.77,0,0,0-1.68-9.89l2.37-.49a43.85,43.85,0,0,1,2,9.06Zm7.17-10v9.23c0,.58,0,3.23,0,3.78-.17,1.93-1.74,1.93-4.36,1.9l-1.12-2.84a11.83,11.83,0,0,0,2.15.28c.85,0,.85-.17.85-1.85V280.38h-.47a16.68,16.68,0,0,0-2.81.25v-2.7a20.16,20.16,0,0,0,2.81.22h2.76a15.66,15.66,0,0,0,2.83-.22v2.7A14.35,14.35,0,0,0,217.65,280.41Z"/><path class="cls-1" d="M245.59,295a23.08,23.08,0,0,1-6.36-4.32,18.37,18.37,0,0,1-4.06-6.15,17.48,17.48,0,0,1-4.13,6.67,16.16,16.16,0,0,1-6.14,4l-1.9-2.4a13.7,13.7,0,0,0,7.71-5.35,15.68,15.68,0,0,0,2.89-7.6h-2.37c-2.59,0-5.18.05-7.77.22v-2.7c2.67.19,6.56.22,7.77.22h2.57c.08-1.33.13-2.48.13-3.72s-.05-2.37-.08-3.06l3.2.33c.3,0,.8.11.8.49s-.67.61-1,.75c0,.58,0,.91-.11,3.86,0,.71,0,1,0,1.35h2.59c2.62,0,5.21,0,7.83-.22v2.7c-3.36-.22-7.55-.22-7.83-.22h-2.51c.53,6.39,6.23,11.24,10.83,12.54Z"/><path class="cls-1" d="M267,288.62h-2.54v1c0,.5.09,2.82.09,3.37A1.81,1.81,0,0,1,263,295a17.41,17.41,0,0,1-3.45.14l-1.21-2.92c.47.08,2.42.39,2.67.39.83,0,.88-.58.88-1.82v-2.21h-3.33c-1,0-5.24,0-8.16.22V286.2c3.26.22,7.94.22,8.16.22h3.3a13.1,13.1,0,0,0-.3-2.92l1.82.44a22.77,22.77,0,0,0,2.26-2h-6c-1.24,0-2.48,0-3.72.11v-2.48c.47,0,4.39.2,5.16.2h3.08c1.24,0,3.91-.14,5.07-.28l1,1.43c-.36.33-2.21,2-2.57,2.4l-1.15,1.16-1.9,1.9H267c1.21,0,5.51,0,8.24-.22v2.64C272.7,288.68,269.62,288.62,267,288.62Zm4.68-7.33c.06-1.65.09-1.84.06-3.64H253.86c0,.25,0,2.18.16,3.64h-3.11a16.4,16.4,0,0,0,.3-3.66,22.33,22.33,0,0,0-.11-2.37c.77.11,3.94.17,5,.19a10.65,10.65,0,0,0-2.42-3.36l2.28-1.38a9.15,9.15,0,0,1,2.48,3.58l-2,1.19,3.45.08h5.13l3.66-.08-1.68-.77a12.24,12.24,0,0,0,2.2-4.08l2.43,1c.22.08.58.25.58.42,0,.49-.64.6-.94.66a27.47,27.47,0,0,1-1.74,2.75c1.38,0,3.42-.11,5.07-.22,0,.61-.11,1.46-.11,2.84a13.94,13.94,0,0,0,.25,3.22Zm-9.34-6.14a9.13,9.13,0,0,0-2.31-3.78l2.17-1.24a7.3,7.3,0,0,1,2.4,3.81Z"/><path class="cls-1" d="M300.7,295a23.08,23.08,0,0,1-6.36-4.32,18.19,18.19,0,0,1-4-6.15,17.53,17.53,0,0,1-4.14,6.67,16.09,16.09,0,0,1-6.14,4l-1.9-2.4a13.7,13.7,0,0,0,7.71-5.35,15.57,15.57,0,0,0,2.89-7.6h-2.37c-2.59,0-5.17.05-7.76.22v-2.7c2.67.19,6.55.22,7.76.22h2.57c.08-1.33.14-2.48.14-3.72s-.06-2.37-.09-3.06l3.2.33c.3,0,.8.11.8.49s-.66.61-1,.75c0,.58,0,.91-.11,3.86,0,.71,0,1,0,1.35h2.59c2.62,0,5.21,0,7.83-.22v2.7c-3.36-.22-7.55-.22-7.83-.22h-2.5c.52,6.39,6.22,11.24,10.83,12.54Z"/><path class="cls-1" d="M322.14,288.62H319.6v1c0,.5.09,2.82.09,3.37a1.81,1.81,0,0,1-1.57,2.09,17.38,17.38,0,0,1-3.45.14l-1.21-2.92c.47.08,2.42.39,2.67.39.83,0,.88-.58.88-1.82v-2.21h-3.33c-1,0-5.24,0-8.16.22V286.2c3.26.22,7.94.22,8.16.22H317a12.55,12.55,0,0,0-.31-2.92l1.82.44a22.77,22.77,0,0,0,2.26-2h-6c-1.24,0-2.49,0-3.73.11v-2.48c.47,0,4.39.2,5.16.2h3.08c1.25,0,3.92-.14,5.08-.28l1,1.43c-.36.33-2.21,2-2.56,2.4l-1.16,1.16-1.9,1.9h2.45c1.21,0,5.51,0,8.24-.22v2.64C327.82,288.68,324.73,288.62,322.14,288.62Zm4.68-7.33c.06-1.65.09-1.84.06-3.64H309c0,.25,0,2.18.16,3.64H306a16.4,16.4,0,0,0,.3-3.66,22.33,22.33,0,0,0-.11-2.37c.77.11,3.94.17,5,.19a10.5,10.5,0,0,0-2.42-3.36l2.28-1.38a9.28,9.28,0,0,1,2.49,3.58l-2,1.19,3.44.08h5.13l3.66-.08-1.68-.77a12.24,12.24,0,0,0,2.2-4.08l2.43,1c.22.08.58.25.58.42,0,.49-.64.6-.94.66a27.76,27.76,0,0,1-1.73,2.75c1.37,0,3.41-.11,5.07-.22a28,28,0,0,0-.12,2.84,14.56,14.56,0,0,0,.25,3.22Zm-9.34-6.14a9.13,9.13,0,0,0-2.31-3.78l2.18-1.24a7.34,7.34,0,0,1,2.39,3.81Z"/><path class="cls-1" d="M355,279.69c.11-1.35.11-2.34.11-3.88H343.83c0,2.07,0,2.78.08,3.88h-2.73c.06-.82.17-2.06.17-3.86,0-.71,0-1.59-.09-2.39-1.29,3.08-1.49,3.58-1.9,4.52a11.83,11.83,0,0,1-.69,1.38c1.77,2.64,2.51,3.77,2.51,6.25,0,3.61-2.12,4.13-3.88,4.33l-1.11-2.76.91.06c.55,0,1.52,0,1.52-2a5.48,5.48,0,0,0-.91-3c-.8-1.46-1-1.71-1.52-2.59l2.73-6.11h-2.86V288c0,.27.08,2.17.08,2.42,0,.88.08,4.19.11,5h-2.51c0-.77.19-6.39.19-7.14v-9.5c0-1.88-.05-5.68-.11-7.53.33,0,1.9.09,2.24.09h2.86c.25,0,1.65-.06,2-.09l.83,1c-.06.12-.31.78-.5,1.16.88.06,3.06.17,3.92.17h3c-.06-2.12-.06-2.34-.11-3.17l3.06.25c.3,0,.57.08.57.44s-.16.44-.79.85c0,.25,0,1.41,0,1.63h3.28c.05,0,1.95,0,3.63-.14-.05.69-.08,1.65-.08,3.08s0,2.24.08,3.17Zm.22,15.3H353c-2.62,0-2.95-.58-2.95-2.87v-6.7h-2c-.14,3.59-.83,5.27-1.74,6.65-1.46,2.14-3.36,3.05-6.2,3.55l-1.46-2.45c5.92-.33,6.75-3.94,7-7.75-1.6.06-2.86.11-4.19.23V283c1.93.16,4.74.22,5.62.22h5.54c1.9,0,3.81-.06,5.68-.22v2.7c-1.76-.17-3.91-.23-5.7-.23v5.88c0,.9.08,1.21.8,1.21h1.62c.55,0,.8-.31,1.07-1.05a10.89,10.89,0,0,0,.53-2.12l2,2C357.91,293.33,357.22,295,355.26,295Zm-4.21-14.33h-3.2a24.82,24.82,0,0,0-3.22.24v-2.72a23.85,23.85,0,0,0,3.22.25h3.2a18.73,18.73,0,0,0,3.27-.25v2.72A22.4,22.4,0,0,0,351.05,280.66Z"/><path class="cls-1" d="M365.73,289.28h-1.79c.08,1.08.08,1.27.11,1.41.11.71.11.8.17,1.18h-3c.11-1.68.19-2.09.19-5.95V278.1c0-1.6,0-4-.05-5.54.44,0,2.42.08,2.81.08h2.73c.58,0,1.84,0,2.48,0,0,1.63,0,3.72,0,5.32v6.78c0,1.46,0,2.73.11,4.68C367.5,289.31,367,289.28,365.73,289.28Zm1.19-14.52h-3v5.07h3Zm0,7.14h-3v5.26h3Zm17.8,13.58a17.26,17.26,0,0,1-4.3-3.33,14.18,14.18,0,0,1-2.81-4.33,12.33,12.33,0,0,1-8.52,7.86l-1.84-2.26a10.62,10.62,0,0,0,6.12-3.17,11,11,0,0,0,2.45-5h-1.9c-1.35,0-3.56.2-4,.25v-2.7c.52.06.63.08,1.63.14v-3.81c0-1.34,0-3.16-.06-4.54,1.21.11,3.31.19,3.64.19h1.27c0-2.39,0-2.59-.14-4.32l2.78.3c.58.05.8.27.8.52,0,.44-.61.58-.8.64-.06.79-.06,1.37-.11,2.86h1.27c.72,0,1.46,0,3.61-.14-.06,1.16-.09,2.59-.09,4.49v3.83l1.88-.16v2.7a40.07,40.07,0,0,0-4.27-.25h-2.21a13,13,0,0,0,7.33,7.94Zm-10.64-18.57V283h2.13a53.64,53.64,0,0,0,.22-6.12Zm7.2,0h-2.41c0,.69,0,.91-.05,2.84-.05,2.45-.08,2.7-.08,3.28h2.54Z"/><path class="cls-1" d="M411.23,294.49a16.85,16.85,0,0,1-6.37-11.63,14.21,14.21,0,0,1-2,1.49,8.78,8.78,0,0,1,2.59,6.45c0,3.14-1.07,4.55-3.22,4.55a7,7,0,0,1-1.21-.09l-1-2.53a26.79,26.79,0,0,1-4,1.71l-1.63-2a17.53,17.53,0,0,0,8.47-3.94c-.12-.3-.17-.52-.34-1a19.41,19.41,0,0,1-7,3.36l-1.46-2a14.68,14.68,0,0,0,7.55-2.92,3.24,3.24,0,0,0-.49-.63,23.75,23.75,0,0,1-5.35,1.76L394.36,285a15.84,15.84,0,0,0,7.17-2.15c-.19,0-4.41.08-5.7.13a23.18,23.18,0,0,0,.16-2.81v-1.21l-.38.28L394,277.82c-.08.17-.14.19-.72.44V287c0,1.71,0,5.05.22,8.33h-2.75c.31-3.34.39-6.53.39-8.27v-5.51c-.52.74-.94,1.21-1.35,1.73L387.5,282a24.44,24.44,0,0,0,5.93-11.58l2.56,1.19c.3.14.38.22.38.36s-.16.33-.88.44a42.5,42.5,0,0,1-1.9,4.76l.33.31a16,16,0,0,0,6.89-7.22l2.48,1.13c.33.16.41.24.41.41s-.3.36-1.1.36c-.33.49-.41.63-.55.85H404a34,34,0,0,0,3.86-.19l.63.61c-.25.35-2.45,3.36-2.53,3.44,2.06,0,4.13,0,6.2-.17a22,22,0,0,0-.17,2.37V281a15.28,15.28,0,0,0,.14,1.87l-5.24-.08a15.8,15.8,0,0,0,1.16,3.94,27,27,0,0,0,2.62-2.79l1.84,1.74a.62.62,0,0,1,.28.41c0,.28-.39.34-1.1.28a25.8,25.8,0,0,1-2.76,2,14.06,14.06,0,0,0,4.58,4.41Zm-8.6-15.82h-4.3V281h4.3Zm-1.93-3.94a20.49,20.49,0,0,1-2.12,2.18h4.6c.22-.3,1.32-1.82,1.57-2.18Zm-.69,18a10,10,0,0,0,2.29.36c.41,0,.91,0,.85-2.43A18,18,0,0,1,400,292.7Zm9.59-14H405V281h4.63Z"/><path class="cls-1" d="M421.86,273.58a30.45,30.45,0,0,1-.91,5.73h1.71c.09,0,1.79-.06,2.37-.11-.11,1.6-.16,3.77-.16,4.19v3.72c0,1.4,0,2,.11,4.46-1.19-.05-2.18-.11-3.28-.11h-1.38a25.79,25.79,0,0,0,.14,3.33h-2.73a74.45,74.45,0,0,0,.28-7.52v-1c-.25.42-.39.58-.78,1.19l-2.5-1.33a21.81,21.81,0,0,0,4.74-12.53,21.09,21.09,0,0,0-3.42.22v-2.7a22.25,22.25,0,0,0,3.09.25h3.05a17.06,17.06,0,0,0,3.12-.25v2.7A22.57,22.57,0,0,0,421.86,273.58Zm.77,7.93h-2.31v7.75h2.31Zm14.83.42v1.76c0,2.18.08,7.77.19,11.63h-3.06c.31-5.4.31-7.58.31-11.6V281.9h-3.25c-.09,3.22-.2,9.7-5,13.58l-2.28-2a8.6,8.6,0,0,0,4.05-5.27,19.61,19.61,0,0,0,.82-6.33c-.46,0-1.87.05-3.39.19v-2.7c1.05.11,1.13.11,3.42.19v-6c-1.65.05-2.42.08-2.86.11v-2.51c.32,0,3.8.11,5,.11h3.66c1.52,0,4.05,0,5.27-.11v2.51c-1.24-.06-1.41-.06-2.87-.11v6c.36,0,1.87-.05,3.25-.19v2.7C439.33,282,438,282,437.46,281.93Zm-2.56-8.35h-3.25v6.06h3.25Z"/><path class="cls-1" d="M464,294.85h-2.18c-1.38,0-3.25,0-3.25-2.42,0-1.27.6-5.63.82-7.14l-4.13.27c-1.49,7.2-7.69,9-9.42,9.54l-2.07-2.26c3.09-.61,7.44-2.15,8.76-7.11l-1,0c-3.11.17-4.63.36-6.15.53l-.19-2.57c1.52,0,3,0,5.46-.08l2.23-.11c.14-1.79.11-2.84.11-3.52l3.17.63c.22,0,.49.08.49.36s-.46.47-.82.52c-.11,1-.14,1.32-.22,1.9l.69-.05c.93-.09,5.15-.39,6-.47a39.52,39.52,0,0,0-.74,4.68l-.44,3.83a.88.88,0,0,0,.27.86,1.72,1.72,0,0,0,1,.16h1.24c.69,0,1.35,0,2.12-3.66l2.29,1.76C467,294.82,465.71,294.85,464,294.85Zm1.1-14.74a2.42,2.42,0,0,1-2.43,1.43h-3.55c-2.48,0-2.59-1.29-2.59-2.31v-3.48h-10c0,1.41,0,2.84.08,4.22h-2.68c.06-.66.14-1.63.14-3.55,0-1.55,0-2.24-.05-2.95,2.29.16,4.57.22,6.86.22h3.61c0-.5-.08-2.7-.11-3.14l2.92.3c.33,0,.63.08.63.44s-.44.52-.74.63c-.06.53-.08,1.24-.11,1.77h3c1.55,0,5.73-.09,7.2-.17-.06.69-.11,1.6-.11,2.9s.08,2.56.13,3.69Zm-11.44-2.45a10.16,10.16,0,0,1-4.88,4.54l-2.12-1.95c2.76-.8,4.47-2.37,5.16-4.25l2.23.69c.3.08.63.17.63.5S454.57,277.52,453.66,277.66Zm5.32-1.91v2.73c0,.36,0,.94.83.94h2.09c.72,0,1.21,0,1.63-2l1.1.69v-.28c0-.13.08-1.73.08-2Z"/><path class="cls-1" d="M481.77,272.86a1.46,1.46,0,0,1-.52-.11c-1.24.41-2.15.69-3.26,1v4.17a33.78,33.78,0,0,0,4-.22v2.69a35.08,35.08,0,0,0-3.88-.22c.63,1.55,1.57,2.9,3.83,5.19l-1.6,2.15a24,24,0,0,1-2.32-3v3.23c0,.85.06,4.51.09,5.26,0,1,.05,1.68.08,2.42H475.4a66.56,66.56,0,0,0,.25-7.6v-3.34a26.12,26.12,0,0,1-3.33,5.29l-2.43-1.59a17.14,17.14,0,0,0,3.31-4.05,15.57,15.57,0,0,0,1.76-3.95h-.44c-.82,0-2.75.09-3.72.22v-2.69a30.8,30.8,0,0,0,3.72.22h1.13v-3.7c-1.6.22-2.31.28-3.55.42l-1.9-2.51a12.41,12.41,0,0,0,1.35.06,23.85,23.85,0,0,0,8.51-1.66l1.93,1.76c.14.14.19.22.19.34S482.13,272.86,481.77,272.86Zm10.58,12.51v1c0,2.76.08,6.32.28,9h-2.84c.14-3.36.19-4.43.19-8.68v-.58l-2.45.78c-1.13.36-4.25,1.46-4.6,1.59l-.94-2.31c1.68-.41,3.36-.91,5-1.41l3-.88v-6.8a57,57,0,0,0-.19-6.84l2.73.25c.22,0,.52.06.52.33s-.36.47-.61.58c-.08,1.43-.08,4.16-.08,5.7v6.07a33.86,33.86,0,0,0,3.64-1.33l.69,2.21C495.93,284.3,492.93,285.18,492.35,285.37Zm-5.92-1.76a9.64,9.64,0,0,0-3.92-3.36l1.57-1.82a10.56,10.56,0,0,1,3.94,3.22Zm.63-6.23a12,12,0,0,0-3.78-3.47l1.63-1.71a11.48,11.48,0,0,1,3.8,3.25Z"/><path class="cls-1" d="M533.57,284.6c-1.21-1.32-1.4-1.54-1.9-2.18v5.24c0,3,.17,6.58.22,7.77h-2.64c.08-2.48.16-6.53.16-7.74v-4.05a20.6,20.6,0,0,1-2.23,4l-2-1.62a17.21,17.21,0,0,0,3.94-8.44c-.47,0-2.34.12-2.84.17v-2.43c.89.06,2.07.09,3.17.09,0-1.63,0-2.26-.14-4.93l2.84.33c.31,0,.39.11.39.33s-.08.33-.72.6c0,2,0,2.4,0,3.67.83,0,1.71,0,2.53-.11v2.34a15,15,0,0,0-2.15-.06h-.41a.91.91,0,0,0,0,.25,13.13,13.13,0,0,0,3.42,5Zm11.72-4.69H543.6v1.6c1.88,0,3.12-.05,5.79-.19,0,.72,0,2.4,0,2.89v3.7c0,1.26.06,2,.11,2.75-1.24-.08-2.59-.14-5-.14h-4.05c-.66,0-.8,0-1.88,0l2,1.54a.54.54,0,0,1,.16.39c0,.27-.22.27-.83.3a12.68,12.68,0,0,1-4.84,2.73l-1.74-2.28a7.46,7.46,0,0,0,3.31-1,6.84,6.84,0,0,0,1.89-1.68c-.46,0-2.47.11-2.88.11.08-.74.11-1.9.11-2.7v-3.25c0-.58,0-2.62-.06-3.28.55,0,1.24.08,3,.08h2.67v-1.6h-1.46c-1.77,0-3.56.09-5.32.17v-2.26a42.17,42.17,0,0,0,4.22.17V275.5c-1.71,0-2.68.09-3.48.14v-2.23c.64.06,1.19.11,3.48.14,0-1.54,0-1.71-.09-3.14l2.82.25c.19,0,.35.08.35.33s-.08.27-.71.71c0,.75-.06,1.49-.06,1.85h3.17c0-.3,0-.8,0-1.13,0-1.52,0-1.68,0-2l2.7.19a.37.37,0,0,1,.3.3c0,.25-.16.36-.55.64,0,.33-.06,1.7-.08,2a26.07,26.07,0,0,0,3.28-.16v2.25c-.94-.05-2.12-.11-3.28-.14V278a36.55,36.55,0,0,0,4.18-.17v2.26C548.48,280,546.39,279.91,545.29,279.91Zm-4,3.5h-3.23v1.71h3.23Zm0,3.5h-3.23v1.8h3.23Zm3-11.43H541V278h3.23Zm2.81,7.93H543.6v1.71h3.45Zm0,3.5H543.6v1.8h3.45Zm2.67,8.38a15.19,15.19,0,0,1-5.1-2.89l1.71-1.74a11.62,11.62,0,0,0,4.93,2.34Z"/><path class="cls-1" d="M558,282.62a11.58,11.58,0,0,0-4.91-2.81l1.19-2.4a11.34,11.34,0,0,1,5,2.75Zm14,5h-6.15c-2.07,0-4.13,0-6.2.25v-2.46a50.22,50.22,0,0,1-3.58,8.79c.05.5.08.86-.28.86-.13,0-.24-.06-.44-.25l-2-2A39.49,39.49,0,0,0,558,283.3l1.68,1.88c1.13.11,1.32.11,3.25.19v-6.81a58.73,58.73,0,0,0-.25-6.09,12.4,12.4,0,0,0,1.74.09,26.47,26.47,0,0,0,9.75-1.79l2,2.09a.35.35,0,0,1,.11.27.35.35,0,0,1-.38.34,2.75,2.75,0,0,1-.77-.17,42.44,42.44,0,0,1-9.7,1.71v2.73h6.39c.16,0,1.82-.11,2.18-.11.93,0,2.09-.06,3.47-.14v2.78l-4-.16v5.29c.88,0,3-.06,4.76-.22v2.73C575.54,287.66,572.21,287.66,572,287.66Zm-12.51-12.07a9.31,9.31,0,0,0-4.72-2.73l1.16-2.34a11.56,11.56,0,0,1,4.77,2.7Zm6.83,14.77a21.4,21.4,0,0,1-5.4,4.85l-2.43-1.68a14.74,14.74,0,0,0,5.87-5.16l2.62,1.3a.39.39,0,0,1,.25.33C567.22,290.33,566.75,290.36,566.31,290.36Zm4.46-10.25h-5.34v5.32h5.34Zm5.93,15.13a19.1,19.1,0,0,1-4.27-3.09,8.25,8.25,0,0,1-1.76-2.21l2.09-1.59a15,15,0,0,0,6.11,4.79Z"/><path class="cls-1" d="M597.45,277h-2.87v2.95h2c1.92,0,4.74-.11,6.64-.22-.06.8-.14,3.06-.14,3.89V289l0,.77c.11,2.89-1.52,3.47-4,3.47a3.78,3.78,0,0,1-1-.08l-1.36-2.79a25.85,25.85,0,0,0,2.57.28c.8,0,1-.19,1-1.43v-6.92h-5.84V289c0,.8.14,4.19.22,6.48h-3.17c.14-1.6.22-2.57.25-3.37s.09-2.34.09-2.94v-6.81h-5.52v5.07c0,.85.09,2.23.14,3.25,0,.55.08,1.57.17,2.54h-3.17c.16-1.66.27-4,.27-4.61v-4.76c0-.64-.11-3.45-.13-4,1.4.05,4.6.13,6,.13H592V277h-2.54c-2.78,0-5.57.06-8.35.22v-2.7c2.87.2,7.08.22,8.35.22h2.48c0-1.1-.08-2.92-.14-4.41l3.45.34c.22,0,.46.08.46.35a.38.38,0,0,1-.13.31,6.49,6.49,0,0,1-.75.49c0,.47-.11,2.51-.11,2.92h2.76c2.81,0,5.65,0,8.46-.22v2.7C602.24,277,597.78,277,597.45,277Z"/><path class="cls-1" d="M631.7,295.13A23.87,23.87,0,0,1,621,289.48a21.37,21.37,0,0,1-11,5.65l-1.54-2.79a16.88,16.88,0,0,0,10.69-4.82,23.24,23.24,0,0,1-4.82-10.72c-1.63,0-3.64.08-5.37.22v-2.81c2.45.11,6.09.19,8,.19h2.87c0-2.59,0-2.89-.09-3.77l3,.22c.11,0,.47,0,.47.36a.57.57,0,0,1-.28.41c-.36.19-.41.22-.52.36,0,.39-.06,2.09-.06,2.42h4.49c2.62,0,4,0,6.34-.19V277a36.8,36.8,0,0,0-5.18-.25,25.8,25.8,0,0,1-5,10.61,20.45,20.45,0,0,0,10.5,5ZM617,276.74a19.62,19.62,0,0,0,4,8.66,21.22,21.22,0,0,0,4-8.66Z"/><path class="cls-1" d="M645.45,272.37c-.39.68-2,3.74-2.34,4.35l.33.19c.16.11.33.19.33.41s-.14.31-.52.47c-.06,1.93-.06,2.73-.06,4.3v6.34c0,.66.11,4.33.3,7h-3.33c.17-2.56.33-5.1.33-7v-7.6a23.13,23.13,0,0,1-3.36,3.72L635,282.64a30.25,30.25,0,0,0,8.46-12.51l2.64,1.44c.22.1.33.16.33.33C646.41,272.31,645.84,272.34,645.45,272.37ZM657,294.6H652.2c-1.93,0-3.22-.44-3.22-2.53V277.49c0-1.68,0-2.29-.11-7.08l3.41.47c.25,0,.53.13.53.38s-.44.53-1,.69c-.08,3.47-.11,4-.11,5.54v2.26a21.3,21.3,0,0,0,6.48-3.77l2.17,2.36a.92.92,0,0,1,.23.45c0,.22-.28.35-.5.35a2.31,2.31,0,0,1-.72-.22,24.68,24.68,0,0,1-3.74,2,25.33,25.33,0,0,1-3.92,1.55v8.15c0,1,0,1.6,1.3,1.6h3.88a1.2,1.2,0,0,0,1.3-1,19.43,19.43,0,0,0,.91-3.39l2.53,2.23C660.83,294.24,660,294.6,657,294.6Z"/><path class="cls-1" d="M686.51,294.79H685c-2,0-2.42-.93-2.42-2.36v-6.34h-.91c-.11,2.89-.53,5-2,6.75a9.41,9.41,0,0,1-3.64,2.7L674.52,294c-.63,0-2-.08-2.53-.08H668.4c0,.69,0,.77.06,1.38H666c.2-3.28.25-6,.25-6.09v-5.34l-.85.74-2-1.49a12,12,0,0,0,4.36-4.58c-.47,0-2.13,0-3.59.14v-2.2c.61,0,.8.06,1.44.08l-1.91-1.46c1.41-.83,2.57-2.28,3.56-4.87l2.56.82c.17.06.28.14.28.31,0,.33-.33.35-.77.44-.2.44-.28.6-.42.88h2.37s2.84,0,5-.25v2.37c-1.44-.14-2.81-.14-4.71-.17-.14.56-.36,1.38-.58,2h1.48c.88,0,2.78-.06,4.14-.14v2.2c-1.16-.08-2.32-.14-3.45-.14l1.24.39a.33.33,0,0,1,.28.31c0,.27-.22.3-.69.38a11.59,11.59,0,0,1-.91,1.52c1-.06,2.42-.11,3-.2v2.29c-.68-.08-1.78-.19-3-.22v1.71c1.54,0,2.06-.14,2.56-.19v2.31a21.5,21.5,0,0,0-2.56-.14v1.6a21.64,21.64,0,0,0,2.56-.14v2.23l-2.56-.13v1.87c1.15,0,1.35-.05,3.06-.16v.74c3-1.63,3.25-4.79,3.28-6.59-.64,0-.77,0-1.93.11.11-2,.11-4.51.11-4.79v-5.21c0-.44,0-3.09-.11-4.9a34.89,34.89,0,0,0,3.63.19h2.73c1,0,1.46,0,3.59-.16-.06,1.24-.09,3.85-.09,4.87v5.21c0,.94,0,3.5.09,4.74l-2.35-.08v5.37c0,.8.06,1.05,1,1.05s1.24-.25,1.63-3.12l1.87,1.49C688.9,294.79,687.77,294.79,686.51,294.79Zm-18.88-20.17a12.49,12.49,0,0,1-1.62,1.93c1.43.06,1.9.06,2.62.06a17,17,0,0,0,.57-2Zm3.31,8.38H668.4v1.74h2.54Zm0,3.69H668.4v1.6h2.54Zm0,3.56H668.4v1.87h2.54Zm-.77-11.74a18.06,18.06,0,0,1-1.6,2.65h2.12a13.06,13.06,0,0,0,1-2.65Zm14.77-5.1h-5.13v2.18h5.13Zm0,4.22h-5.13v2.2h5.13Zm0,4.27h-5.13v2.26h5.13Z"/><path class="cls-1" d="M714.56,294c-.55.5-1,.75-2.78.75h-3.42c-1.9,0-3.53-.28-3.53-3v-9.32h-2.15c-.14,6.67-3.17,11.13-9.53,12.93L690.89,293c3.69-.69,9.15-2.28,9.15-10.58h-.39c-2.7,0-5.4.06-8.07.22v-2.81c2.78.17,6.83.22,8.07.22h2.81v-5.92c0-1.88-.08-3.12-.11-3.72l2.65.19c.58.06,1,.08,1,.39,0,.49-.58.71-.88.85,0,.61-.08,1.74-.08,2.34v5.87h2.67c2.73,0,5.46-.05,8.19-.22v2.81c-3.42-.22-7.53-.22-8.33-.22v8.49c0,.88,0,1.29,1.46,1.29h2.35c1.1,0,1.9,0,2.34-3.58l2.45,1.76A6.8,6.8,0,0,1,714.56,294ZM698,278.89a10.05,10.05,0,0,0-4-5.48l2.31-1.54a14.18,14.18,0,0,1,4.35,5Zm14.6-4.68a14.68,14.68,0,0,1-3.33,4.6l-2.67-1.38a11.18,11.18,0,0,0,3.85-5.48l2.68,1.21c.41.2.58.25.58.53C713.71,274.16,713.15,274.18,712.6,274.21Z"/><path class="cls-1" d="M741.18,292.81c-.66,1.87-1.65,2.48-4.46,2.48-.56,0-.94,0-1.33-.05l-1-2.71a19.71,19.71,0,0,0,2.76.23c1.1,0,1.51-.11,1.79-1.69a50.71,50.71,0,0,0,.49-8.07H724.31a19.51,19.51,0,0,1-4.1,11.16l-2.32-1.57c2.9-3.3,4.11-6.78,4.11-14.69a46.22,46.22,0,0,0-.41-6.64c1.37.06,5.26.11,6.67.11h6.11c1.43,0,5.6-.05,6.86-.19-.05.94-.08,1.76-.08,2.7v1.93c0,.08.06,2.4.11,3-1.85-.06-2.42-.17-7.8-.17h-9c0,.33-.06,1.82-.06,2.13h9c.69,0,8.16-.22,8.6-.22C742,285.7,742,290.47,741.18,292.81Zm-2.81-19.21H724.51v2.9h13.86Zm-5.82,17.58h-4.68c0,.47,0,.64,0,1.19h-2.64c.05-.33.17-2.62.17-3.2v-1.95c0-.53-.06-2-.12-2.43,1,0,2.65.06,3.7.06h3.47c1.13,0,2.73,0,3.86-.06-.06.42-.14,1.74-.14,2.56v1.47a18.38,18.38,0,0,0,.14,2.5C735.67,291.27,734,291.18,732.55,291.18Zm1.19-4.24h-5.87v2.23h5.87Z"/><path class="cls-1" d="M30.81,356.53c-9.85-5.59-12.09-13.19-13-17.42A28.1,28.1,0,0,1,4.46,356.57L1,353.63c3.67-1.84,8.34-4.52,11.39-10.95a25.54,25.54,0,0,0,2.53-8.82l2.06.59a29.1,29.1,0,0,1-.18-3.09c0-.81,0-1.36.07-1.91h-3.6c-.62,0-3.3.11-3.86.15v-3.86c.59,0,3.17.15,3.68.15h3.49c1.17,0,3.12-.08,4.33-.15a28.1,28.1,0,0,0-.4,4.85c0,4.48.88,10.73,4.23,15.65,1.65,2.46,4.08,4.63,9.14,7.39Z"/><path class="cls-1" d="M36.87,349.66c-.11.47-.26,1-.7,1-.22,0-.29-.19-.44-.78l-.81-3.19c2.14-.52,3.71-1.07,4.52-1.33v-10h-.58a18.46,18.46,0,0,0-3.72.33v-3.64a23,23,0,0,0,3.72.34h.58c-.07-3.09-.07-3.13-.22-7.24l3.82.37c.22,0,.85.07.85.51s-.4.55-1.14.81c0,.4-.11,4.3-.11,5.55a23.6,23.6,0,0,0,3.64-.34v3.64a25,25,0,0,0-3.71-.33v8.86c2.63-1,2.93-1.07,3.71-1.43V346C44.91,346.64,39,348.88,36.87,349.66Zm23.92-8.6H55.5a16.84,16.84,0,0,1-1.18,2h5.22c1.1,0,5.92-.25,7.46-.4a77.62,77.62,0,0,1-.88,12.05c-.66,2.35-2.76,2.35-4,2.35a5.43,5.43,0,0,1-.84,0l-1.77-3.3c.41,0,2.43.15,2.65.15.62,0,.92-.26,1.1-1.22a36.92,36.92,0,0,0,.77-6.91H62.37C60.75,353,56,356.16,52.41,358l-2.9-2.32c4.37-1.61,8-4.19,9.77-9.92H57.67a11.84,11.84,0,0,1-3.64,5,31.57,31.57,0,0,1-5.59,3.78l-2.75-2.24a17.41,17.41,0,0,0,7.13-4.52,11.34,11.34,0,0,0,1.58-2H52.34a18.88,18.88,0,0,1-6.06,5l-3.23-2.09a16.15,16.15,0,0,0,8.89-7.57c-3,0-4.41,0-6.25.18v-3.3c3,.33,7.16.33,7.42.33h7.68c.07,0,4.26,0,7.46-.33v3.3C65.93,341.06,63.07,341.06,60.79,341.06Zm-1.25-4.3H53.15c-.7,0-3.75.22-4.38.26,0-.37.15-3.27.15-3.86v-3.93c0-.48-.11-3.93-.15-4.55,1.18.11,4.78.25,4.85.25h5.63c1.65,0,4-.14,5.47-.25-.07,1.39-.15,3.59-.15,4.22v3.45c0,.41.15,4.23.15,4.67C63.51,336.91,61.52,336.76,59.54,336.76Zm1.76-9.26H52v2.17H61.3Zm0,4.59H52v2.14H61.3Z"/><path class="cls-1" d="M98.56,339.7v5.84c.44,0,1.91,0,2.71-.07s2-.11,2.65-.18v3.08c-.88-.11-9.92-.26-11.17-.26H83.42c-3.6,0-7.24.15-10.83.44v-3.3c1.47.15,1.8.15,5.54.29V339.7c-4.11.07-4.41.07-6.17.18v-3.15c1.76.14,2.2.14,6.17.29v-4.08a18.43,18.43,0,0,1-2.61,2.61l-3.52-2a16.13,16.13,0,0,0,7.38-9.48L83,325.56c.18.07.48.22.48.51,0,.48-1.07.66-1.29.7a18.51,18.51,0,0,1-.88,1.8H95.66c1.17,0,4.51-.15,6.5-.33v3.34c-1-.11-2.32-.18-3.6-.26V337c3.85-.11,4.29-.11,6.1-.25v3.15C102.93,339.77,102.49,339.77,98.56,339.7ZM79.71,351.75a25.37,25.37,0,0,1-4.19,5.69l-2.94-2.12A15.18,15.18,0,0,0,77.29,349l3.27,1.77a.51.51,0,0,1,.29.47C80.85,351.75,80.15,351.75,79.71,351.75Zm4.16-20.5H81.29v5.81h2.58Zm0,8.45H81.29v5.88h2.58Zm2.49,17.16H82.8A25.47,25.47,0,0,0,83,354.1a14.7,14.7,0,0,0-.48-4.29l3.2-.22a17.31,17.31,0,0,1,.77,5.07C86.47,355.57,86.4,356.27,86.36,356.86Zm3.24-25.61H87v5.81H89.6Zm0,8.45H87v5.88H89.6Zm.84,17.16a14.29,14.29,0,0,0-2-6.91l3.27-.58a17.77,17.77,0,0,1,2.13,7Zm5-25.61H92.72v5.81h2.76Zm0,8.45H92.72v5.88h2.76Zm5,17.82a31.74,31.74,0,0,0-5.18-7.42l2.61-1.29a28,28,0,0,1,5.33,7Z"/><path class="cls-1" d="M122.55,348.92l-2.09-2.05c-.89-.85-1.4-1.44-1.92-2v2.93c0,2.39,0,3.68.23,9.78h-3.46c.15-3.27.26-6.54.26-9.85v-3a20.37,20.37,0,0,1-5.11,7.06l-3-2.32a21.48,21.48,0,0,0,7.27-10.54H114a47.17,47.17,0,0,0-5,.33v-3.6a49.25,49.25,0,0,0,5,.29h1.58v-2.17c0-3-.11-7-.18-9.33l3.6.48c.29,0,.66.07.66.47a.54.54,0,0,1-.19.45l-.73.51c-.07,2.2-.19,4.67-.19,7.27v2.32a43.68,43.68,0,0,0,5.33-.29v3.6a41.41,41.41,0,0,0-5.33-.33v.58a21.55,21.55,0,0,0,5.74,6.51Zm-11.28-14.51a14.65,14.65,0,0,0-2.79-5.73l2.86-1.77a15.49,15.49,0,0,1,2.83,5.92Zm12.9-4.63a21.92,21.92,0,0,1-2.5,4.85l-3-1.36a17,17,0,0,0,2.83-6l3.46,1.33a.4.4,0,0,1,.29.4C125.27,329.49,125,329.56,124.17,329.78ZM138,343v3.23c0,3.79.14,7.57.26,11.36h-3.72c.11-3.16.22-7.09.22-11.39v-2.32l-3.85,1.1c-1.47.41-3.82,1.25-5.29,1.7l-.7-4.16a48.14,48.14,0,0,0,5.84-1l4-1v-7.75c0-1.76,0-3.2-.18-8.45l3.9.4c.4,0,.47.34.47.59,0,.41-.11.48-.77.85-.11,3.34-.18,4.33-.18,6.46v7.06c1.47-.44,1.72-.52,3.86-1.21l.44,3.82C139.45,342.68,139.16,342.75,138,343ZM130,339.44a14,14,0,0,0-4.7-3.23l2.24-2.53a12.6,12.6,0,0,1,4.56,3.19Zm.77-7.45a11.24,11.24,0,0,0-4.7-3.05l2-2.91a14.51,14.51,0,0,1,4.67,3.2Z"/><path class="cls-1" d="M163.08,326.51h3.1l-9.5,29.8h-3.1Z"/><path class="cls-1" d="M206.24,343.37c-.4.52-2.16,2.87-2.57,3.31l-3.41-2.2a28.48,28.48,0,0,0,4.26-4.56h-7.94v7.5c0,.8.15,4.37.15,5.07,0,3.23-.59,4.81-4.34,4.81a16,16,0,0,1-3.23-.29l-1.32-3.83a13.66,13.66,0,0,0,3.3.59c1.62,0,1.84-.59,1.84-2.86v-11h-9.51a41.79,41.79,0,0,0-5.26.48v-4c2,.22,8.67.37,10.95.37h5.51a20.36,20.36,0,0,0-5.51-5.11l2.94-2.2a33.18,33.18,0,0,1,3,2.42,42.33,42.33,0,0,0,4.22-3.38h-9.62c-.56,0-3,.18-3.46.26l-2.28.26v-3.9a44.57,44.57,0,0,0,5.59.33c.4,0,2.2.08,2.57.08h4.7c1.51,0,6.76-.33,7.32-.41l1.9,2.94c-1.28.74-5.32,3.45-8.92,6a16.89,16.89,0,0,1,1.06,1.51l-1.43,1.21h1.84c1.94,0,5.91-.08,8.15-.18.85,0,1.44-.12,2.06-.19l1.65,2A53.24,53.24,0,0,0,206.24,343.37Z"/><path class="cls-1" d="M218.92,346.72c0,.95-.33,6.1-1.73,9.11l-3.3-.81a15.17,15.17,0,0,0,1.94-7.86,18.22,18.22,0,0,0-.14-2.24l3.16.48c.37.07.73.25.73.58S219.29,346.53,218.92,346.72Zm8.19-2.65c-.25-.8-.4-1.32-.66-2l-3,.4V348c0,2.39.07,4.7.36,8.6,0,.22,0,.59,0,.7h-4a59.34,59.34,0,0,0,.51-9.41v-5.1c-.7.07-3.86.36-4.48.44-.52.84-.66.91-.88.91-.37,0-.41-.25-.44-.55l-.3-3.64c1,0,1.18,0,2.83,0,.41-.44.66-.77,2.79-3.42a23.84,23.84,0,0,0-5.76-4.33l2.09-2.94c.62.47.73.58,1.84,1.47a40.75,40.75,0,0,0,3.41-6.36l3.35,1.54c.36.19.47.3.47.55s-.11.37-1.21.7c-.33.48-1.76,2.72-2.09,3.16a19.83,19.83,0,0,1-1.8,2.24c.25.26,1.39,1.33,1.61,1.55a52,52,0,0,0,3.35-5l3.23,1.84s.37.22.37.51-.15.45-1.22.7c0,.08-3.49,4.34-6.79,7.76,1,0,2.16-.12,4.41-.37-.52-.88-.74-1.25-1.25-2l2.79-1.44a52.52,52.52,0,0,1,3.6,6.51Zm-.88,9.7a22.78,22.78,0,0,0-1.54-8.56l3.05-.77a25.16,25.16,0,0,1,2,8.56Zm20.28-9.59c-.18,4.12-.8,8.71-2.2,11-1.07,1.8-2.57,1.91-4.67,1.91a17,17,0,0,1-2.79-.26l-.95-4.15a25.76,25.76,0,0,0,4.22.85c1.18,0,1.58-.81,2.21-3.09.8-2.94.91-8.71.91-10,0-1,0-5.48,0-6.39h-9.74a27.61,27.61,0,0,1-2.2,4.48l-3.6-1.32a17.17,17.17,0,0,0,3.23-6,34.56,34.56,0,0,0,1.47-6.76l3.56.84c.37.07.63.19.63.63s-.3.51-1,.77a23,23,0,0,1-1,4.41h4.81c1.62,0,4.93-.15,7.31-.37C246.62,332.83,246.59,342.24,246.51,344.18ZM237,347.53a31.19,31.19,0,0,0-3.67-7.35l3.16-1.47a31.82,31.82,0,0,1,4,7.31Z"/><path class="cls-1" d="M273.08,329.08h-2.61a45.27,45.27,0,0,1-2.83,5.44l1.76.26c.41.07.88.11.88.55s-.29.55-.51.73c-.11,5.29-.11,6.25-.11,8.12v5.7a67.43,67.43,0,0,0,.33,7.49h-4.48c0-.51,0-.8.15-3.38,0-.4.11-4.11.11-4.41v-12.3a35.58,35.58,0,0,1-12.53,10.43l-2.9-2.9a30.6,30.6,0,0,0,16-15.73h-4.08c-3.71,0-7.42.15-11.09.33v-3.6c3.67.19,7.38.3,11.09.3h10.77c1.83,0,6.35,0,11.2-.3v3.6C280,329.19,276.27,329.08,273.08,329.08Zm9.44,19.51c-1.36-2.53-7.57-9.95-11.68-12.31l2.75-2.82a64.74,64.74,0,0,1,12.09,12.3Z"/><path class="cls-1" d="M312.91,346.13a28.65,28.65,0,0,1-2.87,4.08c.66.26,1.69.66,2.79,1.17a34.37,34.37,0,0,1,6.69,4.05l-2.65,2.64a26.82,26.82,0,0,0-9.29-5.4c-4.85,4-10.59,4.56-15.76,4.81l-2.32-3.27c9.19.3,11.87-1.13,14.33-2.79a52.06,52.06,0,0,0-5.58-1.4c-.08.11-1.14,1.36-1.14,1.4l-3.35-1.73a25.69,25.69,0,0,0,3.23-3.56c-1.76,0-4.11.07-5.28.11-1.51,0-2.14.07-3.42.18v-3.63c4.44.29,10.32.33,10.84.33a28.2,28.2,0,0,0,1.43-2.61h-2.31c-.41,0-2.51.07-3.76.11-2.71.11-3,.11-3.52.18a23.08,23.08,0,0,0,.18-3v-4.23c0-.74-.07-2.13-.14-2.87.66.12,1.28.15,2.2.23s4.34.11,5,.11h.59v-2.62c-2.58,0-6.14,0-9,.19V325.3c4,.3,9.48.3,9.88.3h9.84c.08,0,5.66,0,9.88-.3v3.27c-2.79-.19-5.54-.19-9.29-.19V331h.81c1.07,0,6.13-.37,7.24-.52a28.16,28.16,0,0,0-.3,3v4.26c0,.66.15,2.13.22,2.79-2.27-.07-5.58-.07-7.9-.07H302l2.47.33c.14,0,.58.07.58.4s-.58.37-1,.41c-.48.84-.51.92-.88,1.47h6.69c3.64,0,7.27-.07,10.91-.33v3.63C319.11,346.31,317.75,346.2,312.91,346.13Zm-14.07-12.6h-4.6v4.23h4.6Zm2.27,12.56c-.15.22-.84,1.21-1,1.44,2.13.44,4.3,1,6.43,1.58a26.28,26.28,0,0,0,2.42-3Zm5.66-17.71h-4.6V331h4.6Zm0,5.15h-4.6v4.23h4.6Zm8,0h-4.67v4.23h4.67Z"/><path class="cls-1" d="M8.32,2.83A28.62,28.62,0,0,1,6.71,6.89c.15.09.47.21.47.54s-.41.66-.59.8c0,1.32-.06,4.42-.06,5.88v6.18c0,1.61.12,6.14.21,7.16H3.6a16.39,16.39,0,0,0,.33-3.37c0-.57.12-3,.12-3.55V11.37a15.46,15.46,0,0,1-1.43,1.88L0,11.84C4.41,8,6.11,1,6.2.54L9,1.7c.24.09.51.27.51.48C9.54,2.8,8.62,2.83,8.32,2.83ZM27,15.78a24.16,24.16,0,0,1-7.16-3.49,17.33,17.33,0,0,1-7.13,3.25l-1.79-2v3.35c0,2.11.12,4.77.15,6.86H8.35c0-.81.06-1.34.06-3.16,0-.6.09-3.32.09-3.88V11.55c0-1.88,0-5.58,0-6.27l2.41.18c.45,0,.81.06.81.42s-.3.42-.81.65V8.12A14.75,14.75,0,0,0,15.36.39l2.83.8c.24.06.57.15.57.48s-.45.51-1.07.57a13.46,13.46,0,0,1-.63,1.43h5.1A49.64,49.64,0,0,0,28,3.46V5.94c-.27,0-2.57-.09-3-.09a17.51,17.51,0,0,1-3.26,4.71,17.56,17.56,0,0,0,7,2.54ZM15.24,7a9.93,9.93,0,0,1-2,2.39L10.88,8.15v5c4.06-.69,5.7-1.58,7-2.51A15.74,15.74,0,0,1,15.24,7Zm12,14.65a2.73,2.73,0,0,1-.65-.09c-.36.24-.6.42-3,2.09-.68.48-3.85,2.57-10,4l-1.76-2.66c3.37-.36,7.9-.83,13.69-6.26l2,2.17a.68.68,0,0,1,.15.33C27.8,21.24,27.74,21.6,27.26,21.6ZM22,15.78c-.12,0-.59-.12-.71-.12a20.55,20.55,0,0,1-6.9,3.46l-2.08-2.2a16,16,0,0,0,8.17-3.85l1.67,1.7a.89.89,0,0,1,.36.59C22.55,15.78,22.13,15.78,22,15.78Zm2.66,2.87c-.12,0-.63-.12-.75-.12a23.09,23.09,0,0,1-8.59,4.53l-1.88-2.32a17.11,17.11,0,0,0,9.76-4.93l1.79,2a.82.82,0,0,1,.17.42A.46.46,0,0,1,24.7,18.65ZM17.51,5.79A11.65,11.65,0,0,0,19.83,9,11.12,11.12,0,0,0,22,5.79Z"/><path class="cls-1" d="M49.07,12.8H46.21V23.21h2q3.7,0,7.36-.27v3c-3.19-.24-6.89-.24-7.36-.24h-7.1c-2.33,0-5,.06-7.28.24v-3c2.59.21,6.2.27,7.28.27h2.2V12.8h-3c-2.92,0-6.12.06-9,.24V10c2.89.18,7.52.24,9,.24h3c-.09-6.14-.12-7-.24-9.16l3.32.33c.26,0,.68.06.68.42s-.51.63-.71.72c0,.74,0,1.94-.12,7.69h2.86c.42,0,5.52,0,9.13-.24v3C54.05,12.8,49.58,12.8,49.07,12.8Z"/><path class="cls-1" d="M67.54,7.52H64.17c-.63,0-2.36.06-3.61.18V5.19c1.16.09,2.83.15,3.61.15h3.37c.77,0,2.44-.06,3.64-.15V7.7C70.07,7.61,68.28,7.52,67.54,7.52Zm-.09,20c0-.42,0-.81.06-1.2H64.25a7,7,0,0,0,.15,1.2H61.63A25.19,25.19,0,0,0,61.81,25V20.68c0-.6,0-2.27,0-2.84a21.42,21.42,0,0,0,2.39.21h3.34A23.74,23.74,0,0,0,70,17.84C70,19,70,19.72,70,20.5v4.38a17.85,17.85,0,0,0,.12,2.66ZM67.12,3.67H64.64a14.49,14.49,0,0,0-2.83.18V1.16a16.23,16.23,0,0,0,2.83.24h2.48A17.47,17.47,0,0,0,70,1.16V3.85A15,15,0,0,0,67.12,3.67Zm0,8H64.64a15.33,15.33,0,0,0-2.83.17V9.16a16.23,16.23,0,0,0,2.83.24h2.48A17.47,17.47,0,0,0,70,9.16v2.68A15.82,15.82,0,0,0,67.12,11.67Zm0,4.11H64.64c-.5,0-1.85.09-2.83.18v-2.5c.92.08,2.21.14,2.83.14h2.48c.6,0,1.91-.06,2.83-.14V16C69.09,15.87,67.69,15.78,67.12,15.78Zm.42,4.3H64.23v4.18h3.31Zm18.61,6.17a15.8,15.8,0,0,1-5.78-5.16c0,.9.17,5.34.23,6.36H77.5c.06-.87.18-5,.24-6a23.63,23.63,0,0,1-5.64,5.34l-2-2.09A17.28,17.28,0,0,0,77.23,18H76.4c-1.64,0-3.7,0-5.28.15V15.48a44.14,44.14,0,0,0,5.28.27h1.34V13.49h-2c-1.22,0-2.42.11-3.55.2,0-1.19.06-3.28.06-4.5V5.7c0-1.4,0-3.13-.12-4.54,1.64.18,3.49.18,3.85.18h5.13c.48,0,2.75,0,4.86-.18,0,1.38,0,2.93,0,4.3V8.83c0,.48,0,4,.06,4.75-1.19-.06-3.81-.09-5-.09h-.65v2.26h1.37c.86,0,3.46-.06,5.28-.27v2.69C85.38,18,83.41,18,81.71,18h-.42a13,13,0,0,0,7.16,6ZM77.74,3.49H74.79V6.3h2.95Zm0,4.89H74.79v3h2.95Zm5.64-4.89h-3V6.3h3Zm0,4.89h-3v3h3Z"/><path class="cls-1" d="M100.74,2.86a1.9,1.9,0,0,1-.65-.17,20.37,20.37,0,0,1-3.23.92V7.55h.48a20.56,20.56,0,0,0,3.58-.27v3A25.1,25.1,0,0,0,97.34,10h-.45a16,16,0,0,0,4,6.2l-1.61,2.18a17.71,17.71,0,0,1-2.39-3.28v2.68c0,3.4,0,4.87.27,9.67h-3c.18-3.22.33-6.3.33-9.61V15.93a14.57,14.57,0,0,1-2.81,4.87l-2.44-1.5c2.62-2.41,4.2-6.86,4.62-9.33a24.54,24.54,0,0,0-3.55.26V7.28a26.28,26.28,0,0,0,3.58.27h.6V4a29.85,29.85,0,0,1-3,.18L89.7,1.55c.51,0,1,.06,1.76.06A22.41,22.41,0,0,0,99,.3l2,1.91a.44.44,0,0,1,.18.33C101.19,2.77,101,2.86,100.74,2.86ZM112,26.34h-5.79c-1.28,0-4.8,0-6.06.09V23.9c2.12.15,3.38.15,5.91.15h1.79V20.11h-.77a31.19,31.19,0,0,0-4.3.15V17.6a36.55,36.55,0,0,0,4.3.27h.77V14.5h-1.22a35.45,35.45,0,0,0-4.8.18V12a41.54,41.54,0,0,0,4.8.24h4.8a43.81,43.81,0,0,0,4.81-.24v2.66a32,32,0,0,0-4.81-.18h-.89v3.37h.83a34.8,34.8,0,0,0,4.3-.27v2.66a32.23,32.23,0,0,0-4.3-.15h-.83v3.94H112a51.24,51.24,0,0,0,5.25-.24v2.62Zm-.45-16.29h-5c-1.4,0-2.84.06-4.24.12.06-1.52.09-1.73.09-2.86V4.21c0-1.11,0-1.29-.09-2.87,1.2.06,2.78.12,4.24.12h5c1.43,0,2.84-.06,4.27-.12-.09,1.55-.09,1.76-.09,2.87v3.1c0,1.13,0,1.31.09,2.86C114.64,10.11,113.06,10.05,111.57,10.05Zm1.64-6.38h-8.32V7.85h8.32Z"/><path class="cls-1" d="M127.26,2.83a28.62,28.62,0,0,1-1.61,4.06c.15.09.47.21.47.54s-.41.66-.59.8c0,1.32-.06,4.42-.06,5.88v6.18c0,1.61.12,6.14.21,7.16h-3.14a16.39,16.39,0,0,0,.33-3.37c0-.57.12-3,.12-3.55V11.37a15.46,15.46,0,0,1-1.43,1.88l-2.63-1.41C123.35,8,125.05,1,125.14.54L128,1.7c.24.09.51.27.51.48C128.48,2.8,127.55,2.83,127.26,2.83Zm18.64,13a24.16,24.16,0,0,1-7.16-3.49,17.33,17.33,0,0,1-7.13,3.25l-1.79-2v3.35c0,2.11.12,4.77.15,6.86h-2.68c0-.81.06-1.34.06-3.16,0-.6.09-3.32.09-3.88V11.55c0-1.88,0-5.58,0-6.27l2.41.18c.45,0,.81.06.81.42s-.3.42-.81.65V8.12A14.75,14.75,0,0,0,134.3.39l2.83.8c.24.06.57.15.57.48s-.45.51-1.07.57A13.46,13.46,0,0,1,136,3.67h5.1a49.64,49.64,0,0,0,5.82-.21V5.94c-.27,0-2.57-.09-3-.09a17.25,17.25,0,0,1-3.25,4.71,17.56,17.56,0,0,0,7,2.54ZM134.18,7a9.93,9.93,0,0,1-2,2.39l-2.33-1.19v5c4.06-.69,5.7-1.58,7-2.51A15.46,15.46,0,0,1,134.18,7Zm12,14.65a2.73,2.73,0,0,1-.65-.09c-.36.24-.6.42-3,2.09-.68.48-3.85,2.57-10,4l-1.76-2.66c3.37-.36,7.9-.83,13.69-6.26l2,2.17a.68.68,0,0,1,.15.33C146.74,21.24,146.68,21.6,146.2,21.6ZM141,15.78c-.12,0-.6-.12-.72-.12a20.42,20.42,0,0,1-6.89,3.46l-2.09-2.2a16,16,0,0,0,8.18-3.85l1.67,1.7a.89.89,0,0,1,.36.59C141.49,15.78,141.07,15.78,141,15.78Zm2.66,2.87c-.12,0-.63-.12-.75-.12a23.18,23.18,0,0,1-8.59,4.53l-1.88-2.32a17.08,17.08,0,0,0,9.75-4.93l1.79,2a.75.75,0,0,1,.18.42A.46.46,0,0,1,143.64,18.65ZM136.45,5.79A11.42,11.42,0,0,0,138.77,9a11.12,11.12,0,0,0,2.12-3.16Z"/><path class="cls-1" d="M168.9,8.32c-1.82,1.67-1.9,1.76-4.71,4.06-.06.06-.33.27-.48.39V23.6c0,2.42-.21,3.67-4,3.67-.66,0-1.08,0-1.62,0l-1.52-3.64a23.23,23.23,0,0,0,3.49.42c.66,0,.84-.24.84-1.05V14.38a34.7,34.7,0,0,0-.33-5l2.24.68a59.9,59.9,0,0,0,5.31-5.34H159c-1.94,0-4.59.09-6.89.18-.75,0-1,.06-1.61.12V1.79c2.59.24,5.22.33,7.81.33h6.84c2.86,0,6-.12,8-.21l1.34,1.46C172.57,5,171.35,6.06,168.9,8.32Z"/><path class="cls-1" d="M187.43,12h-1.1v2.63h1.16a40.15,40.15,0,0,0,4.62-.27,16.78,16.78,0,0,0-.05,2.12v3.28c0,1.13,0,1.28.05,2.63l0,.95c.06,2.15-1.25,2.27-2.92,2.27a4.91,4.91,0,0,1-.66-.06l-1.64-3a19.42,19.42,0,0,0,2,.17c.57,0,.57-.08.57-1V16.86h-3.16v.47c0,1.82.15,8.27.33,9.94H183.4c.15-1.43.15-2.72.18-5.79,0-.63.09-3.52.09-4.09v-.53h-3.16v3.85c0,1.37,0,2.2.18,5.16h-3a33,33,0,0,0,.27-4.12V17.81c0-1.31-.06-2.36-.15-3.37,1.64.15,4.12.15,5,.15h.83V12h-1.46a51.82,51.82,0,0,0-5.28.24V9.28c1.82.21,4.47.24,5.28.24h1.46v-1c0-.3,0-.41,0-1.58h-3.55a9.81,9.81,0,0,1-1.22,2l-2.81-1a13.17,13.17,0,0,0,2.81-6.63l2.74.75c.51.15.69.18.69.39s-.51.47-.69.53c-.15.48-.21.6-.5,1.56h2.5c0-1.91-.06-2.72-.12-4.09l2.87.36c.74.09.83.09.83.35s0,.24-.83.69c0,.42,0,2.57,0,2.69h1.31A30.75,30.75,0,0,0,192,4.24v3a35.66,35.66,0,0,0-4.36-.27h-1.31v2.6h1.1a46,46,0,0,0,5.37-.24V12.2C190.47,12,187.67,12,187.43,12Zm9.4-7.4c0,.69-.06,3-.06,3.85v5.11c0,.38,0,4.86.18,6h-3.08c.09-.8.18-2.8.18-5.4V7.61c0-1.14,0-1.91-.12-4.75l2.87.3c.77.09,1,.15,1,.45S197.6,4.06,196.83,4.56Zm6-3.37a2.65,2.65,0,0,0-.42.42c-.06,1.1-.06,2.95-.06,4.18v7.4c0,4.56,0,6.56.06,7.75,0,.81.09,2.12.09,3,0,3.28-1.43,3.4-3.64,3.4-.84,0-1.32,0-1.79-.06l-1.35-3c.27,0,2.51.15,2.66.15,1.07,0,1.07-.27,1.07-1.71V5.37c0-.69,0-3.85-.06-5l3,.18c.39,0,.65,0,.65.3A.5.5,0,0,1,202.8,1.19Z"/><path class="cls-1" d="M215.77,2.75a32.58,32.58,0,0,1-2.38,4.77c.41.33.68.6.68.77s-.21.39-.54.54a18.86,18.86,0,0,0-.11,2.27v8c0,2.81.06,5.61.11,8.42h-2.95c.09-2.42.12-4.36.12-8.42V11.64a22.52,22.52,0,0,1-3.07,3.49l-2.57-1.7c3.4-2.42,7.37-9,8.42-13l2.92,1.31c.24.09.39.24.39.39S216.46,2.63,215.77,2.75Zm11.52,5.66h-2.84v3.94h4.3c1,0,2.39,0,3.85-.12v2.63c-1.1-.06-2.45-.12-3.82-.12h-4.33V18.5h4.15c1.61,0,2.84,0,4-.12v2.68c-.57,0-1.64-.12-4-.12h-4.18c.06,4,.06,4.45.12,6.57h-3c.06-1.82.12-3.43.12-6.36V8.41H220a34.76,34.76,0,0,1-3.13,3.94l-2.69-1.49A21.21,21.21,0,0,0,220.64.54l3,1.13c.27.09.6.33.6.63s-.33.47-.69.47h-.51a35.64,35.64,0,0,1-1.58,3.32h5.79c.8,0,2.36,0,6.14-.12V8.53C231.17,8.47,228.66,8.41,227.29,8.41Z"/><path class="cls-1" d="M260.49,27.39a24,24,0,0,1-8.56-3.85l-.36,1.58a70.92,70.92,0,0,1-9.57,2c-.06.21-.21.75-.66.75-.21,0-.33-.21-.39-.45l-.71-2.87a27.7,27.7,0,0,0,3.93-.32V18.17c-.27,0-1.52.06-2.62.15V15.63c1.88.15,4,.21,4.8.21V13.16a32.78,32.78,0,0,0-3.55.15V10.62c1.1.12,1.13.12,3.55.21V8.44h-5.22V12A30.09,30.09,0,0,1,240,21a21.55,21.55,0,0,1-2.21,5.17L234.69,25c3.13-4.18,3.64-8.53,3.64-13.07V4.27a21.26,21.26,0,0,0-.15-3c2.53.15,5.87.18,8.44.18h6c2,0,6.2-.09,8.05-.27,0,.48-.09,1.67-.09,2.39V6a24.94,24.94,0,0,0,.12,2.59c-1.58-.12-3.49-.15-5.1-.12v2.39c.51,0,2.74-.06,4.59-.24v2.69a43.6,43.6,0,0,0-4.59-.18v2.74c3.55-.06,4.54-.09,6.44-.24v2.69c-1.16-.09-1.52-.09-4.62-.18l2.12,1.22a.45.45,0,0,1,.21.33c0,.54-.45.54-1.32.54a22.08,22.08,0,0,1-3.37,2.24,16.67,16.67,0,0,0,7.22,1.82ZM257.87,3.73H241.13V6.38h16.74ZM247.75,18.14h-.92v5.7c1.49-.18,3-.48,4.47-.81A10.74,10.74,0,0,1,247.75,18.14Zm5.05-9.7h-3.64v2.42h3.64Zm0,4.69h-3.64v2.74h3.64Zm-2.24,5A10.68,10.68,0,0,0,253,21.06a10.91,10.91,0,0,0,3.35-2.92Z"/><path class="cls-1" d="M265.28,27.15l-.59-.63L290.4.87l.6.59Z"/><path class="cls-1" d="M298.58,2.83A26.42,26.42,0,0,1,297,6.89c.15.09.48.21.48.54s-.42.66-.6.8c0,1.32-.06,4.42-.06,5.88v6.18c0,1.61.12,6.14.21,7.16h-3.13a16.39,16.39,0,0,0,.33-3.37c0-.57.12-3,.12-3.55V11.37a15.33,15.33,0,0,1-1.44,1.88l-2.62-1.41C294.67,8,296.38,1,296.47.54L299.3,1.7c.24.09.51.27.51.48C299.81,2.8,298.88,2.83,298.58,2.83Zm18.65,13a24,24,0,0,1-7.16-3.49,17.33,17.33,0,0,1-7.13,3.25l-1.79-2v3.35c0,2.11.12,4.77.15,6.86h-2.69c0-.81.06-1.34.06-3.16,0-.6.09-3.32.09-3.88V11.55c0-1.88,0-5.58,0-6.27l2.42.18c.45,0,.8.06.8.42s-.29.42-.8.65V8.12A14.67,14.67,0,0,0,305.62.39l2.84.8c.24.06.57.15.57.48s-.45.51-1.08.57a13.46,13.46,0,0,1-.63,1.43h5.11a49.43,49.43,0,0,0,5.81-.21V5.94c-.26,0-2.56-.09-3-.09A17.7,17.7,0,0,1,312,10.56a17.42,17.42,0,0,0,7,2.54ZM305.5,7a10,10,0,0,1-2,2.39l-2.33-1.19v5c4.06-.69,5.7-1.58,7-2.51A15.47,15.47,0,0,1,305.5,7Zm12,14.65a2.84,2.84,0,0,1-.66-.09c-.36.24-.59.42-2.95,2.09a29.24,29.24,0,0,1-10,4l-1.76-2.66c3.37-.36,7.91-.83,13.7-6.26l2,2.17a.68.68,0,0,1,.15.33C318.07,21.24,318,21.6,317.53,21.6Zm-5.22-5.82c-.12,0-.6-.12-.72-.12a20.51,20.51,0,0,1-6.89,3.46l-2.09-2.2a16.07,16.07,0,0,0,8.18-3.85l1.67,1.7a.88.88,0,0,1,.35.59C312.81,15.78,312.4,15.78,312.31,15.78ZM315,18.65c-.12,0-.62-.12-.74-.12a23.25,23.25,0,0,1-8.6,4.53l-1.88-2.32a17.08,17.08,0,0,0,9.76-4.93l1.79,2a.75.75,0,0,1,.18.42C315.47,18.62,315.05,18.65,315,18.65ZM307.77,5.79A11.76,11.76,0,0,0,310.1,9a11.35,11.35,0,0,0,2.12-3.16Z"/><path class="cls-1" d="M339.34,12.8h-2.87V23.21h2c2.48,0,4.92-.09,7.37-.27v3c-3.19-.24-6.89-.24-7.37-.24h-7.1c-2.33,0-5,.06-7.28.24v-3c2.6.21,6.21.27,7.28.27h2.21V12.8H330.5c-2.92,0-6.11.06-9,.24V10c2.9.18,7.52.24,9,.24h3.05c-.09-6.14-.12-7-.24-9.16l3.31.33c.27,0,.69.06.69.42s-.51.63-.72.72c0,.74,0,1.94-.12,7.69h2.87c.41,0,5.52,0,9.13-.24v3C344.32,12.8,339.84,12.8,339.34,12.8Z"/><path class="cls-1" d="M369.68,15.28H359c-.87,0-5.55,0-7.79.14V12.47c2.39.12,7.58.15,7.79.15h10.65c.86,0,5.55,0,7.78-.15v2.95C375.11,15.31,369.89,15.28,369.68,15.28Z"/><path class="cls-1" d="M397.56,20.62h-1.34c.12,4.14.18,5.25.3,6.92H393c.18-1.52.18-1.91.33-6.92h-5.55c-2.78,0-5.52.09-8.27.26V17.93c1.65.12,2.09.12,6,.24V14.89c0-1.76-.09-3-.18-4,2.78.09,3.58.12,6.36.12h1.7V7h-6.72a14.11,14.11,0,0,1-4.23,3.49L380,8.44A15.39,15.39,0,0,0,387.75,0l2.77,1.43c.18.09.45.3.45.51,0,.45-.72.42-1.1.39-.6,1-.84,1.34-1.41,2.2h6.6c3.13,0,6.26,0,9.4-.23V7.07c-2.33,0-6,0-8.3-.06v4a64.07,64.07,0,0,0,6.92-.24v2.8c-2.59-.11-3-.11-6.92-.17V18.2h1.4c3,0,6.06-.06,9.07-.27v2.95C402.73,20.62,397.92,20.62,397.56,20.62Zm-4.2-7.19H388.2V18.2h5.16Z"/><path class="cls-1" d="M411.7,24.76v.66a.34.34,0,0,1-.35.39.51.51,0,0,1-.48-.24l-2.24-2.51c1.4-1.13,6.54-8.29,7.19-9.4l1.58,2.18C417,16.65,412.18,24.14,411.7,24.76Zm2.45-16.14a17.1,17.1,0,0,0-4.56-3.76l1.52-2.5a12.31,12.31,0,0,1,4.74,3.76Zm19.07,18.86c-3.47-1.55-6.81-4.89-8.87-9.88-1.7,4.81-4.35,8.3-10.23,9.67l-1.88-2.6a12,12,0,0,0,6.18-2.53c3.19-2.63,4.29-7.46,4.29-10.65a12.86,12.86,0,0,0-.15-1.94l3.2.44c.62.09.8.12.8.48s-.09.33-.8.84a4.5,4.5,0,0,0-.06.77,15.68,15.68,0,0,0,3.85,9,18.45,18.45,0,0,0,5.81,4Zm-1.79-14.59c-.39.69-.51.95-.72,1.4l-2.83-1.22a24.71,24.71,0,0,0,2.83-4.81h-8.77a16.65,16.65,0,0,1-4,5l-2.8-1.79c4.74-3,6-8.09,6.23-11.1l3.25.89c.21,0,.48.12.48.48a.5.5,0,0,1-.18.42,5.05,5.05,0,0,1-.77.3,30,30,0,0,1-1.11,3.4h4.81c1.9,0,3.81-.12,5.72-.3L434.71,7C433.81,8.65,432.32,11.25,431.43,12.89Z"/><path class="cls-1" d="M462.37,12.08c.33.15.51.24.51.54a.38.38,0,0,1-.33.33,1.87,1.87,0,0,0-.69.21c-.12.24-.27.56-1.49,3.43a19,19,0,0,1-2.39,4c.72,1.16,2.15,3.52,3.17,3.52.59,0,1.73-1.61,2.29-3.79l2.18,2.44c-.86,2.39-2.65,5-4.09,5-1.22,0-3.52-1.88-5.61-4.93a18.07,18.07,0,0,1-7.1,4.45l-2.23-2.51a14.31,14.31,0,0,0,7.87-4.41c-1.82-3.55-2.47-8.18-2.92-12H443.3v4h6.84c0,.75-.06,4-.12,4.69-.63,6.35-2.45,6.68-5.28,6.68a1.92,1.92,0,0,1-.81-.09l-.8-3.07a11.81,11.81,0,0,0,2.35.38c1.67,0,1.94-3.76,1.94-5.22a4.59,4.59,0,0,0-.06-.89H443.3c.06,3-1.13,9-2.68,11.6l-2.75-1.22a16.4,16.4,0,0,0,2-5.25,37.91,37.91,0,0,0,.87-7.64,36.76,36.76,0,0,0-.69-6.77c1.37.27,2.36.3,7,.3h4.21c-.27-3.28-.3-4.33-.36-5.52L454,.6c.39,0,.81.06.81.5a.38.38,0,0,1-.18.33c-.21.18-.54.45-.63.54,0,2.06,0,3,.09,3.94h3.61c.72,0,4.87-.09,6.39-.33v3.1c-3.22-.21-6.42-.24-6.57-.24h-3.28a24.37,24.37,0,0,0,2.18,9.34,23.68,23.68,0,0,0,2.81-7.16ZM459.3,5.61A9.19,9.19,0,0,0,456.22,2l2.15-1.7c2.51,1.85,2.95,3,3.16,3.55Z"/><path class="cls-1" d="M493.14,26.43a20.06,20.06,0,0,1-10.38-7.07c.06,2.75.12,5.49.41,8.21h-3.58c.27-2.72.3-4.27.39-7.82a24.08,24.08,0,0,1-9.81,6.92L468,24.14a19.89,19.89,0,0,0,6.35-2.93,18,18,0,0,0,4.18-4h-2c-1.88,0-6.17.09-7.85.33V14.62c2.36.12,4.36.24,8,.24h3.46v-2h-2.54l-3.1.06c-1.46,0-1.91,0-2.71.06A24.72,24.72,0,0,0,472,8.62V5.52a27,27,0,0,0-.24-4.42c.8.06,1.28.06,2,.09l4.14,0h6.3c4.62,0,4.77,0,6.71-.15-.06.6-.12,3.38-.12,4V7.79c0,.53.09,2.83.12,3.28.06.69.09,1,.18,1.91-1.34-.06-4.65-.09-6-.09H482.7v2H486c1,0,6.56-.18,8.29-.36v2.89c-1.79-.09-6.5-.21-8.26-.21h-1.76a17.13,17.13,0,0,0,10.44,6.57Zm-13.07-23h-5.31V5.82h5.31Zm0,4.66h-5.31v2.47h5.31Zm8-4.66h-5.4V5.82h5.4Zm0,4.66h-5.4v2.47h5.4Z"/><path class="cls-1" d="M522.52,14.29a25.83,25.83,0,0,1-5-2.45V13.6a21.45,21.45,0,0,0-2.62-.2v3.52a54.27,54.27,0,0,0,7.22-.24v2.86a70,70,0,0,0-7.22-.24v3.64c0,1.44.74,1.7,1.73,1.7h3c.42,0,.69-.23,1-1.07a12.74,12.74,0,0,0,.69-2.51l2.57,2.24c-1.2,3.76-2,3.76-4.3,3.76h-4.48c-3.13,0-3.13-2-3.13-3.46V19.27h-3.76a8.91,8.91,0,0,1-3,6,12,12,0,0,1-4.86,2.48l-2.18-2.51c5.88-1,6.62-4,7.1-6-4.27.09-4.54.09-6.3.24V16.68a44.39,44.39,0,0,0,6.69.24,26,26,0,0,0,.09-3.52c-1.2.09-1.32.09-2.63.2v-2a18.88,18.88,0,0,1-4.92,2.95l-2.06-2.24a14.43,14.43,0,0,0,5.43-2.8c-1.82-1.64-2.57-2.24-3.37-2.84l2.12-1.88a25.37,25.37,0,0,1,3.4,2.78,16,16,0,0,0,2.71-3.85H504a21.06,21.06,0,0,0-2.9.3V1.13a25.24,25.24,0,0,0,2.63.18h3.16c1.08,0,2.06,0,2.78-.06l.59.69a1.18,1.18,0,0,1-.12.27L512.65.84a12.69,12.69,0,0,0,1.19,2.92,21.23,21.23,0,0,0,3.11-3l2.26,1.7a.68.68,0,0,1,.3.47c0,.27-.3.36-.48.36a5.93,5.93,0,0,1-.68-.09,27.76,27.76,0,0,1-3.11,2.66,16.22,16.22,0,0,0,1.53,1.76,22.66,22.66,0,0,0,4.05-3.94l2.36,2a.86.86,0,0,1,.36.6c0,.2-.18.38-.51.38a3.75,3.75,0,0,1-.71-.12,24.22,24.22,0,0,1-3.41,2.87,25.86,25.86,0,0,0,5.46,2.33Zm-12.44-12A20,20,0,0,1,504,10.86a25.37,25.37,0,0,0,3.64.15h5c.3,0,2.21-.06,3.49-.12C515,10,512.23,8,510.08,2.3ZM512,13.37h-3.43c0,1.88,0,3.16-.06,3.52H512Z"/><path class="cls-1" d="M544.78,14.35h-2.72a13.83,13.83,0,0,0,1.7,3.58,19.43,19.43,0,0,0,6.54-3.19l2.27,2.39a.39.39,0,0,1,.12.29c0,.09-.09.33-.45.33a9.37,9.37,0,0,1-1.23-.18c-.5.21-2.71,1.23-3.19,1.43-1.49.63-1.76.75-2.47,1a18.61,18.61,0,0,0,8.47,4.92l-1.58,2.69c-8.53-3.58-11-8.24-12.59-12.15a14.59,14.59,0,0,1-2.48,2.63v5.13c1.28-.3,4.21-.92,5.19-1.22L542,24.46c-1.76.54-3.55,1-8.5,2.18l-3.4.78c-.06.09-.27.54-.33.59a.67.67,0,0,1-.56.3c-.33,0-.36-.09-.48-.5l-.78-2.9a37,37,0,0,0,6.48-1.1v-4a27.82,27.82,0,0,1-6.51,2.48L526,19.78c2.33-.18,8-1.55,11.28-5.43h-1.55c-3,0-6,.06-9,.24V11.7c3.1.2,7.31.23,9,.23h3.07V9.67h-2.62c-.93,0-4.33.06-7,.18V7.37c2.44.09,5.6.15,7,.15h2.62V5.58h-2.65c-1.76,0-5.49.06-8.21.15V3.25c2.9.12,6.6.18,8.21.18h2.65c0-.18-.09-2.65-.12-3.07l3.4.42c.21,0,.42.12.42.38s-.06.24-.71.72c-.06.87-.06,1-.09,1.55h2.68c1.34,0,5.16-.06,8.24-.18V5.73c-2.39-.09-6.3-.15-8.24-.15h-2.68V7.52h1.43c1.16,0,4.38-.06,7-.15V9.85c-2.36-.12-5.82-.18-7-.18h-1.43v2.26h3c3,0,6.09-.06,9.13-.23v2.89C550.12,14.35,545.14,14.35,544.78,14.35Z"/></svg>