<svg xmlns="http://www.w3.org/2000/svg" viewBox="0 0 1715.91 408.58"><defs><style>.cls-1{fill:#fff;}</style></defs><g id="レイヤー_1" data-name="レイヤー 1"><path class="cls-1" d="M.14,1.73h24.8l49.86,117,48.9-117h24.89V181.24H122.27V69.29h-.6L85.28,155.5h-22L26.94,69.29h-.48v112H.14Z"/><path class="cls-1" d="M171.8,1.73H282.88v25.6H198.13V78.69h72.34V102.8H198.13v52.84h84.75v25.6H171.8Z"/><path class="cls-1" d="M305,1.73h60.84q35.31.25,53,30.29a55.07,55.07,0,0,1,8,21.18q1.31,11.07,1.31,38.29,0,28.94-2,40.38a46.37,46.37,0,0,1-2.86,10.34,96.33,96.33,0,0,1-4.89,9.24,61.51,61.51,0,0,1-21.23,20.93q-13.49,8.85-33,8.86H305ZM331.3,155.64h31.52q22.2,0,32.24-15.67a30.53,30.53,0,0,0,5.61-14.68q1.06-8.76,1.07-32.82,0-23.43-1.07-33.56-1.44-10.11-6.81-16.4-11-15.67-31-15.18H331.3Z"/><path class="cls-1" d="M450.68,1.73H477V181.24H450.68Z"/><path class="cls-1" d="M603,141.09H537.08l-13.35,40.15h-27.9L559,1.73h22.06l63.19,179.51H616.5ZM595.51,117,570.35,38.45h-.47L544.72,117Z"/><path class="cls-1" d="M702.94,1.73h63a98.11,98.11,0,0,1,19.82,2q9.54,2.6,19.33,10.59,8.22,6,13.35,17.23,5.35,10.85,5.36,25.61,0,20-13.61,36.32-14,17.24-40.84,17.72H729.26v70.07H702.94Zm26.32,83.86h39.07q14.7-.25,22.11-9.4a31.14,31.14,0,0,0,7-19.79q0-9-2.87-15.22a22.41,22.41,0,0,0-8.36-8.78,32.36,32.36,0,0,0-18.88-5.07H729.26Z"/><path class="cls-1" d="M841.81,1.73h67.94q21.72,0,35.46,11.82Q961.73,27,962.44,51.84q-.47,36.57-33.57,49.74l40.24,79.66H937.84l-36-76.71H868.14v76.71H841.81Zm26.33,78.69h39.93q14.82-.26,22.24-8.89,7.29-8,7.29-19.75-.24-14.07-8.73-20.37-6.69-5.55-19.37-5.56H868.14Z"/><path class="cls-1" d="M1091,141.09h-65.94l-13.35,40.15H983.79L1047,1.73h22.06l63.2,179.51h-27.78ZM1083.48,117l-25.16-78.53h-.48L1032.68,117Z"/><path class="cls-1" d="M1258.07,131.09q-5.73,25-21.83,38.35-16.59,13.27-39.25,13.28-20.51-.5-34.22-10.34-13.93-9.48-20.26-21.92c-1.27-2.71-2.43-5.29-3.46-7.76a51.59,51.59,0,0,1-2.38-9.6q-1.79-10.83-1.79-41.61,0-31.27,1.79-41.86t5.84-17.12q6.33-12.43,20.28-22.16Q1176.5.51,1197,.25q25.17.26,41,15.37a68.26,68.26,0,0,1,20,37.74h-28a39.75,39.75,0,0,0-11.7-18.5q-8.85-7.29-21.5-7.53a35.71,35.71,0,0,0-16,3.82,33.65,33.65,0,0,0-11,9.26,30.24,30.24,0,0,0-6.81,14.93q-1.9,9.61-1.91,36.15t1.92,35.9q1.67,9.37,6.81,15.17a30.91,30.91,0,0,0,11,9,30.17,30.17,0,0,0,16,4.07q22.23,0,33.22-24.55Z"/><path class="cls-1" d="M1316.12,25.85h-47.66V1.73h121.67V25.85h-47.69V181.24h-26.32Z"/><path class="cls-1" d="M1411.38,1.73h26.33V181.24h-26.33Z"/><path class="cls-1" d="M1583.83,131.09q-5.73,25-21.83,38.35-16.59,13.27-39.25,13.28-20.51-.5-34.21-10.34-13.95-9.48-20.27-21.92c-1.27-2.71-2.42-5.29-3.45-7.76a51.52,51.52,0,0,1-2.39-9.6q-1.79-10.83-1.78-41.61,0-31.27,1.78-41.86t5.85-17.12q6.32-12.43,20.27-22.16Q1502.26.51,1522.78.25q25.15.26,41,15.37a68.24,68.24,0,0,1,20,37.74h-27.94a39.85,39.85,0,0,0-11.71-18.5q-8.84-7.29-21.5-7.53a35.67,35.67,0,0,0-16,3.82,33.54,33.54,0,0,0-11,9.26,30.15,30.15,0,0,0-6.81,14.93Q1487,65,1487,91.49t1.91,35.9q1.68,9.37,6.81,15.17a31,31,0,0,0,11,9,30.14,30.14,0,0,0,16,4.07q22.21,0,33.22-24.55Z"/><path class="cls-1" d="M1604.77,1.73h111.07v25.6h-84.75V78.69h72.35V102.8h-72.35v52.84h84.75v25.6H1604.77Z"/><path class="cls-1" d="M1186.45,383.32l67-86.51a33.77,33.77,0,0,0,5.3-9.72,37,37,0,0,0,.94-8,26.73,26.73,0,0,0-6-17.37q-6.24-7.41-17.67-7.66a22.88,22.88,0,0,0-16.84,6.69q-7,6.67-8.25,18.83h-24.47q.93-22,14.34-36.44a45.26,45.26,0,0,1,33.28-14.29q22.11.25,35.86,14.57,14,14.19,14.23,36a50,50,0,0,1-10.34,31.07l-55.13,71.37h65.47v25.21h-97.71Z"/><path class="cls-1" d="M1302.42,383.32l67-86.51a33.53,33.53,0,0,0,5.3-9.72,37,37,0,0,0,.94-8,26.73,26.73,0,0,0-6-17.37q-6.24-7.41-17.67-7.66a22.88,22.88,0,0,0-16.84,6.69q-7,6.67-8.25,18.83h-24.47q.94-22,14.34-36.44A45.26,45.26,0,0,1,1350,228.83q22.11.25,35.87,14.57,14,14.19,14.22,36a49.91,49.91,0,0,1-10.34,31.07l-55.12,71.37h65.46v25.21h-97.71Z"/><path class="cls-1" d="M1416.51,310h72.25v25.2h-72.25Z"/><path class="cls-1" d="M1500.31,383.32l67-86.51a33.77,33.77,0,0,0,5.3-9.72,37,37,0,0,0,.94-8,26.73,26.73,0,0,0-6-17.37q-6.24-7.41-17.67-7.66a22.91,22.91,0,0,0-16.85,6.69q-6.94,6.67-8.24,18.83h-24.47q.93-22,14.34-36.44a45.26,45.26,0,0,1,33.28-14.29q22.11.25,35.86,14.57,14,14.19,14.23,36a50,50,0,0,1-10.34,31.07l-55.13,71.37H1598v25.21h-97.71Z"/><path class="cls-1" d="M1653.78,304.88h8.46q12.59,0,19.54-7.2,6.95-6.94,6.94-18-.24-11.2-7.17-18.4-6.94-6.94-17.87-7.2a22.26,22.26,0,0,0-14.35,5.24q-6.81,5.25-9.17,16.22h-24.57A52.24,52.24,0,0,1,1631,242.41a44.09,44.09,0,0,1,31.72-13.58q23.37.25,37.12,15.4a51.86,51.86,0,0,1,13.4,34.93,54.33,54.33,0,0,1-3.64,19.64q-4.24,9.46-15.16,16.86,11.16,7.27,16.13,17.46a50.12,50.12,0,0,1,4.73,21.34q-.24,24.85-14.91,39.17-14.44,14.67-37.1,14.91a46.11,46.11,0,0,1-31-11.62q-13.5-11.61-17.49-33.65h24.56a35.83,35.83,0,0,0,9.28,14.35q6.11,5.72,16.21,5.71a24.3,24.3,0,0,0,18.21-7.66q7.52-7.17,7.75-20.42-.22-13.5-7.75-20.91-7.4-7.17-18.79-7.17h-10.48Z"/><path class="cls-1" d="M65.91,301.75a59.06,59.06,0,0,1-21.33-13.1,48.68,48.68,0,0,1-6.23-7.35c.24,13.82.24,15.34.56,21.57H30.52c.24-3.19.64-18,.72-21.65A78.11,78.11,0,0,1,17.1,294.8c-6.15,4.72-9.43,5.92-12.31,6.95l-4.79-6c4.23-1.28,8.71-2.79,15.58-8.55,1.92-1.67,6.23-5.43,8.71-8.87-9.27.08-10.31.08-15.1.24.16-2.95.24-8.14.24-11.26v-9.27c0-2.56-.08-6.55-.24-9.11,2.48.16,13.34.24,15.58.24h6.47v-5H23.33c-7.83,0-15.58.16-23.33.64V237c8,.48,19.73.64,23.33.64h7.83c-.08-2.72-.08-3.44-.16-7.59l8.39.64c1.28.08,1.68.4,1.68,1,0,.87-.72,1.27-2.56,2.15,0,.56-.08,3.28-.08,3.76h8c7.91,0,15.74-.16,23.65-.64v7.83c-10.23-.64-22.69-.64-23.65-.64H38.35c-.08.8-.08,4.31-.08,5h6.15c4.72,0,11.27-.08,15.9-.32-.16,3.36-.24,6.71-.24,10.07v9.27c0,2.39.16,6.39.32,10.38-5.91-.16-11.18-.24-14.38-.24h-1.6c2.24,3.28,7.91,11.19,26.13,17.1ZM31.32,255H16.54v6.23H31.32Zm0,11.5H16.54v6.39H31.32ZM53.05,255H38.19v6.23H53.05Zm0,11.5H38.19v6.39H53.05Z"/><path class="cls-1" d="M124.56,245H101.63c-7.67,0-15.42.16-23.17.64v-7.83c8,.48,19.65.64,23.17.64h7.75c0-2.88-.08-5.6-.24-8.39l8.23.64c1.68.16,2.16.56,2.16,1.2,0,.87-1,1.35-2,1.83,0,1.6-.08,3.2-.08,4.72h7.11c7.83,0,15.66-.16,23.41-.64v7.83C137.9,245,125.44,245,124.56,245Zm-25,40.11c-6.31,6.79-10.06,9.58-14.78,12.38l-6.31-5.91c5-2.4,11.66-6.71,16.14-13.27l6.87,5c.56.4.8.64.8,1.12C102.27,285.38,101.47,285.3,99.55,285.14Zm22.85-10.79h-5.59V293.6c0,5.36,0,5.92-1.52,7.19-2.4,2-6.39,2.4-12.94,2l-2.72-8.15a66.52,66.52,0,0,0,7.19.72c2.32,0,2.32-.64,2.32-2.47V274.35h-5.67c-4.08,0-9.59.16-14.38.32.4-3.6.56-8.07.56-8.87v-7.11c0-2.64-.08-5.35-.24-8.07,4.55.16,6.63.16,14.54.16h18c6.71,0,11,0,15-.16-.08,2.32-.16,3-.16,8.55v7.11c0,.24.16,7.51.24,8.47C130,274.35,122.64,274.35,122.4,274.35Zm6.95-17H97.16v11h32.19ZM140.14,297a78.89,78.89,0,0,0-7.59-6.71,59.83,59.83,0,0,0-8.87-6.15l4.87-5.28a73.87,73.87,0,0,1,17.26,11.75Z"/><path class="cls-1" d="M223.71,277.47c-5,0-8.79-6.48-8.79-14.78,0-.88.4-4.56.4-5.28l-4.31.08a29.82,29.82,0,0,1-2.16,8.15c2.56,1.84,3.52,2.48,5,3.6L211,274.43a50.82,50.82,0,0,0-4.95-4.07,27.44,27.44,0,0,1-9,7.75l-5-4.4a18,18,0,0,0,9.19-6.55,40.28,40.28,0,0,0-4.07-2.24l2.79-4.55c1.84,1,2.64,1.36,3.92,2.16a20.28,20.28,0,0,0,1.28-4.8c-2.16.16-5.76.56-7.43.8l-.24-6c.88.08,5.75.32,8.15.24a56.92,56.92,0,0,0-.24-6.07h-6.79c.16-1,.56-4,.56-5v-1.28H186.4c.08,1.28.4,3.28.56,4.72h-7.35c0-.32,0-.32.08-.48-.24.08-.24.16-.48.24,0,.48-.08,1-.08,1.6h1.76c2.08,0,7.27-.4,9.83-.56v5.75c-1.44-.08-7.75-.56-9.83-.56h-1.76v3.76h3c2.79,0,10.3-.4,13.26-.56v5.83c-4.55-.24-7.75-.4-8.95-.48v2.88c0,1,.24,1.35,1.28,1.35h2.08c1.76,0,1.76-.8,1.76-3.43l5,1.28c-.32,6-2.24,6.47-6,6.47H186v2.24c-1.52-.16-5.51-.56-6.87-.56v2.87c6-.72,8.79-1.12,12-1.6l-1.52,4.64a270.73,270.73,0,0,1-28.36,3.43c-.48,1-.8,1.68-1.44,1.68s-.8-.64-1-1.28l-1.6-5.51c2.48,0,7,0,15.9-.72v-3.51a62.37,62.37,0,0,0-8,.56V267a23,23,0,0,1-5.27,2.16l-5.36-3.76c5-.8,8.87-2.24,10.71-5.75-2.16.08-5.11.24-9.51.48V254.3c2.24.16,10.55.56,13.26.56h4.16V251.1h-2.32c-1.36,0-3.59.16-9.82.56v-5.75c2,.16,7.83.56,9.82.56h2.32c-.08-.88-.16-1.92-.56-4.8l5.91.48a4.92,4.92,0,0,1,1.44.24,9.13,9.13,0,0,0,.16-2c-5.19,0-15.66.32-23.57.56V234.8c2.8.08,18.38.56,23.65.56,0-.8-.24-3.11-.56-5.35l6.15.56c.88.08,2.4.16,2.4,1,0,.72-1.12,1.35-1.6,1.67a14.69,14.69,0,0,0-.16,2.08h12.79a33.44,33.44,0,0,0-.56-5.35l6.15.56c.88.08,2.39.16,2.39,1,0,.72-1.11,1.35-1.59,1.67a14.69,14.69,0,0,0-.16,2.08c11.5-.24,12.94-.32,22.05-.56V241c-10.31-.32-12.39-.4-22.05-.56v1.28c0,.8.16,1.6.4,4l5,.64c1.2.16,2,.24,2,1,0,.31-.4.95-1.28,1.35-.08,1.36-.08,1.68-.16,4l1.52-.08a86.44,86.44,0,0,0,10.78-1.2c-2.15,5.51-2.79,8.07-2.79,11.27,0,4.71,1.91,7.83,2.87,7.83,1.2,0,1.36-5.12,1.36-6.16l5,4.32C229.62,271.15,228.43,277.47,223.71,277.47Zm-11.1,14.38c7,4.55,8.87,5.91,10.86,7.43l-4.71,5a49.45,49.45,0,0,0-5.59-4.39c-11.51,1-28.29,2.15-49.7,2.39-.64,1.36-.88,1.68-1.36,1.68s-.56-.08-1-1.2l-2.32-6.31c7.19.16,14.14.08,15.1.08,1.36-1.52,3.51-4.23,4-4.79-11.1.24-12.54.32-21.49.56v-5.84c1.6,0,18.54.48,23.49.48h24.13c4.39,0,15.18-.24,23.41-.48v5.84C222.51,292.09,217.56,291.93,212.61,291.85Zm-31.08-32.28H167.71l3,1.68a1.06,1.06,0,0,1,.72,1c0,.63-.8.71-1.6.71a11.83,11.83,0,0,1-2.23,2.24c1,0,4.15.08,5.43.08-.08-1.2-.32-2.95-.48-4.15l5.91.48c1,.08,2.32.24,2.32,1.12,0,.63-1.12,1.27-1.6,1.59,0,.32-.08.56-.08.88h2.4Zm18.21,24.61H184.56c-4.79,0-10.86.24-14.7.48v-6c2.16.08,11.67.56,14.7.56h15.18c2.8,0,9.67-.32,14.71-.56v6C212.69,284.5,202.86,284.18,199.74,284.18Zm3.52,9.26,1.28-1.75h-18.7c-1.12,1.28-2.87,3.35-3.91,4.71,7.91-.16,13.58-.48,24.45-1.12C205.26,294.56,204.46,294.16,203.26,293.44Z"/><path class="cls-1" d="M275.89,251.74c0,.88-.08,4.39-.08,5.11v23.81c0,3.84.48,18.22.64,22.21h-8.31c.16-3.67.72-19.89.72-23.17v-28a71.28,71.28,0,0,0-9.11.56,1.9,1.9,0,0,1,.72,1.36c0,1.28-1.2,1.28-1.68,1.28a6.18,6.18,0,0,1-1.2-.16,60.71,60.71,0,0,1-4.31,6.07c1.12.48,2.07.88,2.07,1.92,0,.63-.31.87-1.83,2.07-.08,3-.24,9.67-.24,12.63v11.1c0,.72.56,12.7.64,14.3h-8.31c.16-2.15.88-12.3.88-13.18V268.6a42.05,42.05,0,0,1-4.56,3.83l-6.15-4.23c8.71-5.67,15.82-16.06,17.5-20.3l5.67,3.84v-7.11a70.63,70.63,0,0,0,9.83.64v-3.44c0-1.91-.08-9.58-.08-11.5l8,.88c1.19.16,1.83.56,1.83,1.27,0,1-.56,1.2-2.47,2.16,0,1.84-.08,7.11-.08,10.63a73.82,73.82,0,0,0,10.38-.64v7.83A65.06,65.06,0,0,0,275.89,251.74Zm-18.3-14.22a4.06,4.06,0,0,1-1.36-.24,44.08,44.08,0,0,1-13.42,12.78l-6.31-4.79c7-3.44,13.18-10.07,15.34-14.54l6.31,3.83a2.07,2.07,0,0,1,1,1.6A1.47,1.47,0,0,1,257.59,237.52Zm4.87,51.93-7.35-1.92c3.68-7.27,4.64-17.25,4.64-24.45,0-2.15-.08-3.59-.08-4.79l7,1C267,269.08,266.06,282,262.46,289.45Zm40-48h-6.79a32.79,32.79,0,0,0-6.87.64v-2.24l-5.19,4.32c-3.28-4.47-4.64-5.75-6.55-7.35l5-4.16a24.73,24.73,0,0,1,6.71,7.12v-5.52a42.57,42.57,0,0,0,6.87.64h6.79a33,33,0,0,0,6.95-.64v7.83A38.18,38.18,0,0,0,302.41,241.43Zm-20.05,46.82a142.87,142.87,0,0,0-4.87-28.68l6.87-1.44A128.07,128.07,0,0,1,290,284.42Zm20.77-28.92v26.76c0,1.68.16,9.35,0,11-.48,5.59-5,5.59-12.62,5.51l-3.28-8.23a34.84,34.84,0,0,0,6.23.8c2.48,0,2.48-.48,2.48-5.35V259.25h-1.36a46.84,46.84,0,0,0-8.15.72v-7.83a60.77,60.77,0,0,0,8.15.64h8a47,47,0,0,0,8.23-.64V260A41.6,41.6,0,0,0,303.13,259.33Z"/><path class="cls-1" d="M385.43,301.67c-7.59-3.19-15.34-9.42-18.46-12.54a53.07,53.07,0,0,1-11.74-17.82,50.76,50.76,0,0,1-12,19.34c-6.07,6.31-11.5,9.11-17.81,11.66l-5.52-6.95c4.72-1.44,14.54-4.47,22.37-15.5a45.58,45.58,0,0,0,8.39-22.05H343.8c-7.51,0-15,.16-22.53.64v-7.83c7.75.56,19,.64,22.53.64h7.43c.24-3.83.4-7.19.4-10.79,0-4-.16-6.87-.24-8.86l9.27.95c.88.08,2.32.32,2.32,1.44s-1.92,1.76-3,2.16c0,1.68-.08,2.64-.32,11.19-.08,2.07-.08,3-.08,3.91h7.51c7.59,0,15.1-.08,22.69-.64v7.83c-9.75-.64-21.89-.64-22.69-.64h-7.27c1.52,18.54,18.06,32.6,31.4,36.35Z"/><path class="cls-1" d="M446.15,283.14H438.8v2.79c0,1.44.24,8.15.24,9.75,0,1.92,0,5-4.55,6.07a50.12,50.12,0,0,1-10,.4L421,293.68c1.36.24,7,1.12,7.75,1.12,2.4,0,2.56-1.67,2.56-5.27v-6.39h-9.67c-2.95,0-15.18.08-23.65.64v-7.67c9.43.64,23,.64,23.65.64h9.59a38,38,0,0,0-.88-8.47l5.27,1.28a65.55,65.55,0,0,0,6.56-5.68H424.74c-3.6,0-7.19.08-10.79.32V257c1.36.08,12.71.56,14.94.56h8.95c3.6,0,11.35-.4,14.7-.8l2.8,4.16c-1,1-6.39,5.91-7.43,6.95l-3.36,3.35L439,276.75h7.11c3.52,0,16-.08,23.89-.64v7.67C462.61,283.3,453.66,283.14,446.15,283.14Zm13.58-21.25c.16-4.8.24-5.36.16-10.55H408c0,.72,0,6.31.48,10.55h-9a47.36,47.36,0,0,0,.88-10.63c0-3.2-.16-5-.32-6.87,2.24.32,11.43.48,14.38.56a30.41,30.41,0,0,0-7-9.75l6.63-4c2.88,2.23,6,7,7.19,10.38L415.23,245c1.12,0,9.43.24,10,.24h14.86c.24,0,9.67-.24,10.63-.24l-4.88-2.24A35.38,35.38,0,0,0,452.22,231l7,2.87c.64.24,1.68.72,1.68,1.2,0,1.44-1.84,1.76-2.72,1.92a76.54,76.54,0,0,1-5,8c4-.08,9.91-.32,14.7-.64-.16,1.76-.32,4.23-.32,8.23a41.16,41.16,0,0,0,.72,9.35Zm-27.08-17.82a26.51,26.51,0,0,0-6.71-10.95l6.31-3.59a21.24,21.24,0,0,1,6.95,11Z"/><path class="cls-1" d="M574,301.67c-7.59-3.19-15.34-9.42-18.46-12.54a53.07,53.07,0,0,1-11.74-17.82,50.76,50.76,0,0,1-12,19.34c-6.07,6.31-11.5,9.11-17.81,11.66l-5.52-6.95c4.72-1.44,14.54-4.47,22.37-15.5a45.58,45.58,0,0,0,8.39-22.05h-6.87c-7.51,0-15,.16-22.53.64v-7.83c7.75.56,19,.64,22.53.64h7.43c.24-3.83.4-7.19.4-10.79,0-4-.16-6.87-.24-8.86l9.27.95c.88.08,2.32.32,2.32,1.44s-1.92,1.76-3,2.16c0,1.68-.08,2.64-.32,11.19-.08,2.07-.08,3-.08,3.91h7.51c7.59,0,15.1-.08,22.69-.64v7.83c-9.75-.64-21.89-.64-22.69-.64h-7.27c1.52,18.54,18.06,32.6,31.4,36.35Z"/><path class="cls-1" d="M634.71,283.14h-7.35v2.79c0,1.44.24,8.15.24,9.75,0,1.92,0,5-4.55,6.07a50.12,50.12,0,0,1-10,.4l-3.52-8.47c1.36.24,7,1.12,7.75,1.12,2.4,0,2.56-1.67,2.56-5.27v-6.39h-9.67c-2.95,0-15.18.08-23.65.64v-7.67c9.43.64,23,.64,23.65.64h9.59a38,38,0,0,0-.88-8.47l5.28,1.28a66.86,66.86,0,0,0,6.55-5.68H613.3c-3.6,0-7.19.08-10.79.32V257c1.36.08,12.71.56,14.94.56h8.95c3.6,0,11.35-.4,14.7-.8l2.8,4.16c-1,1-6.39,5.91-7.43,6.95l-3.36,3.35-5.51,5.52h7.11c3.52,0,16-.08,23.89-.64v7.67C651.17,283.3,642.22,283.14,634.71,283.14Zm13.58-21.25c.16-4.8.24-5.36.16-10.55H596.52c0,.72,0,6.31.48,10.55h-9a47.36,47.36,0,0,0,.88-10.63c0-3.2-.16-5-.32-6.87,2.24.32,11.43.48,14.38.56a30.41,30.41,0,0,0-7-9.75l6.63-4c2.88,2.23,6,7,7.19,10.38L603.79,245c1.12,0,9.43.24,10,.24h14.86c.24,0,9.67-.24,10.62-.24l-4.87-2.24A35.56,35.56,0,0,0,640.78,231l7,2.87c.64.24,1.68.72,1.68,1.2,0,1.44-1.84,1.76-2.72,1.92a76.54,76.54,0,0,1-5,8c4-.08,9.91-.32,14.7-.64-.16,1.76-.32,4.23-.32,8.23a41.16,41.16,0,0,0,.72,9.35Zm-27.08-17.82a26.51,26.51,0,0,0-6.71-10.95l6.31-3.59a21.24,21.24,0,0,1,7,11Z"/><path class="cls-1" d="M729.23,257.25c.32-3.91.32-6.79.32-11.26H696.71c0,6,0,8.07.24,11.26H689c.16-2.39.48-6,.48-11.18,0-2.08-.08-4.64-.24-6.95-3.75,8.94-4.31,10.38-5.51,13.1a36.25,36.25,0,0,1-2,4c5.12,7.67,7.27,11,7.27,18.14,0,10.47-6.15,12-11.26,12.54l-3.2-8c1.2.08,2.24.16,2.64.16,1.6,0,4.39,0,4.39-5.83,0-3.35-.72-5.35-2.63-8.79-2.32-4.23-2.8-4.95-4.4-7.51l7.91-17.73h-8.31v42.18c0,.8.24,6.31.24,7,.08,2.56.24,12.15.32,14.38h-7.27c.08-2.23.56-18.53.56-20.69V254.54c0-5.44-.16-16.46-.32-21.82,1,.08,5.51.24,6.47.24h8.31c.72,0,4.8-.16,5.91-.24l2.4,3c-.16.32-.88,2.24-1.44,3.36,2.56.16,8.87.48,11.35.48h8.71c-.16-6.16-.16-6.8-.32-9.19l8.86.72c.88.08,1.68.24,1.68,1.28,0,.87-.48,1.27-2.31,2.47,0,.72-.08,4.08-.08,4.72h9.5c.16,0,5.68-.08,10.55-.4-.16,2-.24,4.79-.24,8.94,0,3.92.08,6.48.24,9.19Zm.64,44.34h-6.71c-7.59,0-8.55-1.67-8.55-8.3V273.87h-5.83c-.4,10.39-2.4,15.26-5,19.26-4.23,6.23-9.74,8.86-18,10.3l-4.24-7.11c17.18-1,19.58-11.42,20.22-22.45-4.64.16-8.31.32-12.15.64v-7.83c5.59.48,13.74.64,16.3.64H722c5.51,0,11-.16,16.46-.64v7.83c-5.12-.48-11.35-.64-16.54-.64v17c0,2.63.24,3.51,2.32,3.51h4.71c1.6,0,2.32-.88,3.12-3a32.63,32.63,0,0,0,1.51-6.15l5.84,5.83C737.54,296.8,735.54,301.59,729.87,301.59Zm-12.22-41.54h-9.27a68.27,68.27,0,0,0-9.35.72v-7.91a67.91,67.91,0,0,0,9.35.72h9.27a53.71,53.71,0,0,0,9.5-.72v7.91A63,63,0,0,0,717.65,260.05Z"/><path class="cls-1" d="M762.15,285.06H757c.24,3.11.24,3.67.32,4.07.32,2.08.32,2.32.47,3.44h-8.62c.32-4.88.56-6.08.56-17.26V252.62c0-4.64,0-11.51-.16-16.06,1.27,0,7,.24,8.15.24h7.9c1.68,0,5.36,0,7.2-.08-.08,4.71-.08,10.78-.08,15.42v19.65c0,4.24.08,7.91.32,13.59C767.26,285.14,765.67,285.06,762.15,285.06ZM765.58,243H757v14.7h8.62Zm0,20.69H757V278.9h8.62ZM817.2,303a49.47,49.47,0,0,1-12.47-9.67,41.26,41.26,0,0,1-8.15-12.54c-1.43,3.84-6.63,17.58-24.68,22.77L766.54,297c4.32-.88,11.67-2.48,17.74-9.19a31.56,31.56,0,0,0,7.11-14.54h-5.51c-3.92,0-10.31.56-11.51.72V266.2c1.52.16,1.84.24,4.72.4v-11c0-3.91-.08-9.18-.16-13.18,3.51.32,9.58.56,10.54.56h3.68c-.08-6.95-.08-7.51-.4-12.54l8.07.88c1.68.16,2.32.8,2.32,1.51,0,1.28-1.76,1.68-2.32,1.84-.16,2.32-.16,4-.32,8.31h3.67c2.08,0,4.24,0,10.47-.4-.16,3.36-.24,7.51-.24,13v11.11c.8-.08,4.64-.4,5.43-.48V274a116.08,116.08,0,0,0-12.38-.72h-6.39c3.75,13,14.7,20.13,21.25,23Zm-30.84-53.85v17.74h6.15a154.89,154.89,0,0,0,.64-17.74Zm20.85,0h-7c-.08,2-.08,2.64-.16,8.23-.16,7.11-.24,7.83-.24,9.51h7.35Z"/><path class="cls-1" d="M893.74,300.16c-10-8-16.7-18.94-18.46-33.72a42.55,42.55,0,0,1-5.91,4.31c3.28,3.76,7.51,8.63,7.51,18.7,0,9.11-3.11,13.18-9.34,13.18a22.09,22.09,0,0,1-3.52-.24L861.14,295a73.8,73.8,0,0,1-11.58,5l-4.72-5.76c9-1.75,17.66-5.27,24.53-11.42-.32-.88-.48-1.52-1-2.88a56.73,56.73,0,0,1-20.29,9.75l-4.23-5.91a42.85,42.85,0,0,0,21.89-8.47,10.41,10.41,0,0,0-1.44-1.84,66.69,66.69,0,0,1-15.5,5.11l-4-6.07c9-.88,15.74-2.95,20.78-6.23-.56,0-12.79.24-16.54.4a63.55,63.55,0,0,0,.48-8.15V255c-.4.31-.56.39-1.12.79l-4.55-4c-.24.48-.4.56-2.08,1.28v25.4c0,5,.08,14.63.64,24.13h-8c.88-9.66,1.12-18.93,1.12-24v-16c-1.52,2.15-2.72,3.51-3.92,5L825,264c9.91-10.38,14.78-22.93,17.18-33.55l7.43,3.43c.88.4,1.12.64,1.12,1,0,.64-.48,1-2.56,1.28a124.87,124.87,0,0,1-5.51,13.82l1,.88c4.55-2.16,14.38-9.11,20-20.93l7.19,3.27c1,.48,1.2.72,1.2,1.2,0,.8-.88,1-3.2,1-1,1.44-1.19,1.84-1.59,2.48h5.59a101.52,101.52,0,0,0,11.18-.56l1.84,1.76c-.72,1-7.11,9.74-7.35,10,6,0,12-.08,18-.48-.32,2.64-.48,5.68-.48,6.87v5.52a43.49,43.49,0,0,0,.4,5.43c-4.8-.08-5.84-.08-15.18-.24a46.07,46.07,0,0,0,3.35,11.43,79.13,79.13,0,0,0,7.59-8.07l5.36,5a1.8,1.8,0,0,1,.79,1.2c0,.8-1.11,1-3.19.8a76.69,76.69,0,0,1-8,5.91,40.91,40.91,0,0,0,13.26,12.78ZM868.81,254.3H856.35v6.79h12.46Zm-5.59-11.43a58.87,58.87,0,0,1-6.15,6.31h13.34c.64-.88,3.84-5.27,4.55-6.31Zm-2,52.09c3.84.8,4.8,1,6.63,1,1.2,0,2.64,0,2.48-7A51.88,51.88,0,0,1,861.22,295ZM889,254.3H875.6v6.79H889Z"/><path class="cls-1" d="M924.9,239.52a92.45,92.45,0,0,1-2.63,16.61h5c.24,0,5.19-.16,6.87-.32-.32,4.64-.48,10.95-.48,12.15v10.78c0,4.08.08,5.84.32,12.95-3.43-.16-6.31-.32-9.51-.32h-4a76.13,76.13,0,0,0,.4,9.66h-7.91c.8-7.19.8-16.77.8-21.81v-3c-.72,1.2-1.12,1.68-2.24,3.43l-7.27-3.83c6.79-8.79,12.3-18.94,13.74-36.35a64.67,64.67,0,0,0-9.91.63v-7.82a64.28,64.28,0,0,0,9,.71h8.87a49.42,49.42,0,0,0,9-.71v7.82A68.33,68.33,0,0,0,924.9,239.52Zm2.24,23h-6.71V285h6.71Zm43,1.19v5.12c0,6.31.24,22.53.56,33.71h-8.87c.88-15.66.88-22,.88-33.63v-5.28h-9.42c-.24,9.35-.56,28.13-14.63,39.39L932,297.36c5.44-3.36,9.19-7.19,11.75-15.26,1.91-6.07,2.24-10.31,2.39-18.38-1.35,0-5.43.16-9.82.56v-7.83c3,.32,3.27.32,9.9.56V239.52c-4.79.16-7,.24-8.3.31v-7.27c1,0,11,.32,14.62.32h10.62c4.4,0,11.75-.08,15.26-.32v7.27c-3.59-.15-4.07-.15-8.31-.31V257c1,0,5.44-.16,9.43-.56v7.83C975.56,263.88,971.8,263.8,970.12,263.72Zm-7.43-24.2h-9.42v17.57h9.42Z"/><path class="cls-1" d="M1046.75,301.19h-6.32c-4,0-9.42,0-9.42-7,0-3.67,1.75-16.29,2.39-20.69l-12,.8c-4.31,20.85-22.29,26.21-27.32,27.64l-6-6.55c8.95-1.76,21.57-6.23,25.41-20.61l-2.8.16c-9,.48-13.42,1-17.81,1.52l-.56-7.43c4.39.08,8.63.08,15.82-.24l6.47-.32c.4-5.2.32-8.23.32-10.23l9.19,1.84c.64.16,1.43.24,1.43,1,0,1.12-1.35,1.36-2.39,1.52-.32,2.79-.4,3.83-.64,5.51l2-.16c2.71-.24,14.94-1.12,17.49-1.36a110.7,110.7,0,0,0-2.15,13.58l-1.28,11.11a2.5,2.5,0,0,0,.8,2.47c.48.4,1.43.48,2.87.48h3.6c2,0,3.91,0,6.15-10.62l6.63,5.11C1055.53,301.11,1051.7,301.19,1046.75,301.19Zm3.19-42.74c-.8,1.68-2.48,4.16-7,4.16H1032.6c-7.19,0-7.51-3.76-7.51-6.72V245.83h-29c0,4.07,0,8.23.24,12.22h-7.75c.16-1.92.4-4.71.4-10.31,0-4.47-.08-6.47-.16-8.54,6.63.48,13.26.63,19.9.63h10.46c0-1.43-.24-7.82-.32-9.1l8.47.88c1,.08,1.84.24,1.84,1.27s-1.28,1.52-2.16,1.84c-.16,1.52-.24,3.6-.32,5.11h8.71c4.48,0,16.62-.23,20.85-.47-.16,2-.32,4.63-.32,8.38,0,4,.24,7.43.4,10.71Zm-33.15-7.11a29.56,29.56,0,0,1-14.15,13.18l-6.15-5.67c8-2.32,13-6.87,14.94-12.3l6.47,2c.88.24,1.84.48,1.84,1.44S1019.42,250.94,1016.79,251.34Zm15.42-5.51v7.91c0,1,0,2.71,2.39,2.71h6.07c2.08,0,3.52-.08,4.72-5.91l3.19,2v-.8c.08-.4.24-5,.24-5.91Z"/><path class="cls-1" d="M1099.8,237.44a4.68,4.68,0,0,1-1.52-.32c-3.59,1.2-6.23,2-9.43,2.8V252a96.3,96.3,0,0,0,11.51-.64v7.83a99.66,99.66,0,0,0-11.27-.64c1.84,4.47,4.56,8.39,11.11,15l-4.63,6.23a67.54,67.54,0,0,1-6.72-8.71v9.35c0,2.48.16,13.1.24,15.26.08,3,.16,4.88.24,7h-8c.48-4.71.72-8.87.72-22V271a76.32,76.32,0,0,1-9.66,15.34l-7-4.63A49.44,49.44,0,0,0,1075,270a44.94,44.94,0,0,0,5.12-11.43h-1.28a103.66,103.66,0,0,0-10.79.64v-7.83a87.52,87.52,0,0,0,10.79.64h3.27V241.27c-4.63.64-6.71.8-10.3,1.2l-5.52-7.27c2.16.16,2.56.16,3.92.16,9.27,0,20.21-2.64,24.69-4.79l5.59,5.11c.4.4.56.64.56,1S1100.84,237.44,1099.8,237.44Zm30.68,36.27v2.8c0,8,.24,18.29.8,26.2h-8.23c.4-9.74.56-12.86.56-25.16v-1.68l-7.11,2.24c-3.28,1-12.31,4.23-13.34,4.63l-2.72-6.71c4.87-1.2,9.75-2.64,14.62-4.08l8.55-2.55V249.66c0-13.82-.08-14.78-.56-19.81l7.91.72c.64.08,1.52.16,1.52,1s-1,1.35-1.76,1.67c-.24,4.16-.24,12.07-.24,16.54v17.58a98.58,98.58,0,0,0,10.55-3.84l2,6.4C1140.87,270.59,1132.16,273.15,1130.48,273.71Zm-17.18-5.11a28.08,28.08,0,0,0-11.34-9.75l4.55-5.27a30.77,30.77,0,0,1,11.43,9.34Zm1.84-18.06a34.79,34.79,0,0,0-11-10.07l4.72-4.95c6.79,3.92,9.51,7.43,11,9.43Z"/><path class="cls-1" d="M53.19,345.08c-3.59,9.19-5.43,13.71-6.94,17.22A58.53,58.53,0,0,1,42.66,369c9,8.69,10,9.95,12.12,13.29l-6.27,6.44a88.26,88.26,0,0,0-10.79-12.88,121.38,121.38,0,0,1-27,24l-8.44-6.61c5.76-1.5,10.61-5,15.3-8.69a78.58,78.58,0,0,0,14.13-14.21A108,108,0,0,0,17.07,360l4.6-7.1A117.37,117.37,0,0,1,36.3,363.39c3.6-6.19,8.7-17.73,8.78-25.5l8.86,3.76c1.59.67,1.84,1.17,1.84,1.59C55.78,344.49,54.19,344.91,53.19,345.08Z"/><path class="cls-1" d="M105.59,364.27h-4.4C101,371.06,99,384,92.73,390.56A32.42,32.42,0,0,1,76,400.22l-6.79-6.31c23-4.87,23.73-19.25,23.88-29.64h-8.3c-7.12,0-14.15.16-21.18.64v-7.83c7.27.56,17.9.64,21.18.64h20.85c7.11,0,14.3-.08,21.41-.64v7.83C117.73,364.27,106.47,364.27,105.59,364.27Zm-3.68-19.73H88.25a134.52,134.52,0,0,0-13.74.71v-8.46c4.79.48,11.66.64,13.74.64h13.66a134.88,134.88,0,0,0,13.91-.64v8.46C109.82,344.62,102.39,344.54,101.91,344.54Zm27.33,6a77.49,77.49,0,0,0-9.67-6.39l2.88-4.64a29.13,29.13,0,0,1,9.66,6.63ZM132.67,340a36.54,36.54,0,0,0-9.18-5.75l3-4.79c1.76.79,6.31,2.87,9.35,5.75Z"/><path class="cls-1" d="M172.86,356.28a2.88,2.88,0,0,0-2.31,1,82,82,0,0,1-12.07,11v22.85c0,2.64.4,9.91.56,13h-7.27c.24-4.88.4-8.07.4-12.79V372.82A124.58,124.58,0,0,1,134.67,383l-6.55-5.68c8.07-3.11,14.46-5.59,25-13.66a66.26,66.26,0,0,0,14.7-15l5.51,4.39c.64.56,1.6,1.36,1.6,2.16S174.46,356.12,172.86,356.28Z"/><path class="cls-1" d="M244.61,352.5c-7.25,10.14-10.38,14.51-18.13,21.1L220,367.75c7.75-4.62,13.85-11.95,19-20.85h-32.8c-6.35,0-16.15.25-24.23.58V340c6.51.41,16.48.57,23.82.57h19.69a141.08,141.08,0,0,0,19-1.56l6.1,7.5C248.73,347.31,248.16,347.56,244.61,352.5Zm-25.87,3.38c-1.32,14.09-2.89,30.66-21.93,45l-8.07-5.19A44.45,44.45,0,0,0,204,381.18c4.78-7.41,6-14.67,6-24.14,0-1.82,0-3.14-.17-5.94l8.91.91c1.81.16,2.22,1.23,2.22,1.81C221,354.65,220.71,354.73,218.74,355.88Z"/><path class="cls-1" d="M269.82,387.28h-5.19c.24,3.12.24,3.68.32,4.07.32,2.08.32,2.32.48,3.44H256.8c.32-4.87.56-6.07.56-17.26V354.84c0-4.63,0-11.5-.16-16.06,1.28,0,7,.24,8.15.24h7.91c1.67,0,5.35,0,7.19-.08-.08,4.72-.08,10.79-.08,15.42V374c0,4.23.08,7.91.32,13.58C274.93,387.36,273.34,387.28,269.82,387.28Zm3.44-42.1h-8.63v14.7h8.63Zm0,20.69h-8.63v15.26h8.63Zm51.61,39.39a49.94,49.94,0,0,1-12.47-9.67,41.5,41.5,0,0,1-8.15-12.54c-1.43,3.83-6.63,17.57-24.68,22.77l-5.36-6.56c4.32-.87,11.67-2.47,17.74-9.18a31.55,31.55,0,0,0,7.11-14.54h-5.51c-3.92,0-10.31.55-11.51.71v-7.83c1.52.16,1.84.24,4.72.4v-11c0-3.92-.08-9.19-.16-13.18,3.51.32,9.59.56,10.54.56h3.68c-.08-7-.08-7.51-.4-12.55l8.07.88c1.68.16,2.32.8,2.32,1.52,0,1.28-1.76,1.68-2.32,1.84-.16,2.31-.16,4-.32,8.31h3.67c2.08,0,4.24,0,10.47-.4-.16,3.35-.24,7.51-.24,13v11.1c.8-.08,4.64-.4,5.43-.48v7.83a116.5,116.5,0,0,0-12.38-.71h-6.39c3.75,13,14.7,20.13,21.25,23ZM294,351.41v17.73h6.15a154.8,154.8,0,0,0,.64-17.73Zm20.85,0h-6.95c-.08,2-.08,2.63-.16,8.23-.16,7.11-.24,7.83-.24,9.5h7.35Z"/><path class="cls-1" d="M401.41,402.38c-10-8-16.7-18.94-18.45-33.72A44.19,44.19,0,0,1,377,373c3.28,3.75,7.51,8.63,7.51,18.69,0,9.11-3.11,13.19-9.34,13.19a22.09,22.09,0,0,1-3.52-.24l-2.88-7.35a74.63,74.63,0,0,1-11.58,5l-4.71-5.75c9-1.76,17.65-5.28,24.52-11.43-.32-.88-.48-1.52-1-2.87a56.41,56.41,0,0,1-20.29,9.74L351.56,386a42.72,42.72,0,0,0,21.89-8.47A10,10,0,0,0,372,375.7a67.49,67.49,0,0,1-15.5,5.11l-4-6.07c9-.88,15.73-3,20.77-6.24-.56,0-12.79.24-16.54.4a63.45,63.45,0,0,0,.48-8.15v-3.51c-.4.32-.56.4-1.12.8l-4.55-4c-.24.48-.4.56-2.08,1.28v25.41c0,4.95.08,14.62.64,24.13h-8c.88-9.67,1.12-18.94,1.12-24v-16c-1.52,2.16-2.72,3.51-3.92,5l-6.71-3.67c9.91-10.39,14.78-22.93,17.18-33.56l7.43,3.44c.88.4,1.12.64,1.12,1,0,.63-.48.95-2.56,1.27a125.38,125.38,0,0,1-5.51,13.83l1,.87c4.55-2.15,14.38-9.1,20-20.93l7.19,3.28c1,.48,1.2.72,1.2,1.2,0,.8-.88,1-3.2,1-.95,1.43-1.19,1.83-1.59,2.47h5.59a101.52,101.52,0,0,0,11.18-.56l1.84,1.76c-.72,1-7.11,9.75-7.35,10,6,0,12-.08,18-.48-.32,2.63-.48,5.67-.48,6.87v5.51a43.37,43.37,0,0,0,.4,5.43c-4.8-.08-5.83-.08-15.18-.24a46.5,46.5,0,0,0,3.35,11.43,77,77,0,0,0,7.59-8.07l5.36,5a1.78,1.78,0,0,1,.8,1.2c0,.8-1.12,1-3.2.8a72.91,72.91,0,0,1-8,5.91A41,41,0,0,0,408,397.59Zm-24.93-45.86H364v6.79h12.46Zm-5.59-11.42a59.84,59.84,0,0,1-6.15,6.31h13.34c.64-.88,3.84-5.28,4.56-6.31Zm-2,52.09c3.84.8,4.8,1,6.64,1,1.19,0,2.63,0,2.47-7A52.47,52.47,0,0,1,368.89,397.19Zm27.81-40.67H383.28v6.79H396.7Z"/><path class="cls-1" d="M465.81,386.4V393c0,7.67-.08,8.47-1.44,9.91-2.24,2.24-5.27,2.24-7.35,2.24a28.45,28.45,0,0,1-4.71-.24l-3.92-8.87a16.06,16.06,0,0,0,7.19,1.28c2.8,0,3-.4,3-4.88V386.4H436c-4.32,0-16.14.16-24.69.4v-6.71c7.67.24,18.86.48,24.69.48h22.53v-4.8H439.6c-5.35,0-7,0-17.49.32.08-2,.4-8.38.4-10.46v-4.8c0-3.59-.16-8.78-.4-12.38,4.47.32,15.26.4,16.46.4h5.51V344.7h-7.67c-4.16,0-15.42.16-23.49.48v-6.8c7.27.32,17.9.48,23.49.48h7.67a44,44,0,0,0-.56-6.39l7.75.48c1.44.08,2.71.56,2.71,1.68s-1.43,1.76-2.63,2.4a10.75,10.75,0,0,0-.08,1.83h7.67c4.95,0,15.74-.16,23.41-.48v6.8c-7.11-.32-18.78-.48-23.41-.48h-7.75v4.15H457c3.76,0,12.3-.08,16-.24-.08.64-.4,3.84-.48,4.47v12.79c0,5.11,0,5.59.16,10.3-1.44-.16-1.92-.16-2.4-.24h-4.47v4.56c4.71-.08,12.14-.16,18.14-.4v6.71C478.19,386.64,470.84,386.48,465.81,386.4Zm-27.56,16.06c-2.4-3.68-2.64-4.07-4.64-6a24.77,24.77,0,0,0-6.87-4.8l5.27-4.95a47.5,47.5,0,0,1,12,9.83Zm5.83-47.78h-14.3v5.12h14.3Zm0,10.63h-14.3v4.87h14.3Zm21.17-10.63H451.19v5.12h14.06Zm0,10.63H451.19v4.87h14.06Z"/><path class="cls-1" d="M509.92,383.84c-11.75,2.48-13.11,2.72-14.71,3.12-.31.64-1.19,2.56-2.15,2.56-.4,0-1-.48-1.28-1.68l-1.68-8.39c3.6,0,4.56-.16,13.26-1.6V349.49a112,112,0,0,0-11.66,1v-7.67a107.14,107.14,0,0,0,10.79.24h10.14c1.68,0,8.79-.32,10.31-.32v6.95c-2.88-.16-4.16-.16-11.91-.16v27c1.52-.24,8.39-1.59,9.83-1.83a23,23,0,0,0,3-.72v6.55C521.5,381.13,517.67,382.25,509.92,383.84Zm49.77,21.34A49.69,49.69,0,0,1,541,394.07c-6.07,5.59-14.22,10.63-30,11.59l-3.67-7.75c13.26-.08,21.49-2.48,28.84-9.19-5.67-7.75-8.63-20.46-9.27-25a22.7,22.7,0,0,1-3.11,4l-7.59-4.56a52.83,52.83,0,0,0,15.34-31.32l8.71,1.92c.47.08,1.43.4,1.43,1.2s-.24,1-2.55,1.84c-.88,2.39-2.32,6.31-3.44,9.5h11.51c.32,0,11.42-.48,16.22-.8v7.2c-1.76-.08-2.56-.16-7.52-.16-1.75,22.77-5.67,30.36-9.82,35.87a36.42,36.42,0,0,0,17.89,9Zm-26.52-52.57c-1.84,3.75-2.24,4.39-4.4,8.14l5.75-2.47c.72,13.5,3.92,20.05,6.71,24.37,3.84-6.32,6.16-18.46,6.88-30Z"/><path class="cls-1" d="M648.78,386.64h-3.6c.32,11.11.48,14.06.8,18.54h-9.43c.48-4.08.48-5.12.88-18.54H622.57c-7.43,0-14.78.24-22.13.72v-7.91c4.39.32,5.59.32,16,.64V371.3c0-4.71-.24-8.07-.48-10.63,7.43.24,9.59.32,17,.32h4.55V350.21h-18c-5.6,6.15-8.71,7.91-11.35,9.35L601.8,354c6.87-3.75,15.5-9.26,20.69-22.61l7.43,3.84c.48.24,1.2.8,1.2,1.36,0,1.19-1.92,1.12-3,1-1.59,2.63-2.23,3.59-3.75,5.91h17.66c8.38,0,16.77-.08,25.16-.64v7.43c-6.23-.08-16.06-.08-22.21-.16V361c12.54-.16,14-.16,18.54-.63v7.51c-6.95-.32-8-.32-18.54-.48v12.78h3.76c8.07,0,16.22-.16,24.28-.72v7.91C662.6,386.64,649.74,386.64,648.78,386.64Zm-11.27-19.25H623.69v12.78h13.82Z"/><path class="cls-1" d="M684.81,397.75v1.75a.9.9,0,0,1-1,1,1.34,1.34,0,0,1-1.27-.64l-6-6.71c3.76-3,17.5-22.21,19.26-25.16l4.23,5.83C699,376,686.09,396.07,684.81,397.75Zm6.55-43.23a45.28,45.28,0,0,0-12.22-10.06l4.07-6.71a33.38,33.38,0,0,1,12.71,10.06ZM742.42,405c-9.27-4.16-18.22-13.11-23.73-26.45-4.56,12.86-11.67,22.21-27.41,25.89l-5-6.95c4.63-.72,10.71-2,16.54-6.79,8.55-7,11.5-20,11.5-28.53a35,35,0,0,0-.4-5.19l8.55,1.2c1.68.24,2.16.32,2.16,1.28,0,.72-.24.88-2.16,2.23a12.44,12.44,0,0,0-.16,2.08c0,4.47,2.88,15.74,10.31,24,5.19,5.75,12.54,9.19,15.58,10.63ZM737.62,366a39.61,39.61,0,0,0-1.91,3.75l-7.59-3.27c2.71-3,5.35-8.39,7.59-12.87H712.22a44.8,44.8,0,0,1-10.63,13.27l-7.51-4.8c12.7-7.91,16.14-21.65,16.7-29.72l8.71,2.4c.56.08,1.28.32,1.28,1.28a1.34,1.34,0,0,1-.48,1.12,13.61,13.61,0,0,1-2.08.79,79.36,79.36,0,0,1-3,9.11h12.87c5.11,0,10.22-.32,15.34-.8l2.95,3.92C744,354.6,740,361.55,737.62,366Z"/><path class="cls-1" d="M818.72,363.79c.88.4,1.36.64,1.36,1.44a1,1,0,0,1-.88.88,5,5,0,0,0-1.84.56c-.32.64-.72,1.52-4,9.19a51,51,0,0,1-6.39,10.7c1.91,3.12,5.75,9.43,8.46,9.43,1.6,0,4.64-4.32,6.16-10.15l5.83,6.55c-2.32,6.39-7.11,13.51-10.95,13.51-3.27,0-9.43-5-15-13.19-5.51,5.2-11.74,9.75-19,11.91l-6-6.71c5.11-1,12.78-3.28,21.09-11.83-4.88-9.51-6.63-21.89-7.83-32H767.67v10.63H786c-.08,2-.16,10.79-.32,12.54-1.67,17-6.55,17.9-14.14,17.9a5.13,5.13,0,0,1-2.16-.24l-2.15-8.23c3.75.8,4.87,1,6.31,1,4.47,0,5.19-10.07,5.19-14a12.52,12.52,0,0,0-.16-2.4H767.67c.16,8-3,24.13-7.19,31.08l-7.35-3.28A44.24,44.24,0,0,0,758.48,385a101.87,101.87,0,0,0,2.32-20.45A99,99,0,0,0,759,346.45c3.67.72,6.31.8,18.77.8H789c-.72-8.79-.8-11.58-1-14.78l8.39.56c1,.08,2.16.16,2.16,1.36a1,1,0,0,1-.48.88c-.56.48-1.44,1.2-1.68,1.44.08,5.51.08,7.91.24,10.54h9.67c1.91,0,13-.24,17.09-.88v8.31c-8.63-.56-17.17-.64-17.57-.64h-8.79c.56,6.87,1.2,15.5,5.83,25a63.13,63.13,0,0,0,7.51-19.17Zm-8.23-17.34a24.67,24.67,0,0,0-8.23-9.58l5.75-4.56c6.71,5,7.91,8.15,8.47,9.51Z"/><path class="cls-1" d="M898.94,402.22c-5.12-1.68-18.54-6.15-27.81-18.93.16,7.35.32,14.7,1.12,22h-9.58c.71-7.27.79-11.43,1-20.94-8.94,10.07-19.09,16.22-26.28,18.54l-5.83-6.79a53.29,53.29,0,0,0,17-7.83,49,49,0,0,0,11.19-10.79h-5.43c-5,0-16.54.24-21,.88v-7.75c6.32.32,11.67.64,21.34.64h9.26V366h-6.79c-1.28,0-7.11.16-8.31.16-3.91,0-5.11.08-7.27.16.8-3.28.72-10.31.72-11.75v-8.31a72.23,72.23,0,0,0-.64-11.82c2.16.16,3.44.16,5.28.24s9.5.08,11.1.08h16.86c12.38,0,12.78-.08,18-.4-.16,1.6-.32,9-.32,10.79v7.19c0,1.43.24,7.59.32,8.78.16,1.84.24,2.72.47,5.12-3.59-.16-12.46-.24-16.13-.24H871v5.27h8.87c2.64,0,17.58-.48,22.21-1V378c-4.79-.24-17.41-.56-22.13-.56h-4.71a46,46,0,0,0,28,17.58Zm-35-61.68H849.72V347h14.22Zm0,12.46H849.72v6.64h14.22Zm21.5-12.46H871V347h14.47Zm0,12.46H871v6.64h14.47Z"/><path class="cls-1" d="M976.92,369.7a68.89,68.89,0,0,1-13.42-6.55v4.72a53.21,53.21,0,0,0-7-.56v9.42c13.58-.08,14.3-.08,19.33-.64v7.67c-4.79-.47-6.23-.47-19.33-.63v9.74c0,3.84,2,4.56,4.63,4.56h8.07c1.12,0,1.84-.64,2.79-2.88a34.23,34.23,0,0,0,1.84-6.71l6.87,6c-3.19,10.07-5.35,10.07-11.5,10.07h-12c-8.38,0-8.38-5.36-8.38-9.27V383.05H938.73c-.72,4.71-1.92,10.86-8.15,16.13a32,32,0,0,1-13,6.64l-5.84-6.72c15.74-2.63,17.74-10.62,19-16.05-11.43.24-12.15.24-16.86.63v-7.59c4,.48,5.35.64,17.9.64a69.65,69.65,0,0,0,.24-9.42c-3.2.24-3.52.24-7,.56v-5.44a50.16,50.16,0,0,1-13.19,7.91l-5.51-6a39,39,0,0,0,14.54-7.51,111.23,111.23,0,0,0-9-7.59l5.68-5c2.47,1.43,6.55,5,9.1,7.43a43.06,43.06,0,0,0,7.28-10.31h-6.64a56.52,56.52,0,0,0-7.75.8v-7.67a67.81,67.81,0,0,0,7,.48H935c2.88,0,5.52-.08,7.43-.16l1.6,1.84a3.14,3.14,0,0,1-.32.72l6.79-3.68a33.15,33.15,0,0,0,3.2,7.83,55.89,55.89,0,0,0,8.31-8l6.07,4.55a1.8,1.8,0,0,1,.8,1.28c0,.72-.8,1-1.28,1a16,16,0,0,1-1.84-.24,72.37,72.37,0,0,1-8.31,7.11,41.81,41.81,0,0,0,4.08,4.72c1.92-1.36,8.63-7.11,10.86-10.55l6.32,5.35a2.3,2.3,0,0,1,1,1.6c0,.56-.47,1-1.35,1a10.58,10.58,0,0,1-1.92-.32c-2,2.32-5.51,4.95-9.11,7.67,4.08,2.64,9.43,4.47,14.62,6.23ZM943.6,337.58c-1.68,4.4-5,13.11-16.3,22.94a71.59,71.59,0,0,0,9.75.39h13.42c.8,0,5.92-.16,9.35-.32C956.62,358.2,949.35,352.77,943.6,337.58Zm5.2,29.65h-9.19c.08,5-.08,8.47-.16,9.42h9.35Z"/><path class="cls-1" d="M1037.56,369.86h-7.27a36.38,36.38,0,0,0,4.56,9.59c5.27-1.52,13.42-4.87,17.49-8.55l6.08,6.39a1.15,1.15,0,0,1,.31.8c0,.24-.23.88-1.19.88a25,25,0,0,1-3.28-.48c-1.36.56-7.27,3.28-8.55,3.84-4,1.67-4.71,2-6.63,2.63,6.15,6.47,14.14,10.71,22.69,13.19l-4.23,7.19c-22.85-9.59-29.49-22-33.72-32.52a39.4,39.4,0,0,1-6.63,7v13.74c3.43-.8,11.26-2.48,13.9-3.27l-1,6.63c-4.71,1.44-9.51,2.55-22.77,5.83-1.44.32-7.83,1.76-9.11,2.08-.16.24-.71,1.43-.87,1.59a1.79,1.79,0,0,1-1.52.8c-.88,0-1-.24-1.28-1.35l-2.08-7.75a99.5,99.5,0,0,0,17.34-3V384.56c-4.16,2.16-11.43,5.44-17.42,6.63l-5-6.79c6.23-.48,21.41-4.15,30.2-14.54h-4.16c-8.06,0-16.13.16-24.12.64v-7.75c8.31.56,19.57.64,24.12.64h8.23v-6.07h-7c-2.47,0-11.58.16-18.61.48v-6.63c6.55.24,15,.4,18.61.4h7v-5.2h-7.11c-4.71,0-14.7.16-22,.4v-6.63c7.75.32,17.66.48,22,.48h7.11c-.08-.48-.24-7.11-.32-8.23l9.11,1.12c.56.08,1.12.32,1.12,1,0,.56-.16.64-1.92,1.92-.16,2.31-.16,2.79-.24,4.15h7.19c3.6,0,13.83-.16,22.06-.48v6.63c-6.4-.24-16.86-.4-22.06-.4h-7.19v5.2h3.84c3.11,0,11.74-.16,18.69-.4v6.63c-6.31-.32-15.58-.48-18.69-.48h-3.84v6.07h8.15c8.15,0,16.3-.16,24.45-.64v7.75C1051.86,369.86,1038.52,369.86,1037.56,369.86Z"/><path class="cls-1" d="M1138.23,366.19a69.17,69.17,0,0,1-14-6.31v4.55a114.46,114.46,0,0,0-12.78-.48h-12.86a111.82,111.82,0,0,0-12.79.48v-4.87c-6.87,4.55-10.07,5.67-12.62,6.63l-5.83-6.63c7.11-2.16,12.7-4.24,20.29-10.47,5.75-4.71,11-10.15,14.06-17L1110,335c.8.24,1.36.72,1.36,1.52,0,.64-.64,1.11-1.36,1.35,2.24,5.36,14.7,17.1,33.32,21.26Zm-26.76,12.3h-6.71a63.39,63.39,0,0,1-8.47,15.42c6.15-.48,14.62-1.52,22.93-2.64a53.1,53.1,0,0,0-7-6.15l6.07-4.15a62.16,62.16,0,0,1,15.9,19l-6.07,5a33.7,33.7,0,0,0-4.32-8c-26.76,3.91-28.84,4.23-40.74,5.27-.32.72-1,2-1.92,2-.24,0-.88-.16-1-1.2l-1-8.23c4.16-.08,5.83-.16,8.47-.32,2.32-3.28,6.47-9.11,8.79-16.06h-3a161.5,161.5,0,0,0-20.13.8v-7.67c7.67.4,10.47.48,20.69.48h17.42c9.43,0,15-.08,26.44-1v7.67C1132.16,378.49,1125.37,378.49,1111.47,378.49Zm-7.27-36.35a66.59,66.59,0,0,1-15.5,15.34c.8.08,6,.4,9.91.4h12.86c3.11,0,7.43-.24,9-.32C1112.59,352.29,1109.39,348.85,1104.2,342.14Z"/></g></svg>